<?xml version="1.0" encoding="utf-8" standalone="no"?>
<!DOCTYPE svg PUBLIC "-//W3C//DTD SVG 1.1//EN"
  "http://www.w3.org/Graphics/SVG/1.1/DTD/svg11.dtd">
<svg xmlns:xlink="http://www.w3.org/1999/xlink" width="551.808pt" height="392.256pt" viewBox="0 0 551.808 392.256" xmlns="http://www.w3.org/2000/svg" version="1.1">
 <metadata>
  <rdf:RDF xmlns:dc="http://purl.org/dc/elements/1.1/" xmlns:cc="http://creativecommons.org/ns#" xmlns:rdf="http://www.w3.org/1999/02/22-rdf-syntax-ns#">
   <cc:Work>
    <dc:type rdf:resource="http://purl.org/dc/dcmitype/StillImage"/>
    <dc:date>2026-05-14T19:37:59.781464</dc:date>
    <dc:format>image/svg+xml</dc:format>
    <dc:creator>
     <cc:Agent>
      <dc:title>Matplotlib v3.10.9, https://matplotlib.org/</dc:title>
     </cc:Agent>
    </dc:creator>
   </cc:Work>
  </rdf:RDF>
 </metadata>
 <defs>
  <style type="text/css">*{stroke-linejoin: round; stroke-linecap: butt}</style>
 </defs>
 <g id="figure_1">
  <g id="patch_1">
   <path d="M 0 392.256 
L 551.808 392.256 
L 551.808 0 
L 0 0 
z
" style="fill: #ffffff"/>
  </g>
  <g id="axes_1">
   <g id="patch_2">
    <path d="M 68.976 349.10784 
L 496.6272 349.10784 
L 496.6272 47.07072 
L 68.976 47.07072 
z
" style="fill: #ffffff"/>
   </g>
   <g id="matplotlib.axis_1">
    <g id="xtick_1">
     <g id="line2d_1">
      <path d="M 103.381257 349.10784 
L 103.381257 47.07072 
" clip-path="url(#pddc5ff5786)" style="fill: none; stroke: #b0b0b0; stroke-width: 0.8; stroke-linecap: square"/>
     </g>
     <g id="line2d_2">
      <defs>
       <path id="mbb30837341" d="M 0 0 
L 0 3.5 
" style="stroke: #000000; stroke-width: 0.8"/>
      </defs>
      <g>
       <use xlink:href="#mbb30837341" x="103.381257" y="349.10784" style="stroke: #000000; stroke-width: 0.8"/>
      </g>
     </g>
     <g id="text_1">
      <!-- 0 -->
      <g transform="translate(100.200007 363.706278) scale(0.1 -0.1)">
       <defs>
        <path id="DejaVuSans-30" d="M 2034 4250 
Q 1547 4250 1301 3770 
Q 1056 3291 1056 2328 
Q 1056 1369 1301 889 
Q 1547 409 2034 409 
Q 2525 409 2770 889 
Q 3016 1369 3016 2328 
Q 3016 3291 2770 3770 
Q 2525 4250 2034 4250 
z
M 2034 4750 
Q 2819 4750 3233 4129 
Q 3647 3509 3647 2328 
Q 3647 1150 3233 529 
Q 2819 -91 2034 -91 
Q 1250 -91 836 529 
Q 422 1150 422 2328 
Q 422 3509 836 4129 
Q 1250 4750 2034 4750 
z
" transform="scale(0.015625)"/>
       </defs>
       <use xlink:href="#DejaVuSans-30"/>
      </g>
     </g>
    </g>
    <g id="xtick_2">
     <g id="line2d_3">
      <path d="M 168.69374 349.10784 
L 168.69374 47.07072 
" clip-path="url(#pddc5ff5786)" style="fill: none; stroke: #b0b0b0; stroke-width: 0.8; stroke-linecap: square"/>
     </g>
     <g id="line2d_4">
      <g>
       <use xlink:href="#mbb30837341" x="168.69374" y="349.10784" style="stroke: #000000; stroke-width: 0.8"/>
      </g>
     </g>
     <g id="text_2">
      <!-- 2 -->
      <g transform="translate(165.51249 363.706278) scale(0.1 -0.1)">
       <defs>
        <path id="DejaVuSans-32" d="M 1228 531 
L 3431 531 
L 3431 0 
L 469 0 
L 469 531 
Q 828 903 1448 1529 
Q 2069 2156 2228 2338 
Q 2531 2678 2651 2914 
Q 2772 3150 2772 3378 
Q 2772 3750 2511 3984 
Q 2250 4219 1831 4219 
Q 1534 4219 1204 4116 
Q 875 4013 500 3803 
L 500 4441 
Q 881 4594 1212 4672 
Q 1544 4750 1819 4750 
Q 2544 4750 2975 4387 
Q 3406 4025 3406 3419 
Q 3406 3131 3298 2873 
Q 3191 2616 2906 2266 
Q 2828 2175 2409 1742 
Q 1991 1309 1228 531 
z
" transform="scale(0.015625)"/>
       </defs>
       <use xlink:href="#DejaVuSans-32"/>
      </g>
     </g>
    </g>
    <g id="xtick_3">
     <g id="line2d_5">
      <path d="M 234.006223 349.10784 
L 234.006223 47.07072 
" clip-path="url(#pddc5ff5786)" style="fill: none; stroke: #b0b0b0; stroke-width: 0.8; stroke-linecap: square"/>
     </g>
     <g id="line2d_6">
      <g>
       <use xlink:href="#mbb30837341" x="234.006223" y="349.10784" style="stroke: #000000; stroke-width: 0.8"/>
      </g>
     </g>
     <g id="text_3">
      <!-- 4 -->
      <g transform="translate(230.824973 363.706278) scale(0.1 -0.1)">
       <defs>
        <path id="DejaVuSans-34" d="M 2419 4116 
L 825 1625 
L 2419 1625 
L 2419 4116 
z
M 2253 4666 
L 3047 4666 
L 3047 1625 
L 3713 1625 
L 3713 1100 
L 3047 1100 
L 3047 0 
L 2419 0 
L 2419 1100 
L 313 1100 
L 313 1709 
L 2253 4666 
z
" transform="scale(0.015625)"/>
       </defs>
       <use xlink:href="#DejaVuSans-34"/>
      </g>
     </g>
    </g>
    <g id="xtick_4">
     <g id="line2d_7">
      <path d="M 299.318706 349.10784 
L 299.318706 47.07072 
" clip-path="url(#pddc5ff5786)" style="fill: none; stroke: #b0b0b0; stroke-width: 0.8; stroke-linecap: square"/>
     </g>
     <g id="line2d_8">
      <g>
       <use xlink:href="#mbb30837341" x="299.318706" y="349.10784" style="stroke: #000000; stroke-width: 0.8"/>
      </g>
     </g>
     <g id="text_4">
      <!-- 6 -->
      <g transform="translate(296.137456 363.706278) scale(0.1 -0.1)">
       <defs>
        <path id="DejaVuSans-36" d="M 2113 2584 
Q 1688 2584 1439 2293 
Q 1191 2003 1191 1497 
Q 1191 994 1439 701 
Q 1688 409 2113 409 
Q 2538 409 2786 701 
Q 3034 994 3034 1497 
Q 3034 2003 2786 2293 
Q 2538 2584 2113 2584 
z
M 3366 4563 
L 3366 3988 
Q 3128 4100 2886 4159 
Q 2644 4219 2406 4219 
Q 1781 4219 1451 3797 
Q 1122 3375 1075 2522 
Q 1259 2794 1537 2939 
Q 1816 3084 2150 3084 
Q 2853 3084 3261 2657 
Q 3669 2231 3669 1497 
Q 3669 778 3244 343 
Q 2819 -91 2113 -91 
Q 1303 -91 875 529 
Q 447 1150 447 2328 
Q 447 3434 972 4092 
Q 1497 4750 2381 4750 
Q 2619 4750 2861 4703 
Q 3103 4656 3366 4563 
z
" transform="scale(0.015625)"/>
       </defs>
       <use xlink:href="#DejaVuSans-36"/>
      </g>
     </g>
    </g>
    <g id="xtick_5">
     <g id="line2d_9">
      <path d="M 364.631189 349.10784 
L 364.631189 47.07072 
" clip-path="url(#pddc5ff5786)" style="fill: none; stroke: #b0b0b0; stroke-width: 0.8; stroke-linecap: square"/>
     </g>
     <g id="line2d_10">
      <g>
       <use xlink:href="#mbb30837341" x="364.631189" y="349.10784" style="stroke: #000000; stroke-width: 0.8"/>
      </g>
     </g>
     <g id="text_5">
      <!-- 8 -->
      <g transform="translate(361.449939 363.706278) scale(0.1 -0.1)">
       <defs>
        <path id="DejaVuSans-38" d="M 2034 2216 
Q 1584 2216 1326 1975 
Q 1069 1734 1069 1313 
Q 1069 891 1326 650 
Q 1584 409 2034 409 
Q 2484 409 2743 651 
Q 3003 894 3003 1313 
Q 3003 1734 2745 1975 
Q 2488 2216 2034 2216 
z
M 1403 2484 
Q 997 2584 770 2862 
Q 544 3141 544 3541 
Q 544 4100 942 4425 
Q 1341 4750 2034 4750 
Q 2731 4750 3128 4425 
Q 3525 4100 3525 3541 
Q 3525 3141 3298 2862 
Q 3072 2584 2669 2484 
Q 3125 2378 3379 2068 
Q 3634 1759 3634 1313 
Q 3634 634 3220 271 
Q 2806 -91 2034 -91 
Q 1263 -91 848 271 
Q 434 634 434 1313 
Q 434 1759 690 2068 
Q 947 2378 1403 2484 
z
M 1172 3481 
Q 1172 3119 1398 2916 
Q 1625 2713 2034 2713 
Q 2441 2713 2670 2916 
Q 2900 3119 2900 3481 
Q 2900 3844 2670 4047 
Q 2441 4250 2034 4250 
Q 1625 4250 1398 4047 
Q 1172 3844 1172 3481 
z
" transform="scale(0.015625)"/>
       </defs>
       <use xlink:href="#DejaVuSans-38"/>
      </g>
     </g>
    </g>
    <g id="xtick_6">
     <g id="line2d_11">
      <path d="M 429.943671 349.10784 
L 429.943671 47.07072 
" clip-path="url(#pddc5ff5786)" style="fill: none; stroke: #b0b0b0; stroke-width: 0.8; stroke-linecap: square"/>
     </g>
     <g id="line2d_12">
      <g>
       <use xlink:href="#mbb30837341" x="429.943671" y="349.10784" style="stroke: #000000; stroke-width: 0.8"/>
      </g>
     </g>
     <g id="text_6">
      <!-- 10 -->
      <g transform="translate(423.581171 363.706278) scale(0.1 -0.1)">
       <defs>
        <path id="DejaVuSans-31" d="M 794 531 
L 1825 531 
L 1825 4091 
L 703 3866 
L 703 4441 
L 1819 4666 
L 2450 4666 
L 2450 531 
L 3481 531 
L 3481 0 
L 794 0 
L 794 531 
z
" transform="scale(0.015625)"/>
       </defs>
       <use xlink:href="#DejaVuSans-31"/>
       <use xlink:href="#DejaVuSans-30" transform="translate(63.623047 0)"/>
      </g>
     </g>
    </g>
    <g id="xtick_7">
     <g id="line2d_13">
      <path d="M 495.256154 349.10784 
L 495.256154 47.07072 
" clip-path="url(#pddc5ff5786)" style="fill: none; stroke: #b0b0b0; stroke-width: 0.8; stroke-linecap: square"/>
     </g>
     <g id="line2d_14">
      <g>
       <use xlink:href="#mbb30837341" x="495.256154" y="349.10784" style="stroke: #000000; stroke-width: 0.8"/>
      </g>
     </g>
     <g id="text_7">
      <!-- 12 -->
      <g transform="translate(488.893654 363.706278) scale(0.1 -0.1)">
       <use xlink:href="#DejaVuSans-31"/>
       <use xlink:href="#DejaVuSans-32" transform="translate(63.623047 0)"/>
      </g>
     </g>
    </g>
    <g id="text_8">
     <!-- Angle (degrees) -->
     <g transform="translate(242.956288 377.384403) scale(0.1 -0.1)">
      <defs>
       <path id="DejaVuSans-41" d="M 2188 4044 
L 1331 1722 
L 3047 1722 
L 2188 4044 
z
M 1831 4666 
L 2547 4666 
L 4325 0 
L 3669 0 
L 3244 1197 
L 1141 1197 
L 716 0 
L 50 0 
L 1831 4666 
z
" transform="scale(0.015625)"/>
       <path id="DejaVuSans-6e" d="M 3513 2113 
L 3513 0 
L 2938 0 
L 2938 2094 
Q 2938 2591 2744 2837 
Q 2550 3084 2163 3084 
Q 1697 3084 1428 2787 
Q 1159 2491 1159 1978 
L 1159 0 
L 581 0 
L 581 3500 
L 1159 3500 
L 1159 2956 
Q 1366 3272 1645 3428 
Q 1925 3584 2291 3584 
Q 2894 3584 3203 3211 
Q 3513 2838 3513 2113 
z
" transform="scale(0.015625)"/>
       <path id="DejaVuSans-67" d="M 2906 1791 
Q 2906 2416 2648 2759 
Q 2391 3103 1925 3103 
Q 1463 3103 1205 2759 
Q 947 2416 947 1791 
Q 947 1169 1205 825 
Q 1463 481 1925 481 
Q 2391 481 2648 825 
Q 2906 1169 2906 1791 
z
M 3481 434 
Q 3481 -459 3084 -895 
Q 2688 -1331 1869 -1331 
Q 1566 -1331 1297 -1286 
Q 1028 -1241 775 -1147 
L 775 -588 
Q 1028 -725 1275 -790 
Q 1522 -856 1778 -856 
Q 2344 -856 2625 -561 
Q 2906 -266 2906 331 
L 2906 616 
Q 2728 306 2450 153 
Q 2172 0 1784 0 
Q 1141 0 747 490 
Q 353 981 353 1791 
Q 353 2603 747 3093 
Q 1141 3584 1784 3584 
Q 2172 3584 2450 3431 
Q 2728 3278 2906 2969 
L 2906 3500 
L 3481 3500 
L 3481 434 
z
" transform="scale(0.015625)"/>
       <path id="DejaVuSans-6c" d="M 603 4863 
L 1178 4863 
L 1178 0 
L 603 0 
L 603 4863 
z
" transform="scale(0.015625)"/>
       <path id="DejaVuSans-65" d="M 3597 1894 
L 3597 1613 
L 953 1613 
Q 991 1019 1311 708 
Q 1631 397 2203 397 
Q 2534 397 2845 478 
Q 3156 559 3463 722 
L 3463 178 
Q 3153 47 2828 -22 
Q 2503 -91 2169 -91 
Q 1331 -91 842 396 
Q 353 884 353 1716 
Q 353 2575 817 3079 
Q 1281 3584 2069 3584 
Q 2775 3584 3186 3129 
Q 3597 2675 3597 1894 
z
M 3022 2063 
Q 3016 2534 2758 2815 
Q 2500 3097 2075 3097 
Q 1594 3097 1305 2825 
Q 1016 2553 972 2059 
L 3022 2063 
z
" transform="scale(0.015625)"/>
       <path id="DejaVuSans-20" transform="scale(0.015625)"/>
       <path id="DejaVuSans-28" d="M 1984 4856 
Q 1566 4138 1362 3434 
Q 1159 2731 1159 2009 
Q 1159 1288 1364 580 
Q 1569 -128 1984 -844 
L 1484 -844 
Q 1016 -109 783 600 
Q 550 1309 550 2009 
Q 550 2706 781 3412 
Q 1013 4119 1484 4856 
L 1984 4856 
z
" transform="scale(0.015625)"/>
       <path id="DejaVuSans-64" d="M 2906 2969 
L 2906 4863 
L 3481 4863 
L 3481 0 
L 2906 0 
L 2906 525 
Q 2725 213 2448 61 
Q 2172 -91 1784 -91 
Q 1150 -91 751 415 
Q 353 922 353 1747 
Q 353 2572 751 3078 
Q 1150 3584 1784 3584 
Q 2172 3584 2448 3432 
Q 2725 3281 2906 2969 
z
M 947 1747 
Q 947 1113 1208 752 
Q 1469 391 1925 391 
Q 2381 391 2643 752 
Q 2906 1113 2906 1747 
Q 2906 2381 2643 2742 
Q 2381 3103 1925 3103 
Q 1469 3103 1208 2742 
Q 947 2381 947 1747 
z
" transform="scale(0.015625)"/>
       <path id="DejaVuSans-72" d="M 2631 2963 
Q 2534 3019 2420 3045 
Q 2306 3072 2169 3072 
Q 1681 3072 1420 2755 
Q 1159 2438 1159 1844 
L 1159 0 
L 581 0 
L 581 3500 
L 1159 3500 
L 1159 2956 
Q 1341 3275 1631 3429 
Q 1922 3584 2338 3584 
Q 2397 3584 2469 3576 
Q 2541 3569 2628 3553 
L 2631 2963 
z
" transform="scale(0.015625)"/>
       <path id="DejaVuSans-73" d="M 2834 3397 
L 2834 2853 
Q 2591 2978 2328 3040 
Q 2066 3103 1784 3103 
Q 1356 3103 1142 2972 
Q 928 2841 928 2578 
Q 928 2378 1081 2264 
Q 1234 2150 1697 2047 
L 1894 2003 
Q 2506 1872 2764 1633 
Q 3022 1394 3022 966 
Q 3022 478 2636 193 
Q 2250 -91 1575 -91 
Q 1294 -91 989 -36 
Q 684 19 347 128 
L 347 722 
Q 666 556 975 473 
Q 1284 391 1588 391 
Q 1994 391 2212 530 
Q 2431 669 2431 922 
Q 2431 1156 2273 1281 
Q 2116 1406 1581 1522 
L 1381 1569 
Q 847 1681 609 1914 
Q 372 2147 372 2553 
Q 372 3047 722 3315 
Q 1072 3584 1716 3584 
Q 2034 3584 2315 3537 
Q 2597 3491 2834 3397 
z
" transform="scale(0.015625)"/>
       <path id="DejaVuSans-29" d="M 513 4856 
L 1013 4856 
Q 1481 4119 1714 3412 
Q 1947 2706 1947 2009 
Q 1947 1309 1714 600 
Q 1481 -109 1013 -844 
L 513 -844 
Q 928 -128 1133 580 
Q 1338 1288 1338 2009 
Q 1338 2731 1133 3434 
Q 928 4138 513 4856 
z
" transform="scale(0.015625)"/>
      </defs>
      <use xlink:href="#DejaVuSans-41"/>
      <use xlink:href="#DejaVuSans-6e" transform="translate(68.408203 0)"/>
      <use xlink:href="#DejaVuSans-67" transform="translate(131.787109 0)"/>
      <use xlink:href="#DejaVuSans-6c" transform="translate(195.263672 0)"/>
      <use xlink:href="#DejaVuSans-65" transform="translate(223.046875 0)"/>
      <use xlink:href="#DejaVuSans-20" transform="translate(284.570312 0)"/>
      <use xlink:href="#DejaVuSans-28" transform="translate(316.357422 0)"/>
      <use xlink:href="#DejaVuSans-64" transform="translate(355.371094 0)"/>
      <use xlink:href="#DejaVuSans-65" transform="translate(418.847656 0)"/>
      <use xlink:href="#DejaVuSans-67" transform="translate(480.371094 0)"/>
      <use xlink:href="#DejaVuSans-72" transform="translate(543.847656 0)"/>
      <use xlink:href="#DejaVuSans-65" transform="translate(582.710938 0)"/>
      <use xlink:href="#DejaVuSans-65" transform="translate(644.234375 0)"/>
      <use xlink:href="#DejaVuSans-73" transform="translate(705.757812 0)"/>
      <use xlink:href="#DejaVuSans-29" transform="translate(757.857422 0)"/>
     </g>
    </g>
   </g>
   <g id="matplotlib.axis_2">
    <g id="ytick_1">
     <g id="line2d_15">
      <path d="M 68.976 305.100046 
L 496.6272 305.100046 
" clip-path="url(#pddc5ff5786)" style="fill: none; stroke: #b0b0b0; stroke-width: 0.8; stroke-linecap: square"/>
     </g>
     <g id="line2d_16">
      <defs>
       <path id="ma282cdd6d2" d="M 0 0 
L -3.5 0 
" style="stroke: #000000; stroke-width: 0.8"/>
      </defs>
      <g>
       <use xlink:href="#ma282cdd6d2" x="68.976" y="305.100046" style="stroke: #000000; stroke-width: 0.8"/>
      </g>
     </g>
     <g id="text_9">
      <!-- −0.0004 -->
      <g transform="translate(18.605687 308.899265) scale(0.1 -0.1)">
       <defs>
        <path id="DejaVuSans-2212" d="M 678 2272 
L 4684 2272 
L 4684 1741 
L 678 1741 
L 678 2272 
z
" transform="scale(0.015625)"/>
        <path id="DejaVuSans-2e" d="M 684 794 
L 1344 794 
L 1344 0 
L 684 0 
L 684 794 
z
" transform="scale(0.015625)"/>
       </defs>
       <use xlink:href="#DejaVuSans-2212"/>
       <use xlink:href="#DejaVuSans-30" transform="translate(83.789062 0)"/>
       <use xlink:href="#DejaVuSans-2e" transform="translate(147.412109 0)"/>
       <use xlink:href="#DejaVuSans-30" transform="translate(179.199219 0)"/>
       <use xlink:href="#DejaVuSans-30" transform="translate(242.822266 0)"/>
       <use xlink:href="#DejaVuSans-30" transform="translate(306.445312 0)"/>
       <use xlink:href="#DejaVuSans-34" transform="translate(370.068359 0)"/>
      </g>
     </g>
    </g>
    <g id="ytick_2">
     <g id="line2d_17">
      <path d="M 68.976 254.206846 
L 496.6272 254.206846 
" clip-path="url(#pddc5ff5786)" style="fill: none; stroke: #b0b0b0; stroke-width: 0.8; stroke-linecap: square"/>
     </g>
     <g id="line2d_18">
      <g>
       <use xlink:href="#ma282cdd6d2" x="68.976" y="254.206846" style="stroke: #000000; stroke-width: 0.8"/>
      </g>
     </g>
     <g id="text_10">
      <!-- −0.0002 -->
      <g transform="translate(18.605687 258.006065) scale(0.1 -0.1)">
       <use xlink:href="#DejaVuSans-2212"/>
       <use xlink:href="#DejaVuSans-30" transform="translate(83.789062 0)"/>
       <use xlink:href="#DejaVuSans-2e" transform="translate(147.412109 0)"/>
       <use xlink:href="#DejaVuSans-30" transform="translate(179.199219 0)"/>
       <use xlink:href="#DejaVuSans-30" transform="translate(242.822266 0)"/>
       <use xlink:href="#DejaVuSans-30" transform="translate(306.445312 0)"/>
       <use xlink:href="#DejaVuSans-32" transform="translate(370.068359 0)"/>
      </g>
     </g>
    </g>
    <g id="ytick_3">
     <g id="line2d_19">
      <path d="M 68.976 203.313646 
L 496.6272 203.313646 
" clip-path="url(#pddc5ff5786)" style="fill: none; stroke: #b0b0b0; stroke-width: 0.8; stroke-linecap: square"/>
     </g>
     <g id="line2d_20">
      <g>
       <use xlink:href="#ma282cdd6d2" x="68.976" y="203.313646" style="stroke: #000000; stroke-width: 0.8"/>
      </g>
     </g>
     <g id="text_11">
      <!-- 0.0000 -->
      <g transform="translate(26.985375 207.112865) scale(0.1 -0.1)">
       <use xlink:href="#DejaVuSans-30"/>
       <use xlink:href="#DejaVuSans-2e" transform="translate(63.623047 0)"/>
       <use xlink:href="#DejaVuSans-30" transform="translate(95.410156 0)"/>
       <use xlink:href="#DejaVuSans-30" transform="translate(159.033203 0)"/>
       <use xlink:href="#DejaVuSans-30" transform="translate(222.65625 0)"/>
       <use xlink:href="#DejaVuSans-30" transform="translate(286.279297 0)"/>
      </g>
     </g>
    </g>
    <g id="ytick_4">
     <g id="line2d_21">
      <path d="M 68.976 152.420446 
L 496.6272 152.420446 
" clip-path="url(#pddc5ff5786)" style="fill: none; stroke: #b0b0b0; stroke-width: 0.8; stroke-linecap: square"/>
     </g>
     <g id="line2d_22">
      <g>
       <use xlink:href="#ma282cdd6d2" x="68.976" y="152.420446" style="stroke: #000000; stroke-width: 0.8"/>
      </g>
     </g>
     <g id="text_12">
      <!-- 0.0002 -->
      <g transform="translate(26.985375 156.219665) scale(0.1 -0.1)">
       <use xlink:href="#DejaVuSans-30"/>
       <use xlink:href="#DejaVuSans-2e" transform="translate(63.623047 0)"/>
       <use xlink:href="#DejaVuSans-30" transform="translate(95.410156 0)"/>
       <use xlink:href="#DejaVuSans-30" transform="translate(159.033203 0)"/>
       <use xlink:href="#DejaVuSans-30" transform="translate(222.65625 0)"/>
       <use xlink:href="#DejaVuSans-32" transform="translate(286.279297 0)"/>
      </g>
     </g>
    </g>
    <g id="ytick_5">
     <g id="line2d_23">
      <path d="M 68.976 101.527246 
L 496.6272 101.527246 
" clip-path="url(#pddc5ff5786)" style="fill: none; stroke: #b0b0b0; stroke-width: 0.8; stroke-linecap: square"/>
     </g>
     <g id="line2d_24">
      <g>
       <use xlink:href="#ma282cdd6d2" x="68.976" y="101.527246" style="stroke: #000000; stroke-width: 0.8"/>
      </g>
     </g>
     <g id="text_13">
      <!-- 0.0004 -->
      <g transform="translate(26.985375 105.326465) scale(0.1 -0.1)">
       <use xlink:href="#DejaVuSans-30"/>
       <use xlink:href="#DejaVuSans-2e" transform="translate(63.623047 0)"/>
       <use xlink:href="#DejaVuSans-30" transform="translate(95.410156 0)"/>
       <use xlink:href="#DejaVuSans-30" transform="translate(159.033203 0)"/>
       <use xlink:href="#DejaVuSans-30" transform="translate(222.65625 0)"/>
       <use xlink:href="#DejaVuSans-34" transform="translate(286.279297 0)"/>
      </g>
     </g>
    </g>
    <g id="ytick_6">
     <g id="line2d_25">
      <path d="M 68.976 50.634046 
L 496.6272 50.634046 
" clip-path="url(#pddc5ff5786)" style="fill: none; stroke: #b0b0b0; stroke-width: 0.8; stroke-linecap: square"/>
     </g>
     <g id="line2d_26">
      <g>
       <use xlink:href="#ma282cdd6d2" x="68.976" y="50.634046" style="stroke: #000000; stroke-width: 0.8"/>
      </g>
     </g>
     <g id="text_14">
      <!-- 0.0006 -->
      <g transform="translate(26.985375 54.433265) scale(0.1 -0.1)">
       <use xlink:href="#DejaVuSans-30"/>
       <use xlink:href="#DejaVuSans-2e" transform="translate(63.623047 0)"/>
       <use xlink:href="#DejaVuSans-30" transform="translate(95.410156 0)"/>
       <use xlink:href="#DejaVuSans-30" transform="translate(159.033203 0)"/>
       <use xlink:href="#DejaVuSans-30" transform="translate(222.65625 0)"/>
       <use xlink:href="#DejaVuSans-36" transform="translate(286.279297 0)"/>
      </g>
     </g>
    </g>
    <g id="text_15">
     <!-- GZ -->
     <g transform="translate(12.526 205.388499) rotate(-90) scale(0.1 -0.1)">
      <defs>
       <path id="DejaVuSans-47" d="M 3809 666 
L 3809 1919 
L 2778 1919 
L 2778 2438 
L 4434 2438 
L 4434 434 
Q 4069 175 3628 42 
Q 3188 -91 2688 -91 
Q 1594 -91 976 548 
Q 359 1188 359 2328 
Q 359 3472 976 4111 
Q 1594 4750 2688 4750 
Q 3144 4750 3555 4637 
Q 3966 4525 4313 4306 
L 4313 3634 
Q 3963 3931 3569 4081 
Q 3175 4231 2741 4231 
Q 1884 4231 1454 3753 
Q 1025 3275 1025 2328 
Q 1025 1384 1454 906 
Q 1884 428 2741 428 
Q 3075 428 3337 486 
Q 3600 544 3809 666 
z
" transform="scale(0.015625)"/>
       <path id="DejaVuSans-5a" d="M 359 4666 
L 4025 4666 
L 4025 4184 
L 1075 531 
L 4097 531 
L 4097 0 
L 288 0 
L 288 481 
L 3238 4134 
L 359 4134 
L 359 4666 
z
" transform="scale(0.015625)"/>
      </defs>
      <use xlink:href="#DejaVuSans-47"/>
      <use xlink:href="#DejaVuSans-5a" transform="translate(77.490234 0)"/>
     </g>
    </g>
   </g>
   <g id="line2d_27">
    <path d="M -1 168.633057 
L 4.863068 171.486822 
L 12.245426 174.85627 
L 19.627784 177.995456 
L 27.010141 180.92316 
L 36.238089 184.313958 
L 45.466036 187.440167 
L 54.693983 190.338276 
L 65.767519 193.566211 
L 78.686645 197.067175 
L 95.29695 201.302609 
L 130.363149 210.163231 
L 143.282275 213.708288 
L 154.355811 216.988077 
L 163.583758 219.939326 
L 172.811705 223.127713 
L 182.039652 226.589743 
L 189.42201 229.580965 
L 196.804368 232.789483 
L 204.186725 236.234091 
L 211.569083 239.933618 
L 218.951441 243.906936 
L 226.333798 248.172958 
L 233.716156 252.750644 
L 241.098513 257.659002 
L 248.480871 262.917093 
L 254.017639 267.10167 
L 259.554408 271.50181 
L 265.091176 276.125617 
L 270.627944 280.981217 
L 276.164712 286.076754 
L 281.701481 291.420396 
L 287.238249 297.020332 
L 292.775017 302.884775 
L 298.311785 309.02196 
L 303.848554 315.440147 
L 309.385322 322.147622 
L 314.92209 329.152698 
L 320.458858 336.463711 
L 325.995627 344.089028 
L 331.532395 352.037043 
L 337.069163 360.31618 
L 342.605931 368.934893 
L 348.142699 377.901666 
L 353.679468 387.225014 
L 357.149536 393.256 
L 357.149536 393.256 
" clip-path="url(#pddc5ff5786)" style="fill: none; stroke: #1f77b4; stroke-width: 1.5; stroke-linecap: square"/>
   </g>
   <g id="line2d_28">
    <path d="M -1 188.264654 
L 4.863068 190.012467 
L 12.245426 191.990182 
L 19.627784 193.738461 
L 27.010141 195.276019 
L 34.392499 196.621538 
L 43.620446 198.061794 
L 52.848393 199.267502 
L 63.92193 200.455874 
L 74.995466 201.421446 
L 89.760182 202.470457 
L 134.054327 205.390098 
L 145.127864 206.39656 
L 156.2014 207.638757 
L 165.429348 208.899214 
L 174.657295 210.403229 
L 182.039652 211.806252 
L 189.42201 213.407099 
L 196.804368 215.224462 
L 204.186725 217.277067 
L 211.569083 219.583676 
L 218.951441 222.163093 
L 226.333798 225.034161 
L 233.716156 228.215774 
L 239.252924 230.817169 
L 244.789692 233.611906 
L 250.326461 236.608013 
L 255.863229 239.813533 
L 261.399997 243.236529 
L 266.936765 246.885083 
L 272.473534 250.767298 
L 278.010302 254.891297 
L 283.54707 259.265224 
L 289.083838 263.897246 
L 294.620606 268.795554 
L 300.157375 273.96836 
L 305.694143 279.423905 
L 311.230911 285.170451 
L 316.767679 291.216288 
L 322.304448 297.569734 
L 327.841216 304.239132 
L 333.377984 311.232857 
L 338.914752 318.55931 
L 344.451521 326.226924 
L 349.988289 334.244163 
L 355.525057 342.619522 
L 361.061825 351.361529 
L 366.598594 360.478744 
L 372.135362 369.979764 
L 377.67213 379.873219 
L 383.208898 390.167776 
L 384.82711 393.256 
L 384.82711 393.256 
" clip-path="url(#pddc5ff5786)" style="fill: none; stroke: #ff7f0e; stroke-width: 1.5; stroke-linecap: square"/>
   </g>
   <g id="line2d_29">
    <path d="M -1 207.64412 
L 4.863068 208.300169 
L 12.245426 208.904012 
L 19.627784 209.279237 
L 27.010141 209.444495 
L 34.392499 209.418398 
L 43.620446 209.144999 
L 52.848393 208.637888 
L 63.92193 207.771801 
L 74.995466 206.683709 
L 89.760182 204.99535 
L 135.899917 199.515476 
L 146.973453 198.502943 
L 156.2014 197.843896 
L 165.429348 197.391339 
L 174.657295 197.18147 
L 182.039652 197.212673 
L 189.42201 197.440993 
L 196.804368 197.885055 
L 204.186725 198.563519 
L 211.569083 199.49508 
L 218.951441 200.698472 
L 226.333798 202.192474 
L 231.870566 203.515009 
L 237.407335 205.019558 
L 242.944103 206.714096 
L 248.480871 208.606614 
L 254.017639 210.705121 
L 259.554408 213.017646 
L 265.091176 215.552234 
L 270.627944 218.316953 
L 276.164712 221.319887 
L 281.701481 224.569147 
L 287.238249 228.072861 
L 292.775017 231.839182 
L 298.311785 235.876285 
L 303.848554 240.192373 
L 309.385322 244.795668 
L 314.92209 249.694424 
L 320.458858 254.896917 
L 325.995627 260.411451 
L 331.532395 266.246361 
L 337.069163 272.410008 
L 342.605931 278.910783 
L 348.142699 285.75711 
L 353.679468 292.95744 
L 359.216236 300.52026 
L 364.753004 308.454089 
L 370.289772 316.767479 
L 375.826541 325.469016 
L 381.363309 334.567323 
L 386.900077 344.07106 
L 392.436845 353.988922 
L 397.973614 364.329643 
L 403.510382 375.101997 
L 409.04715 386.314796 
L 412.366549 393.256 
L 412.366549 393.256 
" clip-path="url(#pddc5ff5786)" style="fill: none; stroke: #2ca02c; stroke-width: 1.5; stroke-linecap: square"/>
   </g>
   <g id="line2d_30">
    <path d="M -1 226.775006 
L 4.863068 226.353282 
L 12.245426 225.600859 
L 19.627784 224.620632 
L 27.010141 223.431183 
L 34.392499 222.051061 
L 43.620446 220.085985 
L 52.848393 217.888028 
L 63.92193 214.99384 
L 76.841056 211.342059 
L 93.45136 206.363246 
L 130.363149 195.15648 
L 143.282275 191.513364 
L 154.355811 188.629289 
L 163.583758 186.441657 
L 172.811705 184.488633 
L 180.194063 183.119398 
L 187.57642 181.941945 
L 194.958778 180.974825 
L 202.341136 180.236621 
L 209.723493 179.745952 
L 217.105851 179.521478 
L 224.488209 179.581897 
L 230.024977 179.825446 
L 235.561745 180.247716 
L 241.098513 180.856647 
L 246.635282 181.660196 
L 252.17205 182.666339 
L 257.708818 183.883068 
L 263.245586 185.318394 
L 268.782355 186.980348 
L 274.319123 188.876981 
L 279.855891 191.016364 
L 285.392659 193.40659 
L 290.929428 196.055774 
L 296.466196 198.972057 
L 302.002964 202.163599 
L 307.539732 205.638589 
L 313.076501 209.405238 
L 318.613269 213.471786 
L 324.150037 217.846498 
L 329.686805 222.537666 
L 335.223574 227.553614 
L 340.760342 232.902692 
L 346.29711 238.593282 
L 351.833878 244.633795 
L 357.370647 251.032675 
L 362.907415 257.798399 
L 368.444183 264.939477 
L 373.980951 272.464452 
L 379.51772 280.381903 
L 385.054488 288.700445 
L 390.591256 297.42873 
L 396.128024 306.575447 
L 401.664793 316.149324 
L 407.201561 326.159128 
L 412.738329 336.613665 
L 418.275097 347.521785 
L 423.811865 358.892378 
L 429.348634 370.734377 
L 434.885402 383.05676 
L 439.307466 393.256 
L 439.307466 393.256 
" clip-path="url(#pddc5ff5786)" style="fill: none; stroke: #d62728; stroke-width: 1.5; stroke-linecap: square"/>
   </g>
   <g id="line2d_31">
    <path d="M -1 245.660797 
L 4.863068 244.175093 
L 12.245426 242.083765 
L 19.627784 239.76544 
L 27.010141 237.238633 
L 36.238089 233.815102 
L 45.466036 230.130732 
L 54.693983 226.221495 
L 65.767519 221.284155 
L 78.686645 215.262717 
L 95.29695 207.258828 
L 130.363149 190.282024 
L 143.282275 184.304054 
L 154.355811 179.417833 
L 163.583758 175.560982 
L 172.811705 171.93791 
L 182.039652 168.584602 
L 189.42201 166.120412 
L 196.804368 163.870436 
L 204.186725 161.853201 
L 211.569083 160.08727 
L 218.951441 158.591244 
L 226.333798 157.383767 
L 231.870566 156.678761 
L 237.407335 156.154477 
L 242.944103 155.818835 
L 248.480871 155.679768 
L 254.017639 155.745228 
L 259.554408 156.023186 
L 265.091176 156.52163 
L 270.627944 157.24857 
L 276.164712 158.212033 
L 281.701481 159.42007 
L 287.238249 160.880752 
L 292.775017 162.602173 
L 298.311785 164.592451 
L 303.848554 166.859726 
L 309.385322 169.412164 
L 314.92209 172.257958 
L 320.458858 175.405324 
L 325.995627 178.862508 
L 331.532395 182.637783 
L 337.069163 186.739449 
L 342.605931 191.175837 
L 348.142699 195.955309 
L 353.679468 201.086256 
L 359.216236 206.577103 
L 364.753004 212.436305 
L 370.289772 218.672353 
L 375.826541 225.293771 
L 381.363309 232.309118 
L 386.900077 239.72699 
L 392.436845 247.556019 
L 397.973614 255.804875 
L 403.510382 264.482266 
L 409.04715 273.596942 
L 414.583918 283.157689 
L 420.120687 293.173338 
L 425.657455 303.652761 
L 431.194223 314.604872 
L 436.730991 326.03863 
L 442.26776 337.963039 
L 447.804528 350.387149 
L 453.341296 363.320056 
L 458.878064 376.770904 
L 465.383238 393.256 
L 465.383238 393.256 
" clip-path="url(#pddc5ff5786)" style="fill: none; stroke: #9467bd; stroke-width: 1.5; stroke-linecap: square"/>
   </g>
   <g id="line2d_32">
    <path d="M -1 264.304914 
L 4.863068 261.768829 
L 12.245426 258.355715 
L 19.627784 254.716404 
L 28.855731 249.877279 
L 38.083678 244.749512 
L 47.311625 239.368998 
L 58.385161 232.629205 
L 71.304287 224.4538 
L 86.069003 214.818657 
L 141.436685 178.354097 
L 152.510222 171.450049 
L 163.583758 164.819598 
L 172.811705 159.547846 
L 182.039652 154.54491 
L 189.42201 150.760247 
L 196.804368 147.189044 
L 204.186725 143.849763 
L 211.569083 140.760899 
L 218.951441 137.940989 
L 226.333798 135.408611 
L 231.870566 133.709221 
L 237.407335 132.189917 
L 242.944103 130.858588 
L 248.480871 129.72314 
L 254.017639 128.791498 
L 259.554408 128.071603 
L 265.091176 127.571416 
L 270.627944 127.298916 
L 276.164712 127.262105 
L 281.701481 127.469002 
L 287.238249 127.927651 
L 292.775017 128.646116 
L 298.311785 129.632486 
L 303.848554 130.894874 
L 309.385322 132.441414 
L 314.92209 134.280271 
L 320.458858 136.419631 
L 325.995627 138.867711 
L 331.532395 141.632752 
L 337.069163 144.723028 
L 342.605931 148.146837 
L 348.142699 151.912511 
L 353.679468 156.028412 
L 359.216236 160.502933 
L 364.753004 165.344499 
L 370.289772 170.561571 
L 375.826541 176.16264 
L 381.363309 182.156236 
L 386.900077 188.550923 
L 392.436845 195.3553 
L 397.973614 202.578008 
L 403.510382 210.227722 
L 409.04715 218.313158 
L 414.583918 226.843073 
L 420.120687 235.826264 
L 425.657455 245.271569 
L 431.194223 255.187872 
L 436.730991 265.584097 
L 442.26776 276.469216 
L 447.804528 287.852244 
L 453.341296 299.742244 
L 458.878064 312.148327 
L 464.414833 325.079651 
L 469.951601 338.545424 
L 475.488369 352.554906 
L 481.025137 367.117406 
L 486.561906 382.242288 
L 490.466824 393.256 
L 490.466824 393.256 
" clip-path="url(#pddc5ff5786)" style="fill: none; stroke: #8c564b; stroke-width: 1.5; stroke-linecap: square"/>
   </g>
   <g id="patch_3">
    <path d="M 68.976 349.10784 
L 68.976 47.07072 
" style="fill: none; stroke: #000000; stroke-width: 0.8; stroke-linejoin: miter; stroke-linecap: square"/>
   </g>
   <g id="patch_4">
    <path d="M 496.6272 349.10784 
L 496.6272 47.07072 
" style="fill: none; stroke: #000000; stroke-width: 0.8; stroke-linejoin: miter; stroke-linecap: square"/>
   </g>
   <g id="patch_5">
    <path d="M 68.976 349.10784 
L 496.6272 349.10784 
" style="fill: none; stroke: #000000; stroke-width: 0.8; stroke-linejoin: miter; stroke-linecap: square"/>
   </g>
   <g id="patch_6">
    <path d="M 68.976 47.07072 
L 496.6272 47.07072 
" style="fill: none; stroke: #000000; stroke-width: 0.8; stroke-linejoin: miter; stroke-linecap: square"/>
   </g>
   <g id="text_16">
    <!-- GZ vs Angle -->
    <g transform="translate(246.477225 41.07072) scale(0.12 -0.12)">
     <defs>
      <path id="DejaVuSans-76" d="M 191 3500 
L 800 3500 
L 1894 563 
L 2988 3500 
L 3597 3500 
L 2284 0 
L 1503 0 
L 191 3500 
z
" transform="scale(0.015625)"/>
     </defs>
     <use xlink:href="#DejaVuSans-47"/>
     <use xlink:href="#DejaVuSans-5a" transform="translate(77.490234 0)"/>
     <use xlink:href="#DejaVuSans-20" transform="translate(145.996094 0)"/>
     <use xlink:href="#DejaVuSans-76" transform="translate(177.783203 0)"/>
     <use xlink:href="#DejaVuSans-73" transform="translate(236.962891 0)"/>
     <use xlink:href="#DejaVuSans-20" transform="translate(289.0625 0)"/>
     <use xlink:href="#DejaVuSans-41" transform="translate(320.849609 0)"/>
     <use xlink:href="#DejaVuSans-6e" transform="translate(389.257812 0)"/>
     <use xlink:href="#DejaVuSans-67" transform="translate(452.636719 0)"/>
     <use xlink:href="#DejaVuSans-6c" transform="translate(516.113281 0)"/>
     <use xlink:href="#DejaVuSans-65" transform="translate(543.896484 0)"/>
    </g>
   </g>
   <g id="legend_1">
    <g id="patch_7">
     <path d="M 428.999075 143.13947 
L 489.6272 143.13947 
Q 491.6272 143.13947 491.6272 141.13947 
L 491.6272 54.07072 
Q 491.6272 52.07072 489.6272 52.07072 
L 428.999075 52.07072 
Q 426.999075 52.07072 426.999075 54.07072 
L 426.999075 141.13947 
Q 426.999075 143.13947 428.999075 143.13947 
z
" style="fill: #ffffff; opacity: 0.8; stroke: #cccccc; stroke-linejoin: miter"/>
    </g>
    <g id="line2d_33">
     <path d="M 430.999075 60.169158 
L 440.999075 60.169158 
L 450.999075 60.169158 
" style="fill: none; stroke: #1f77b4; stroke-width: 1.5; stroke-linecap: square"/>
    </g>
    <g id="text_17">
     <!-- 0.21 -->
     <g transform="translate(458.999075 63.669158) scale(0.1 -0.1)">
      <use xlink:href="#DejaVuSans-30"/>
      <use xlink:href="#DejaVuSans-2e" transform="translate(63.623047 0)"/>
      <use xlink:href="#DejaVuSans-32" transform="translate(95.410156 0)"/>
      <use xlink:href="#DejaVuSans-31" transform="translate(159.033203 0)"/>
     </g>
    </g>
    <g id="line2d_34">
     <path d="M 430.999075 74.847283 
L 440.999075 74.847283 
L 450.999075 74.847283 
" style="fill: none; stroke: #ff7f0e; stroke-width: 1.5; stroke-linecap: square"/>
    </g>
    <g id="text_18">
     <!-- 0.211 -->
     <g transform="translate(458.999075 78.347283) scale(0.1 -0.1)">
      <use xlink:href="#DejaVuSans-30"/>
      <use xlink:href="#DejaVuSans-2e" transform="translate(63.623047 0)"/>
      <use xlink:href="#DejaVuSans-32" transform="translate(95.410156 0)"/>
      <use xlink:href="#DejaVuSans-31" transform="translate(159.033203 0)"/>
      <use xlink:href="#DejaVuSans-31" transform="translate(222.65625 0)"/>
     </g>
    </g>
    <g id="line2d_35">
     <path d="M 430.999075 89.525408 
L 440.999075 89.525408 
L 450.999075 89.525408 
" style="fill: none; stroke: #2ca02c; stroke-width: 1.5; stroke-linecap: square"/>
    </g>
    <g id="text_19">
     <!-- 0.212 -->
     <g transform="translate(458.999075 93.025408) scale(0.1 -0.1)">
      <use xlink:href="#DejaVuSans-30"/>
      <use xlink:href="#DejaVuSans-2e" transform="translate(63.623047 0)"/>
      <use xlink:href="#DejaVuSans-32" transform="translate(95.410156 0)"/>
      <use xlink:href="#DejaVuSans-31" transform="translate(159.033203 0)"/>
      <use xlink:href="#DejaVuSans-32" transform="translate(222.65625 0)"/>
     </g>
    </g>
    <g id="line2d_36">
     <path d="M 430.999075 104.203533 
L 440.999075 104.203533 
L 450.999075 104.203533 
" style="fill: none; stroke: #d62728; stroke-width: 1.5; stroke-linecap: square"/>
    </g>
    <g id="text_20">
     <!-- 0.213 -->
     <g transform="translate(458.999075 107.703533) scale(0.1 -0.1)">
      <defs>
       <path id="DejaVuSans-33" d="M 2597 2516 
Q 3050 2419 3304 2112 
Q 3559 1806 3559 1356 
Q 3559 666 3084 287 
Q 2609 -91 1734 -91 
Q 1441 -91 1130 -33 
Q 819 25 488 141 
L 488 750 
Q 750 597 1062 519 
Q 1375 441 1716 441 
Q 2309 441 2620 675 
Q 2931 909 2931 1356 
Q 2931 1769 2642 2001 
Q 2353 2234 1838 2234 
L 1294 2234 
L 1294 2753 
L 1863 2753 
Q 2328 2753 2575 2939 
Q 2822 3125 2822 3475 
Q 2822 3834 2567 4026 
Q 2313 4219 1838 4219 
Q 1578 4219 1281 4162 
Q 984 4106 628 3988 
L 628 4550 
Q 988 4650 1302 4700 
Q 1616 4750 1894 4750 
Q 2613 4750 3031 4423 
Q 3450 4097 3450 3541 
Q 3450 3153 3228 2886 
Q 3006 2619 2597 2516 
z
" transform="scale(0.015625)"/>
      </defs>
      <use xlink:href="#DejaVuSans-30"/>
      <use xlink:href="#DejaVuSans-2e" transform="translate(63.623047 0)"/>
      <use xlink:href="#DejaVuSans-32" transform="translate(95.410156 0)"/>
      <use xlink:href="#DejaVuSans-31" transform="translate(159.033203 0)"/>
      <use xlink:href="#DejaVuSans-33" transform="translate(222.65625 0)"/>
     </g>
    </g>
    <g id="line2d_37">
     <path d="M 430.999075 118.881658 
L 440.999075 118.881658 
L 450.999075 118.881658 
" style="fill: none; stroke: #9467bd; stroke-width: 1.5; stroke-linecap: square"/>
    </g>
    <g id="text_21">
     <!-- 0.214 -->
     <g transform="translate(458.999075 122.381658) scale(0.1 -0.1)">
      <use xlink:href="#DejaVuSans-30"/>
      <use xlink:href="#DejaVuSans-2e" transform="translate(63.623047 0)"/>
      <use xlink:href="#DejaVuSans-32" transform="translate(95.410156 0)"/>
      <use xlink:href="#DejaVuSans-31" transform="translate(159.033203 0)"/>
      <use xlink:href="#DejaVuSans-34" transform="translate(222.65625 0)"/>
     </g>
    </g>
    <g id="line2d_38">
     <path d="M 430.999075 133.559783 
L 440.999075 133.559783 
L 450.999075 133.559783 
" style="fill: none; stroke: #8c564b; stroke-width: 1.5; stroke-linecap: square"/>
    </g>
    <g id="text_22">
     <!-- 0.215 -->
     <g transform="translate(458.999075 137.059783) scale(0.1 -0.1)">
      <defs>
       <path id="DejaVuSans-35" d="M 691 4666 
L 3169 4666 
L 3169 4134 
L 1269 4134 
L 1269 2991 
Q 1406 3038 1543 3061 
Q 1681 3084 1819 3084 
Q 2600 3084 3056 2656 
Q 3513 2228 3513 1497 
Q 3513 744 3044 326 
Q 2575 -91 1722 -91 
Q 1428 -91 1123 -41 
Q 819 9 494 109 
L 494 744 
Q 775 591 1075 516 
Q 1375 441 1709 441 
Q 2250 441 2565 725 
Q 2881 1009 2881 1497 
Q 2881 1984 2565 2268 
Q 2250 2553 1709 2553 
Q 1456 2553 1204 2497 
Q 953 2441 691 2322 
L 691 4666 
z
" transform="scale(0.015625)"/>
      </defs>
      <use xlink:href="#DejaVuSans-30"/>
      <use xlink:href="#DejaVuSans-2e" transform="translate(63.623047 0)"/>
      <use xlink:href="#DejaVuSans-32" transform="translate(95.410156 0)"/>
      <use xlink:href="#DejaVuSans-31" transform="translate(159.033203 0)"/>
      <use xlink:href="#DejaVuSans-35" transform="translate(222.65625 0)"/>
     </g>
    </g>
   </g>
  </g>
 </g>
 <defs>
  <clipPath id="pddc5ff5786">
   <rect x="68.976" y="47.07072" width="427.6512" height="302.03712"/>
  </clipPath>
 </defs>
</svg>
