<?xml version="1.0" encoding="utf-8" standalone="no"?>
<!DOCTYPE svg PUBLIC "-//W3C//DTD SVG 1.1//EN"
  "http://www.w3.org/Graphics/SVG/1.1/DTD/svg11.dtd">
<svg xmlns:xlink="http://www.w3.org/1999/xlink" width="551.808pt" height="395.712pt" viewBox="0 0 551.808 395.712" xmlns="http://www.w3.org/2000/svg" version="1.1">
 <metadata>
  <rdf:RDF xmlns:dc="http://purl.org/dc/elements/1.1/" xmlns:cc="http://creativecommons.org/ns#" xmlns:rdf="http://www.w3.org/1999/02/22-rdf-syntax-ns#">
   <cc:Work>
    <dc:type rdf:resource="http://purl.org/dc/dcmitype/StillImage"/>
    <dc:date>2026-05-14T19:35:38.937896</dc:date>
    <dc:format>image/svg+xml</dc:format>
    <dc:creator>
     <cc:Agent>
      <dc:title>Matplotlib v3.10.9, https://matplotlib.org/</dc:title>
     </cc:Agent>
    </dc:creator>
   </cc:Work>
  </rdf:RDF>
 </metadata>
 <defs>
  <style type="text/css">*{stroke-linejoin: round; stroke-linecap: butt}</style>
 </defs>
 <g id="figure_1">
  <g id="patch_1">
   <path d="M 0 395.712 
L 551.808 395.712 
L 551.808 0 
L 0 0 
z
" style="fill: #ffffff"/>
  </g>
  <g id="axes_1">
   <g id="patch_2">
    <path d="M 68.976 352.18368 
L 496.6272 352.18368 
L 496.6272 47.48544 
L 68.976 47.48544 
z
" style="fill: #ffffff"/>
   </g>
   <g id="matplotlib.axis_1">
    <g id="xtick_1">
     <g id="line2d_1">
      <path d="M 127.868166 352.18368 
L 127.868166 47.48544 
" clip-path="url(#p1383873efa)" style="fill: none; stroke: #b0b0b0; stroke-width: 0.8; stroke-linecap: square"/>
     </g>
     <g id="line2d_2">
      <defs>
       <path id="m2cc75047cb" d="M 0 0 
L 0 3.5 
" style="stroke: #000000; stroke-width: 0.8"/>
      </defs>
      <g>
       <use xlink:href="#m2cc75047cb" x="127.868166" y="352.18368" style="stroke: #000000; stroke-width: 0.8"/>
      </g>
     </g>
     <g id="text_1">
      <!-- 0 -->
      <g transform="translate(124.686916 366.782118) scale(0.1 -0.1)">
       <defs>
        <path id="DejaVuSans-30" d="M 2034 4250 
Q 1547 4250 1301 3770 
Q 1056 3291 1056 2328 
Q 1056 1369 1301 889 
Q 1547 409 2034 409 
Q 2525 409 2770 889 
Q 3016 1369 3016 2328 
Q 3016 3291 2770 3770 
Q 2525 4250 2034 4250 
z
M 2034 4750 
Q 2819 4750 3233 4129 
Q 3647 3509 3647 2328 
Q 3647 1150 3233 529 
Q 2819 -91 2034 -91 
Q 1250 -91 836 529 
Q 422 1150 422 2328 
Q 422 3509 836 4129 
Q 1250 4750 2034 4750 
z
" transform="scale(0.015625)"/>
       </defs>
       <use xlink:href="#DejaVuSans-30"/>
      </g>
     </g>
    </g>
    <g id="xtick_2">
     <g id="line2d_3">
      <path d="M 196.72747 352.18368 
L 196.72747 47.48544 
" clip-path="url(#p1383873efa)" style="fill: none; stroke: #b0b0b0; stroke-width: 0.8; stroke-linecap: square"/>
     </g>
     <g id="line2d_4">
      <g>
       <use xlink:href="#m2cc75047cb" x="196.72747" y="352.18368" style="stroke: #000000; stroke-width: 0.8"/>
      </g>
     </g>
     <g id="text_2">
      <!-- 10 -->
      <g transform="translate(190.36497 366.782118) scale(0.1 -0.1)">
       <defs>
        <path id="DejaVuSans-31" d="M 794 531 
L 1825 531 
L 1825 4091 
L 703 3866 
L 703 4441 
L 1819 4666 
L 2450 4666 
L 2450 531 
L 3481 531 
L 3481 0 
L 794 0 
L 794 531 
z
" transform="scale(0.015625)"/>
       </defs>
       <use xlink:href="#DejaVuSans-31"/>
       <use xlink:href="#DejaVuSans-30" transform="translate(63.623047 0)"/>
      </g>
     </g>
    </g>
    <g id="xtick_3">
     <g id="line2d_5">
      <path d="M 265.586774 352.18368 
L 265.586774 47.48544 
" clip-path="url(#p1383873efa)" style="fill: none; stroke: #b0b0b0; stroke-width: 0.8; stroke-linecap: square"/>
     </g>
     <g id="line2d_6">
      <g>
       <use xlink:href="#m2cc75047cb" x="265.586774" y="352.18368" style="stroke: #000000; stroke-width: 0.8"/>
      </g>
     </g>
     <g id="text_3">
      <!-- 20 -->
      <g transform="translate(259.224274 366.782118) scale(0.1 -0.1)">
       <defs>
        <path id="DejaVuSans-32" d="M 1228 531 
L 3431 531 
L 3431 0 
L 469 0 
L 469 531 
Q 828 903 1448 1529 
Q 2069 2156 2228 2338 
Q 2531 2678 2651 2914 
Q 2772 3150 2772 3378 
Q 2772 3750 2511 3984 
Q 2250 4219 1831 4219 
Q 1534 4219 1204 4116 
Q 875 4013 500 3803 
L 500 4441 
Q 881 4594 1212 4672 
Q 1544 4750 1819 4750 
Q 2544 4750 2975 4387 
Q 3406 4025 3406 3419 
Q 3406 3131 3298 2873 
Q 3191 2616 2906 2266 
Q 2828 2175 2409 1742 
Q 1991 1309 1228 531 
z
" transform="scale(0.015625)"/>
       </defs>
       <use xlink:href="#DejaVuSans-32"/>
       <use xlink:href="#DejaVuSans-30" transform="translate(63.623047 0)"/>
      </g>
     </g>
    </g>
    <g id="xtick_4">
     <g id="line2d_7">
      <path d="M 334.446078 352.18368 
L 334.446078 47.48544 
" clip-path="url(#p1383873efa)" style="fill: none; stroke: #b0b0b0; stroke-width: 0.8; stroke-linecap: square"/>
     </g>
     <g id="line2d_8">
      <g>
       <use xlink:href="#m2cc75047cb" x="334.446078" y="352.18368" style="stroke: #000000; stroke-width: 0.8"/>
      </g>
     </g>
     <g id="text_4">
      <!-- 30 -->
      <g transform="translate(328.083578 366.782118) scale(0.1 -0.1)">
       <defs>
        <path id="DejaVuSans-33" d="M 2597 2516 
Q 3050 2419 3304 2112 
Q 3559 1806 3559 1356 
Q 3559 666 3084 287 
Q 2609 -91 1734 -91 
Q 1441 -91 1130 -33 
Q 819 25 488 141 
L 488 750 
Q 750 597 1062 519 
Q 1375 441 1716 441 
Q 2309 441 2620 675 
Q 2931 909 2931 1356 
Q 2931 1769 2642 2001 
Q 2353 2234 1838 2234 
L 1294 2234 
L 1294 2753 
L 1863 2753 
Q 2328 2753 2575 2939 
Q 2822 3125 2822 3475 
Q 2822 3834 2567 4026 
Q 2313 4219 1838 4219 
Q 1578 4219 1281 4162 
Q 984 4106 628 3988 
L 628 4550 
Q 988 4650 1302 4700 
Q 1616 4750 1894 4750 
Q 2613 4750 3031 4423 
Q 3450 4097 3450 3541 
Q 3450 3153 3228 2886 
Q 3006 2619 2597 2516 
z
" transform="scale(0.015625)"/>
       </defs>
       <use xlink:href="#DejaVuSans-33"/>
       <use xlink:href="#DejaVuSans-30" transform="translate(63.623047 0)"/>
      </g>
     </g>
    </g>
    <g id="xtick_5">
     <g id="line2d_9">
      <path d="M 403.305382 352.18368 
L 403.305382 47.48544 
" clip-path="url(#p1383873efa)" style="fill: none; stroke: #b0b0b0; stroke-width: 0.8; stroke-linecap: square"/>
     </g>
     <g id="line2d_10">
      <g>
       <use xlink:href="#m2cc75047cb" x="403.305382" y="352.18368" style="stroke: #000000; stroke-width: 0.8"/>
      </g>
     </g>
     <g id="text_5">
      <!-- 40 -->
      <g transform="translate(396.942882 366.782118) scale(0.1 -0.1)">
       <defs>
        <path id="DejaVuSans-34" d="M 2419 4116 
L 825 1625 
L 2419 1625 
L 2419 4116 
z
M 2253 4666 
L 3047 4666 
L 3047 1625 
L 3713 1625 
L 3713 1100 
L 3047 1100 
L 3047 0 
L 2419 0 
L 2419 1100 
L 313 1100 
L 313 1709 
L 2253 4666 
z
" transform="scale(0.015625)"/>
       </defs>
       <use xlink:href="#DejaVuSans-34"/>
       <use xlink:href="#DejaVuSans-30" transform="translate(63.623047 0)"/>
      </g>
     </g>
    </g>
    <g id="xtick_6">
     <g id="line2d_11">
      <path d="M 472.164686 352.18368 
L 472.164686 47.48544 
" clip-path="url(#p1383873efa)" style="fill: none; stroke: #b0b0b0; stroke-width: 0.8; stroke-linecap: square"/>
     </g>
     <g id="line2d_12">
      <g>
       <use xlink:href="#m2cc75047cb" x="472.164686" y="352.18368" style="stroke: #000000; stroke-width: 0.8"/>
      </g>
     </g>
     <g id="text_6">
      <!-- 50 -->
      <g transform="translate(465.802186 366.782118) scale(0.1 -0.1)">
       <defs>
        <path id="DejaVuSans-35" d="M 691 4666 
L 3169 4666 
L 3169 4134 
L 1269 4134 
L 1269 2991 
Q 1406 3038 1543 3061 
Q 1681 3084 1819 3084 
Q 2600 3084 3056 2656 
Q 3513 2228 3513 1497 
Q 3513 744 3044 326 
Q 2575 -91 1722 -91 
Q 1428 -91 1123 -41 
Q 819 9 494 109 
L 494 744 
Q 775 591 1075 516 
Q 1375 441 1709 441 
Q 2250 441 2565 725 
Q 2881 1009 2881 1497 
Q 2881 1984 2565 2268 
Q 2250 2553 1709 2553 
Q 1456 2553 1204 2497 
Q 953 2441 691 2322 
L 691 4666 
z
" transform="scale(0.015625)"/>
       </defs>
       <use xlink:href="#DejaVuSans-35"/>
       <use xlink:href="#DejaVuSans-30" transform="translate(63.623047 0)"/>
      </g>
     </g>
    </g>
    <g id="text_7">
     <!-- Angle (degrees) -->
     <g transform="translate(242.956288 380.460243) scale(0.1 -0.1)">
      <defs>
       <path id="DejaVuSans-41" d="M 2188 4044 
L 1331 1722 
L 3047 1722 
L 2188 4044 
z
M 1831 4666 
L 2547 4666 
L 4325 0 
L 3669 0 
L 3244 1197 
L 1141 1197 
L 716 0 
L 50 0 
L 1831 4666 
z
" transform="scale(0.015625)"/>
       <path id="DejaVuSans-6e" d="M 3513 2113 
L 3513 0 
L 2938 0 
L 2938 2094 
Q 2938 2591 2744 2837 
Q 2550 3084 2163 3084 
Q 1697 3084 1428 2787 
Q 1159 2491 1159 1978 
L 1159 0 
L 581 0 
L 581 3500 
L 1159 3500 
L 1159 2956 
Q 1366 3272 1645 3428 
Q 1925 3584 2291 3584 
Q 2894 3584 3203 3211 
Q 3513 2838 3513 2113 
z
" transform="scale(0.015625)"/>
       <path id="DejaVuSans-67" d="M 2906 1791 
Q 2906 2416 2648 2759 
Q 2391 3103 1925 3103 
Q 1463 3103 1205 2759 
Q 947 2416 947 1791 
Q 947 1169 1205 825 
Q 1463 481 1925 481 
Q 2391 481 2648 825 
Q 2906 1169 2906 1791 
z
M 3481 434 
Q 3481 -459 3084 -895 
Q 2688 -1331 1869 -1331 
Q 1566 -1331 1297 -1286 
Q 1028 -1241 775 -1147 
L 775 -588 
Q 1028 -725 1275 -790 
Q 1522 -856 1778 -856 
Q 2344 -856 2625 -561 
Q 2906 -266 2906 331 
L 2906 616 
Q 2728 306 2450 153 
Q 2172 0 1784 0 
Q 1141 0 747 490 
Q 353 981 353 1791 
Q 353 2603 747 3093 
Q 1141 3584 1784 3584 
Q 2172 3584 2450 3431 
Q 2728 3278 2906 2969 
L 2906 3500 
L 3481 3500 
L 3481 434 
z
" transform="scale(0.015625)"/>
       <path id="DejaVuSans-6c" d="M 603 4863 
L 1178 4863 
L 1178 0 
L 603 0 
L 603 4863 
z
" transform="scale(0.015625)"/>
       <path id="DejaVuSans-65" d="M 3597 1894 
L 3597 1613 
L 953 1613 
Q 991 1019 1311 708 
Q 1631 397 2203 397 
Q 2534 397 2845 478 
Q 3156 559 3463 722 
L 3463 178 
Q 3153 47 2828 -22 
Q 2503 -91 2169 -91 
Q 1331 -91 842 396 
Q 353 884 353 1716 
Q 353 2575 817 3079 
Q 1281 3584 2069 3584 
Q 2775 3584 3186 3129 
Q 3597 2675 3597 1894 
z
M 3022 2063 
Q 3016 2534 2758 2815 
Q 2500 3097 2075 3097 
Q 1594 3097 1305 2825 
Q 1016 2553 972 2059 
L 3022 2063 
z
" transform="scale(0.015625)"/>
       <path id="DejaVuSans-20" transform="scale(0.015625)"/>
       <path id="DejaVuSans-28" d="M 1984 4856 
Q 1566 4138 1362 3434 
Q 1159 2731 1159 2009 
Q 1159 1288 1364 580 
Q 1569 -128 1984 -844 
L 1484 -844 
Q 1016 -109 783 600 
Q 550 1309 550 2009 
Q 550 2706 781 3412 
Q 1013 4119 1484 4856 
L 1984 4856 
z
" transform="scale(0.015625)"/>
       <path id="DejaVuSans-64" d="M 2906 2969 
L 2906 4863 
L 3481 4863 
L 3481 0 
L 2906 0 
L 2906 525 
Q 2725 213 2448 61 
Q 2172 -91 1784 -91 
Q 1150 -91 751 415 
Q 353 922 353 1747 
Q 353 2572 751 3078 
Q 1150 3584 1784 3584 
Q 2172 3584 2448 3432 
Q 2725 3281 2906 2969 
z
M 947 1747 
Q 947 1113 1208 752 
Q 1469 391 1925 391 
Q 2381 391 2643 752 
Q 2906 1113 2906 1747 
Q 2906 2381 2643 2742 
Q 2381 3103 1925 3103 
Q 1469 3103 1208 2742 
Q 947 2381 947 1747 
z
" transform="scale(0.015625)"/>
       <path id="DejaVuSans-72" d="M 2631 2963 
Q 2534 3019 2420 3045 
Q 2306 3072 2169 3072 
Q 1681 3072 1420 2755 
Q 1159 2438 1159 1844 
L 1159 0 
L 581 0 
L 581 3500 
L 1159 3500 
L 1159 2956 
Q 1341 3275 1631 3429 
Q 1922 3584 2338 3584 
Q 2397 3584 2469 3576 
Q 2541 3569 2628 3553 
L 2631 2963 
z
" transform="scale(0.015625)"/>
       <path id="DejaVuSans-73" d="M 2834 3397 
L 2834 2853 
Q 2591 2978 2328 3040 
Q 2066 3103 1784 3103 
Q 1356 3103 1142 2972 
Q 928 2841 928 2578 
Q 928 2378 1081 2264 
Q 1234 2150 1697 2047 
L 1894 2003 
Q 2506 1872 2764 1633 
Q 3022 1394 3022 966 
Q 3022 478 2636 193 
Q 2250 -91 1575 -91 
Q 1294 -91 989 -36 
Q 684 19 347 128 
L 347 722 
Q 666 556 975 473 
Q 1284 391 1588 391 
Q 1994 391 2212 530 
Q 2431 669 2431 922 
Q 2431 1156 2273 1281 
Q 2116 1406 1581 1522 
L 1381 1569 
Q 847 1681 609 1914 
Q 372 2147 372 2553 
Q 372 3047 722 3315 
Q 1072 3584 1716 3584 
Q 2034 3584 2315 3537 
Q 2597 3491 2834 3397 
z
" transform="scale(0.015625)"/>
       <path id="DejaVuSans-29" d="M 513 4856 
L 1013 4856 
Q 1481 4119 1714 3412 
Q 1947 2706 1947 2009 
Q 1947 1309 1714 600 
Q 1481 -109 1013 -844 
L 513 -844 
Q 928 -128 1133 580 
Q 1338 1288 1338 2009 
Q 1338 2731 1133 3434 
Q 928 4138 513 4856 
z
" transform="scale(0.015625)"/>
      </defs>
      <use xlink:href="#DejaVuSans-41"/>
      <use xlink:href="#DejaVuSans-6e" transform="translate(68.408203 0)"/>
      <use xlink:href="#DejaVuSans-67" transform="translate(131.787109 0)"/>
      <use xlink:href="#DejaVuSans-6c" transform="translate(195.263672 0)"/>
      <use xlink:href="#DejaVuSans-65" transform="translate(223.046875 0)"/>
      <use xlink:href="#DejaVuSans-20" transform="translate(284.570312 0)"/>
      <use xlink:href="#DejaVuSans-28" transform="translate(316.357422 0)"/>
      <use xlink:href="#DejaVuSans-64" transform="translate(355.371094 0)"/>
      <use xlink:href="#DejaVuSans-65" transform="translate(418.847656 0)"/>
      <use xlink:href="#DejaVuSans-67" transform="translate(480.371094 0)"/>
      <use xlink:href="#DejaVuSans-72" transform="translate(543.847656 0)"/>
      <use xlink:href="#DejaVuSans-65" transform="translate(582.710938 0)"/>
      <use xlink:href="#DejaVuSans-65" transform="translate(644.234375 0)"/>
      <use xlink:href="#DejaVuSans-73" transform="translate(705.757812 0)"/>
      <use xlink:href="#DejaVuSans-29" transform="translate(757.857422 0)"/>
     </g>
    </g>
   </g>
   <g id="matplotlib.axis_2">
    <g id="ytick_1">
     <g id="line2d_13">
      <path d="M 68.976 314.145111 
L 496.6272 314.145111 
" clip-path="url(#p1383873efa)" style="fill: none; stroke: #b0b0b0; stroke-width: 0.8; stroke-linecap: square"/>
     </g>
     <g id="line2d_14">
      <defs>
       <path id="m562828ee36" d="M 0 0 
L -3.5 0 
" style="stroke: #000000; stroke-width: 0.8"/>
      </defs>
      <g>
       <use xlink:href="#m562828ee36" x="68.976" y="314.145111" style="stroke: #000000; stroke-width: 0.8"/>
      </g>
     </g>
     <g id="text_8">
      <!-- −0.02 -->
      <g transform="translate(31.330687 317.94433) scale(0.1 -0.1)">
       <defs>
        <path id="DejaVuSans-2212" d="M 678 2272 
L 4684 2272 
L 4684 1741 
L 678 1741 
L 678 2272 
z
" transform="scale(0.015625)"/>
        <path id="DejaVuSans-2e" d="M 684 794 
L 1344 794 
L 1344 0 
L 684 0 
L 684 794 
z
" transform="scale(0.015625)"/>
       </defs>
       <use xlink:href="#DejaVuSans-2212"/>
       <use xlink:href="#DejaVuSans-30" transform="translate(83.789062 0)"/>
       <use xlink:href="#DejaVuSans-2e" transform="translate(147.412109 0)"/>
       <use xlink:href="#DejaVuSans-30" transform="translate(179.199219 0)"/>
       <use xlink:href="#DejaVuSans-32" transform="translate(242.822266 0)"/>
      </g>
     </g>
    </g>
    <g id="ytick_2">
     <g id="line2d_15">
      <path d="M 68.976 248.602692 
L 496.6272 248.602692 
" clip-path="url(#p1383873efa)" style="fill: none; stroke: #b0b0b0; stroke-width: 0.8; stroke-linecap: square"/>
     </g>
     <g id="line2d_16">
      <g>
       <use xlink:href="#m562828ee36" x="68.976" y="248.602692" style="stroke: #000000; stroke-width: 0.8"/>
      </g>
     </g>
     <g id="text_9">
      <!-- −0.01 -->
      <g transform="translate(31.330687 252.401911) scale(0.1 -0.1)">
       <use xlink:href="#DejaVuSans-2212"/>
       <use xlink:href="#DejaVuSans-30" transform="translate(83.789062 0)"/>
       <use xlink:href="#DejaVuSans-2e" transform="translate(147.412109 0)"/>
       <use xlink:href="#DejaVuSans-30" transform="translate(179.199219 0)"/>
       <use xlink:href="#DejaVuSans-31" transform="translate(242.822266 0)"/>
      </g>
     </g>
    </g>
    <g id="ytick_3">
     <g id="line2d_17">
      <path d="M 68.976 183.060274 
L 496.6272 183.060274 
" clip-path="url(#p1383873efa)" style="fill: none; stroke: #b0b0b0; stroke-width: 0.8; stroke-linecap: square"/>
     </g>
     <g id="line2d_18">
      <g>
       <use xlink:href="#m562828ee36" x="68.976" y="183.060274" style="stroke: #000000; stroke-width: 0.8"/>
      </g>
     </g>
     <g id="text_10">
      <!-- 0.00 -->
      <g transform="translate(39.710375 186.859493) scale(0.1 -0.1)">
       <use xlink:href="#DejaVuSans-30"/>
       <use xlink:href="#DejaVuSans-2e" transform="translate(63.623047 0)"/>
       <use xlink:href="#DejaVuSans-30" transform="translate(95.410156 0)"/>
       <use xlink:href="#DejaVuSans-30" transform="translate(159.033203 0)"/>
      </g>
     </g>
    </g>
    <g id="ytick_4">
     <g id="line2d_19">
      <path d="M 68.976 117.517855 
L 496.6272 117.517855 
" clip-path="url(#p1383873efa)" style="fill: none; stroke: #b0b0b0; stroke-width: 0.8; stroke-linecap: square"/>
     </g>
     <g id="line2d_20">
      <g>
       <use xlink:href="#m562828ee36" x="68.976" y="117.517855" style="stroke: #000000; stroke-width: 0.8"/>
      </g>
     </g>
     <g id="text_11">
      <!-- 0.01 -->
      <g transform="translate(39.710375 121.317074) scale(0.1 -0.1)">
       <use xlink:href="#DejaVuSans-30"/>
       <use xlink:href="#DejaVuSans-2e" transform="translate(63.623047 0)"/>
       <use xlink:href="#DejaVuSans-30" transform="translate(95.410156 0)"/>
       <use xlink:href="#DejaVuSans-31" transform="translate(159.033203 0)"/>
      </g>
     </g>
    </g>
    <g id="ytick_5">
     <g id="line2d_21">
      <path d="M 68.976 51.975437 
L 496.6272 51.975437 
" clip-path="url(#p1383873efa)" style="fill: none; stroke: #b0b0b0; stroke-width: 0.8; stroke-linecap: square"/>
     </g>
     <g id="line2d_22">
      <g>
       <use xlink:href="#m562828ee36" x="68.976" y="51.975437" style="stroke: #000000; stroke-width: 0.8"/>
      </g>
     </g>
     <g id="text_12">
      <!-- 0.02 -->
      <g transform="translate(39.710375 55.774655) scale(0.1 -0.1)">
       <use xlink:href="#DejaVuSans-30"/>
       <use xlink:href="#DejaVuSans-2e" transform="translate(63.623047 0)"/>
       <use xlink:href="#DejaVuSans-30" transform="translate(95.410156 0)"/>
       <use xlink:href="#DejaVuSans-32" transform="translate(159.033203 0)"/>
      </g>
     </g>
    </g>
    <g id="text_13">
     <!-- GZ -->
     <g transform="translate(25.251 207.133779) rotate(-90) scale(0.1 -0.1)">
      <defs>
       <path id="DejaVuSans-47" d="M 3809 666 
L 3809 1919 
L 2778 1919 
L 2778 2438 
L 4434 2438 
L 4434 434 
Q 4069 175 3628 42 
Q 3188 -91 2688 -91 
Q 1594 -91 976 548 
Q 359 1188 359 2328 
Q 359 3472 976 4111 
Q 1594 4750 2688 4750 
Q 3144 4750 3555 4637 
Q 3966 4525 4313 4306 
L 4313 3634 
Q 3963 3931 3569 4081 
Q 3175 4231 2741 4231 
Q 1884 4231 1454 3753 
Q 1025 3275 1025 2328 
Q 1025 1384 1454 906 
Q 1884 428 2741 428 
Q 3075 428 3337 486 
Q 3600 544 3809 666 
z
" transform="scale(0.015625)"/>
       <path id="DejaVuSans-5a" d="M 359 4666 
L 4025 4666 
L 4025 4184 
L 1075 531 
L 4097 531 
L 4097 0 
L 288 0 
L 288 481 
L 3238 4134 
L 359 4134 
L 359 4666 
z
" transform="scale(0.015625)"/>
      </defs>
      <use xlink:href="#DejaVuSans-47"/>
      <use xlink:href="#DejaVuSans-5a" transform="translate(77.490234 0)"/>
     </g>
    </g>
   </g>
   <g id="line2d_23">
    <path d="M 88.414691 170.782402 
L 95.419625 173.323939 
L 103.202884 175.901189 
L 112.153633 178.624088 
L 124.606848 182.156531 
L 145.621649 188.098678 
L 154.572398 190.872788 
L 162.355657 193.512422 
L 169.360591 196.124517 
L 175.587199 198.674192 
L 181.424643 201.290647 
L 187.262088 204.155017 
L 192.71037 207.077697 
L 198.158652 210.265719 
L 203.21777 213.485149 
L 208.276889 216.974811 
L 212.946845 220.453769 
L 217.616801 224.197271 
L 222.286756 228.222401 
L 226.956712 232.54669 
L 231.626668 237.188149 
L 236.296624 242.165302 
L 240.577417 247.038874 
L 244.858209 252.225676 
L 249.139002 257.741282 
L 253.419795 263.601738 
L 257.700588 269.823589 
L 261.981381 276.423916 
L 266.262173 283.420365 
L 270.542966 290.83118 
L 274.823759 298.675247 
L 282.217856 312.462396 
L 284.941996 316.801127 
L 287.666137 320.68078 
L 290.390278 324.122231 
L 292.725256 326.738238 
L 295.060234 329.058571 
L 297.395212 331.094458 
L 299.73019 332.856616 
L 302.065168 334.355282 
L 304.400145 335.600243 
L 306.735123 336.600863 
L 309.070101 337.366106 
L 311.405079 337.904566 
L 313.740057 338.224481 
L 316.075035 338.33376 
L 318.410013 338.239997 
L 320.744991 337.950494 
L 323.469132 337.374698 
L 326.193272 336.552727 
L 328.917413 335.494827 
L 331.641554 334.210817 
L 334.754858 332.478579 
L 337.868162 330.476778 
L 340.981466 328.218288 
L 344.483933 325.38599 
L 347.986399 322.261182 
L 351.878029 318.465566 
L 355.769659 314.349555 
L 360.050452 309.475724 
L 364.331245 304.263764 
L 369.0012 298.220757 
L 374.060319 291.287258 
L 379.508601 283.410935 
L 385.346046 274.548653 
L 391.572653 264.668563 
L 398.188424 253.75225 
L 405.582521 241.122328 
L 414.144106 226.046595 
L 424.651507 207.07179 
L 442.942167 173.478508 
L 457.73036 146.519039 
L 467.459435 129.229868 
L 475.631857 115.150002 
L 477.188509 112.524737 
L 477.188509 112.524737 
" clip-path="url(#p1383873efa)" style="fill: none; stroke: #1f77b4; stroke-width: 1.5; stroke-linecap: square"/>
   </g>
   <g id="line2d_24">
    <path d="M 88.414691 180.558875 
L 95.419625 181.351467 
L 103.202884 181.994418 
L 112.153633 182.501623 
L 124.606848 182.960642 
L 145.621649 183.71707 
L 154.572398 184.273628 
L 162.355657 184.976695 
L 169.360591 185.837276 
L 175.587199 186.821744 
L 181.424643 187.962555 
L 186.872925 189.242239 
L 192.321207 190.752667 
L 197.380326 192.382056 
L 202.439444 194.249307 
L 207.1094 196.200777 
L 211.779356 198.386983 
L 216.449312 200.823854 
L 221.119267 203.527709 
L 225.40006 206.255064 
L 229.680853 209.234037 
L 233.961646 212.478186 
L 238.242439 216.001429 
L 242.523231 219.81807 
L 246.804024 223.942819 
L 251.084817 228.390822 
L 255.36561 233.177685 
L 259.646403 238.319506 
L 263.927195 243.832903 
L 268.207988 249.735049 
L 272.488781 256.043702 
L 276.769574 262.777246 
L 281.050367 269.954725 
L 290.001115 285.267092 
L 292.725256 289.161245 
L 295.449397 292.644952 
L 298.173538 295.736379 
L 300.897679 298.452732 
L 303.232657 300.494894 
L 305.567634 302.283276 
L 307.902612 303.827244 
L 310.23759 305.135767 
L 312.572568 306.217444 
L 314.907546 307.080523 
L 317.242524 307.732922 
L 319.577502 308.182247 
L 321.91248 308.435813 
L 324.63662 308.493595 
L 327.360761 308.30522 
L 330.084902 307.88096 
L 332.809043 307.230664 
L 335.533184 306.363783 
L 338.646488 305.119484 
L 341.759792 303.617138 
L 344.873095 301.869185 
L 348.375562 299.623988 
L 351.878029 297.099276 
L 355.380496 294.310596 
L 359.272126 290.920561 
L 363.163756 287.242565 
L 367.444548 282.886488 
L 372.114504 277.790813 
L 376.78446 272.36533 
L 381.843579 266.148314 
L 387.29186 259.096746 
L 393.129305 251.177079 
L 399.745076 241.80563 
L 407.139172 230.914082 
L 415.311595 218.469 
L 425.429833 202.640465 
L 443.720493 173.512362 
L 457.341197 152.020089 
L 466.681109 137.687929 
L 474.464368 126.142981 
L 477.188509 122.208845 
L 477.188509 122.208845 
" clip-path="url(#p1383873efa)" style="fill: none; stroke: #ff7f0e; stroke-width: 1.5; stroke-linecap: square"/>
   </g>
   <g id="line2d_25">
    <path d="M 88.414691 189.149153 
L 95.419625 188.404471 
L 103.202884 187.347587 
L 112.542796 185.841284 
L 125.774337 183.450088 
L 145.621649 179.867805 
L 154.961561 178.420708 
L 162.74482 177.433396 
L 169.749754 176.767291 
L 175.976362 176.389145 
L 181.813806 176.246717 
L 187.262088 176.32281 
L 192.71037 176.623151 
L 197.769489 177.122373 
L 202.828607 177.852512 
L 207.498563 178.747597 
L 212.168519 179.870386 
L 216.838475 181.236253 
L 221.119267 182.715274 
L 225.40006 184.424197 
L 229.680853 186.375747 
L 233.961646 188.58297 
L 238.242439 191.059257 
L 242.134068 193.555481 
L 246.025698 196.296052 
L 249.917328 199.291864 
L 253.808958 202.55411 
L 257.700588 206.094299 
L 261.592218 209.924269 
L 265.483847 214.056211 
L 269.375477 218.502684 
L 273.267107 223.276641 
L 277.158737 228.391446 
L 281.050367 233.8609 
L 284.941996 239.699264 
L 288.833626 245.921285 
L 295.83856 257.315021 
L 298.562701 261.129073 
L 301.286842 264.563461 
L 304.010982 267.634722 
L 306.735123 270.358556 
L 309.459264 272.74988 
L 312.183405 274.822883 
L 314.907546 276.591079 
L 317.631687 278.067347 
L 320.355828 279.263978 
L 323.079969 280.192711 
L 325.804109 280.864768 
L 328.52825 281.290892 
L 331.252391 281.481373 
L 333.976532 281.44608 
L 336.700673 281.194483 
L 339.424814 280.735685 
L 342.538118 279.968839 
L 345.651421 278.955329 
L 348.764725 277.707179 
L 351.878029 276.235934 
L 355.380496 274.327913 
L 358.882963 272.166734 
L 362.774593 269.486187 
L 366.666222 266.530184 
L 370.947015 262.982296 
L 375.227808 259.146686 
L 379.897764 254.660582 
L 384.956883 249.476754 
L 390.405164 243.55555 
L 396.242609 236.867017 
L 402.469217 229.393091 
L 409.47415 220.634837 
L 417.646573 210.048113 
L 427.76481 196.560783 
L 461.62199 151.109353 
L 469.794412 140.694834 
L 476.799346 132.129375 
L 477.188509 131.664996 
L 477.188509 131.664996 
" clip-path="url(#p1383873efa)" style="fill: none; stroke: #2ca02c; stroke-width: 1.5; stroke-linecap: square"/>
   </g>
   <g id="line2d_26">
    <path d="M 88.414691 196.707958 
L 95.808788 194.487534 
L 103.98121 191.791204 
L 113.710285 188.338811 
L 128.498478 182.822782 
L 146.010812 176.342248 
L 155.739887 172.986813 
L 163.912309 170.407166 
L 170.917243 168.423585 
L 177.533014 166.783746 
L 183.370458 165.555073 
L 189.207903 164.557811 
L 194.656185 163.85892 
L 199.715304 163.429889 
L 204.774422 163.230898 
L 209.444378 163.267117 
L 214.114334 163.529479 
L 218.395127 163.981423 
L 222.675919 164.647778 
L 226.956712 165.540626 
L 231.237505 166.672345 
L 235.129135 167.919141 
L 239.020765 169.383615 
L 242.912394 171.075789 
L 246.804024 173.00594 
L 250.695654 175.184616 
L 254.587284 177.622655 
L 258.478914 180.331198 
L 262.370543 183.321706 
L 266.262173 186.605979 
L 270.153803 190.196176 
L 274.045433 194.104833 
L 277.937063 198.344886 
L 281.828693 202.929691 
L 285.720322 207.87305 
L 289.611952 213.189234 
L 293.503582 218.893012 
L 297.395212 224.999673 
L 300.897679 230.510524 
L 303.621819 234.380057 
L 306.34596 237.893768 
L 309.070101 241.066986 
L 311.794242 243.914292 
L 314.518383 246.449565 
L 317.242524 248.686032 
L 319.966665 250.63631 
L 322.690806 252.312447 
L 325.414946 253.72596 
L 328.139087 254.887867 
L 330.863228 255.80872 
L 333.587369 256.498638 
L 336.31151 256.967327 
L 339.035651 257.224112 
L 341.759792 257.27796 
L 344.873095 257.10206 
L 347.986399 256.684732 
L 351.099703 256.037852 
L 354.213007 255.172825 
L 357.715474 253.952559 
L 361.217941 252.485083 
L 364.720408 250.78481 
L 368.612037 248.63942 
L 372.503667 246.241997 
L 376.78446 243.334679 
L 381.065253 240.166123 
L 385.735209 236.436964 
L 390.794327 232.106565 
L 396.242609 227.142175 
L 402.080054 221.52108 
L 408.695824 214.831048 
L 416.089921 207.030924 
L 425.04067 197.257023 
L 439.050537 181.581663 
L 454.617056 164.254376 
L 463.567805 154.635093 
L 470.961901 147.01867 
L 477.188509 140.908567 
L 477.188509 140.908567 
" clip-path="url(#p1383873efa)" style="fill: none; stroke: #d62728; stroke-width: 1.5; stroke-linecap: square"/>
   </g>
   <g id="line2d_27">
    <path d="M 88.414691 203.364224 
L 95.808788 199.8856 
L 104.370373 195.606991 
L 114.877774 190.091932 
L 132.779271 180.388325 
L 147.567464 172.479818 
L 157.296539 167.524221 
L 165.468961 163.606227 
L 172.863058 160.311475 
L 179.478829 157.606331 
L 185.705436 155.302998 
L 191.542881 153.38491 
L 196.991163 151.828407 
L 202.050281 150.60413 
L 207.1094 149.61053 
L 211.779356 148.913464 
L 216.449312 148.442394 
L 220.730105 148.22161 
L 225.010897 148.214571 
L 229.29169 148.433099 
L 233.572483 148.889308 
L 237.464113 149.520747 
L 241.355743 150.368459 
L 245.247372 151.442259 
L 249.139002 152.752218 
L 253.030632 154.308675 
L 256.922262 156.122254 
L 260.813892 158.203881 
L 264.705521 160.564797 
L 268.207988 162.937976 
L 271.710455 165.555438 
L 275.212922 168.426112 
L 278.715389 171.559182 
L 282.217856 174.964103 
L 285.720322 178.650611 
L 289.611952 183.089203 
L 293.503582 187.902044 
L 297.395212 193.103853 
L 301.286842 198.709878 
L 310.23759 211.946568 
L 313.350894 215.833544 
L 316.075035 218.902376 
L 318.799176 221.674856 
L 321.523317 224.163505 
L 324.247457 226.380282 
L 326.971598 228.336627 
L 329.695739 230.043487 
L 332.41988 231.511353 
L 335.144021 232.750285 
L 337.868162 233.769942 
L 340.592303 234.579605 
L 343.705607 235.259235 
L 346.81891 235.689032 
L 349.932214 235.881267 
L 353.045518 235.847717 
L 356.158822 235.599704 
L 359.272126 235.148126 
L 362.774593 234.409835 
L 366.277059 233.441581 
L 369.779526 232.257215 
L 373.671156 230.704009 
L 377.562786 228.918112 
L 381.843579 226.705142 
L 386.513534 224.018942 
L 391.18349 221.075365 
L 396.242609 217.626543 
L 401.690891 213.646195 
L 407.917498 208.808038 
L 414.922432 203.063767 
L 423.094855 196.0591 
L 434.380581 186.063091 
L 454.227893 168.450678 
L 462.400316 161.510631 
L 469.405249 155.843848 
L 475.631857 151.092206 
L 477.188509 149.953282 
L 477.188509 149.953282 
" clip-path="url(#p1383873efa)" style="fill: none; stroke: #9467bd; stroke-width: 1.5; stroke-linecap: square"/>
   </g>
   <g id="line2d_28">
    <path d="M 88.414691 209.226256 
L 96.197951 204.391724 
L 105.148699 198.56885 
L 116.434426 190.9469 
L 154.961561 164.6758 
L 163.912309 158.981977 
L 171.695569 154.292448 
L 178.700503 150.327762 
L 185.316273 146.844179 
L 191.153718 144.009497 
L 196.991163 141.424733 
L 202.439444 139.260047 
L 207.498563 137.48299 
L 212.557682 135.947976 
L 217.227638 134.761126 
L 221.897593 133.809768 
L 226.178386 133.157004 
L 230.459179 132.725869 
L 234.739972 132.528154 
L 238.631602 132.561142 
L 242.523231 132.806357 
L 246.414861 133.273354 
L 250.306491 133.971938 
L 254.198121 134.912178 
L 258.089751 136.104418 
L 261.592218 137.40168 
L 265.094684 138.919645 
L 268.597151 140.666495 
L 272.099618 142.650636 
L 275.602085 144.880712 
L 279.104552 147.36561 
L 282.607019 150.114481 
L 286.109485 153.136746 
L 289.611952 156.442113 
L 293.114419 160.04059 
L 296.616886 163.942501 
L 300.119353 168.158505 
L 303.621819 172.699604 
L 307.124286 177.577172 
L 311.015916 183.403806 
L 314.12922 187.982364 
L 317.242524 192.155275 
L 320.355828 195.942148 
L 323.469132 199.361584 
L 326.582435 202.431242 
L 329.695739 205.167916 
L 332.809043 207.587591 
L 335.922347 209.705508 
L 339.035651 211.536209 
L 342.148955 213.093594 
L 345.262258 214.390962 
L 348.375562 215.441055 
L 351.488866 216.256093 
L 354.60217 216.847815 
L 357.715474 217.22751 
L 361.217941 217.414746 
L 364.720408 217.362271 
L 368.222874 217.084395 
L 371.725341 216.594901 
L 375.616971 215.818975 
L 379.508601 214.815773 
L 383.789394 213.469967 
L 388.070186 211.891437 
L 392.740142 209.928675 
L 397.799261 207.548624 
L 403.247543 204.726644 
L 409.084987 201.448725 
L 415.700758 197.473466 
L 423.484018 192.529104 
L 434.380581 185.312475 
L 453.83873 172.393453 
L 461.62199 167.509571 
L 468.237761 163.605735 
L 474.075205 160.406528 
L 477.188509 158.811448 
L 477.188509 158.811448 
" clip-path="url(#p1383873efa)" style="fill: none; stroke: #8c564b; stroke-width: 1.5; stroke-linecap: square"/>
   </g>
   <g id="line2d_29">
    <path d="M 88.414691 214.385696 
L 96.587114 208.224641 
L 106.316188 200.598087 
L 118.769403 190.526907 
L 152.626583 162.979569 
L 162.355657 155.448112 
L 170.52808 149.393074 
L 177.922177 144.182948 
L 184.537947 139.776692 
L 190.764555 135.881696 
L 196.602 132.478466 
L 202.050281 129.540984 
L 207.498563 126.85495 
L 212.557682 124.604127 
L 217.616801 122.605171 
L 222.286756 120.998684 
L 226.956712 119.635881 
L 231.237505 118.613101 
L 235.518298 117.818741 
L 239.799091 117.264563 
L 243.69072 116.979348 
L 247.58235 116.911926 
L 251.47398 117.071857 
L 255.36561 117.468956 
L 258.868077 118.037455 
L 262.370543 118.813777 
L 265.87301 119.80567 
L 269.375477 121.021091 
L 272.877944 122.468212 
L 276.380411 124.155436 
L 279.882878 126.091404 
L 283.385344 128.28501 
L 286.887811 130.745415 
L 290.390278 133.482055 
L 293.892745 136.504661 
L 297.395212 139.823267 
L 300.897679 143.448235 
L 304.400145 147.39026 
L 307.902612 151.660399 
L 311.405079 156.270078 
L 314.907546 161.23112 
L 322.301643 171.947253 
L 325.414946 175.903711 
L 328.52825 179.515874 
L 331.641554 182.800301 
L 334.754858 185.772769 
L 337.868162 188.448327 
L 340.981466 190.841346 
L 344.09477 192.965569 
L 347.208073 194.834154 
L 350.321377 196.459716 
L 353.434681 197.854362 
L 356.547985 199.029729 
L 360.050452 200.103834 
L 363.552919 200.929901 
L 367.055385 201.522654 
L 370.557852 201.896259 
L 374.449482 202.070942 
L 378.341112 202.009963 
L 382.232742 201.730715 
L 386.513534 201.191465 
L 390.794327 200.430011 
L 395.464283 199.370434 
L 400.523402 197.982608 
L 405.971684 196.245072 
L 411.809128 194.147282 
L 418.424899 191.53233 
L 426.597322 188.049083 
L 439.4397 182.289119 
L 452.671241 176.424576 
L 460.454501 173.212955 
L 467.070272 170.720975 
L 472.907716 168.760704 
L 477.188509 167.494153 
L 477.188509 167.494153 
" clip-path="url(#p1383873efa)" style="fill: none; stroke: #e377c2; stroke-width: 1.5; stroke-linecap: square"/>
   </g>
   <g id="line2d_30">
    <path d="M 88.414691 218.920611 
L 96.976276 211.466303 
L 107.094514 202.352817 
L 120.326055 190.114096 
L 151.459094 161.202992 
L 161.577331 152.171546 
L 170.138917 144.811013 
L 177.922177 138.404888 
L 184.92711 132.916686 
L 191.542881 128.011309 
L 197.769489 123.672016 
L 203.606933 119.874583 
L 209.055215 116.588637 
L 214.114334 113.778941 
L 219.173453 111.218966 
L 223.843408 109.092367 
L 228.513364 107.20697 
L 232.794157 105.702689 
L 237.07495 104.424218 
L 241.355743 103.383064 
L 245.247372 102.652434 
L 249.139002 102.136812 
L 253.030632 101.845552 
L 256.922262 101.78826 
L 260.424729 101.944895 
L 263.927195 102.30643 
L 267.429662 102.880453 
L 270.932129 103.674752 
L 274.434596 104.697334 
L 277.937063 105.956426 
L 281.43953 107.460496 
L 284.941996 109.218256 
L 288.444463 111.23868 
L 291.94693 113.531017 
L 295.449397 116.104803 
L 298.951864 118.969873 
L 302.454331 122.136384 
L 305.956797 125.614823 
L 309.459264 129.416029 
L 312.961731 133.551209 
L 316.464198 138.031958 
L 319.966665 142.870277 
L 323.858295 148.666565 
L 327.360761 153.730473 
L 330.863228 158.365702 
L 334.365695 162.595431 
L 337.868162 166.44163 
L 341.370629 169.925153 
L 344.873095 173.065829 
L 348.375562 175.882538 
L 351.878029 178.39329 
L 355.380496 180.615288 
L 358.882963 182.564993 
L 362.38543 184.258181 
L 365.887896 185.709994 
L 369.390363 186.934993 
L 373.281993 188.047125 
L 377.173623 188.915061 
L 381.065253 189.556631 
L 385.346046 190.021425 
L 389.626838 190.255232 
L 394.296794 190.271934 
L 398.96675 190.065977 
L 404.025869 189.621726 
L 409.47415 188.921967 
L 415.700758 187.890005 
L 422.705692 186.500662 
L 432.045603 184.403718 
L 454.617056 179.233091 
L 461.62199 177.900742 
L 467.848598 176.937209 
L 473.296879 176.311396 
L 477.188509 176.011428 
L 477.188509 176.011428 
" clip-path="url(#p1383873efa)" style="fill: none; stroke: #7f7f7f; stroke-width: 1.5; stroke-linecap: square"/>
   </g>
   <g id="line2d_31">
    <path d="M 88.414691 222.897912 
L 97.365439 214.186959 
L 107.87284 203.645609 
L 122.27187 188.856786 
L 150.291605 160.014526 
L 161.188168 149.161103 
L 170.138917 140.544957 
L 178.31134 132.983156 
L 185.705436 126.443564 
L 192.321207 120.873642 
L 198.547815 115.904733 
L 204.385259 111.512696 
L 210.222704 107.402694 
L 215.670986 103.842681 
L 220.730105 100.793797 
L 225.789223 98.00943 
L 230.459179 95.688909 
L 235.129135 93.622364 
L 239.409928 91.963354 
L 243.69072 90.541091 
L 247.971513 89.367208 
L 251.863143 88.525637 
L 255.754773 87.908457 
L 259.646403 87.525158 
L 263.538032 87.385498 
L 267.040499 87.476406 
L 270.542966 87.780313 
L 274.045433 88.30495 
L 277.5479 89.058261 
L 281.050367 90.048418 
L 284.552833 91.283831 
L 288.0553 92.773158 
L 291.557767 94.525323 
L 295.060234 96.549521 
L 298.562701 98.855239 
L 302.065168 101.452268 
L 305.567634 104.350719 
L 309.070101 107.561038 
L 312.572568 111.094025 
L 316.075035 114.96085 
L 319.577502 119.173074 
L 323.079969 123.742672 
L 326.582435 128.682046 
L 336.31151 142.820184 
L 339.813977 147.260238 
L 343.316444 151.343949 
L 346.81891 155.090907 
L 350.321377 158.519777 
L 353.823844 161.648379 
L 357.326311 164.493745 
L 360.828778 167.072185 
L 364.331245 169.399343 
L 368.222874 171.708617 
L 372.114504 173.745997 
L 376.006134 175.530488 
L 379.897764 177.080371 
L 384.178557 178.53529 
L 388.459349 179.750277 
L 393.129305 180.827724 
L 397.799261 181.673024 
L 402.85838 182.357552 
L 408.306661 182.862375 
L 414.144106 183.179894 
L 420.759877 183.319165 
L 428.932299 183.264602 
L 458.119523 182.847766 
L 464.735294 183.100656 
L 470.572738 183.547899 
L 475.631857 184.144474 
L 477.188509 184.372382 
L 477.188509 184.372382 
" clip-path="url(#p1383873efa)" style="fill: none; stroke: #bcbd22; stroke-width: 1.5; stroke-linecap: square"/>
   </g>
   <g id="line2d_32">
    <path d="M 88.414691 226.375285 
L 97.754602 216.447168 
L 109.040329 204.107309 
L 124.996011 186.287427 
L 149.513279 158.904811 
L 160.799005 146.647165 
L 170.138917 136.814795 
L 178.31134 128.51417 
L 186.094599 120.926783 
L 193.099533 114.406245 
L 199.715304 108.551621 
L 205.941911 103.340955 
L 211.779356 98.745398 
L 217.227638 94.730474 
L 222.675919 91.000785 
L 227.735038 87.810841 
L 232.404994 85.114889 
L 237.07495 82.671647 
L 241.355743 80.666002 
L 245.636535 78.89563 
L 249.917328 77.371965 
L 253.808958 76.210787 
L 257.700588 75.272296 
L 261.592218 74.565827 
L 265.483847 74.100979 
L 268.986314 73.897359 
L 272.488781 73.904856 
L 275.991248 74.131079 
L 279.493715 74.583851 
L 282.996181 75.27122 
L 286.498648 76.201469 
L 290.001115 77.383129 
L 293.503582 78.824991 
L 297.006049 80.536121 
L 300.508516 82.52587 
L 304.010982 84.803892 
L 307.513449 87.380157 
L 311.015916 90.26497 
L 314.518383 93.468985 
L 318.02085 97.003226 
L 321.523317 100.879103 
L 325.025783 105.108435 
L 328.52825 109.70347 
L 332.030717 114.67691 
L 335.533184 120.038946 
L 339.035651 125.34576 
L 342.538118 130.28696 
L 346.040584 134.882644 
L 349.932214 139.606977 
L 353.823844 143.953352 
L 357.715474 147.94553 
L 361.607104 151.606154 
L 365.498733 154.956836 
L 369.390363 158.018254 
L 373.281993 160.810224 
L 377.562786 163.592877 
L 381.843579 166.096858 
L 386.124371 168.345568 
L 390.794327 170.534048 
L 395.464283 172.473807 
L 400.523402 174.326181 
L 405.971684 176.068946 
L 411.809128 177.691205 
L 418.424899 179.283458 
L 426.208159 180.911662 
L 437.493885 183.016546 
L 451.892915 185.735876 
L 459.676175 187.44309 
L 465.902783 189.025387 
L 471.740227 190.739571 
L 476.799346 192.444705 
L 477.188509 192.58532 
L 477.188509 192.58532 
" clip-path="url(#p1383873efa)" style="fill: none; stroke: #17becf; stroke-width: 1.5; stroke-linecap: square"/>
   </g>
   <g id="line2d_33">
    <path d="M 88.414691 229.402723 
L 98.143765 218.299416 
L 109.818655 204.621229 
L 126.941826 184.171681 
L 149.902442 156.796161 
L 161.577331 143.23514 
L 171.306406 132.270742 
L 179.867991 122.953953 
L 187.651251 114.810812 
L 194.656185 107.790625 
L 201.271955 101.463809 
L 207.498563 95.807826 
L 213.336008 90.793465 
L 218.78429 86.386066 
L 224.232571 82.261958 
L 229.29169 78.703671 
L 234.350809 75.423574 
L 239.020765 72.657456 
L 243.69072 70.156727 
L 247.971513 68.109669 
L 252.252306 66.308834 
L 256.533099 64.765824 
L 260.424729 63.59687 
L 264.316358 62.660107 
L 268.207988 61.965043 
L 271.710455 61.554223 
L 275.212922 61.354443 
L 278.715389 61.37325 
L 282.217856 61.618403 
L 285.720322 62.097886 
L 289.222789 62.81992 
L 292.725256 63.792977 
L 295.83856 64.875703 
L 298.951864 66.169976 
L 302.065168 67.682289 
L 305.178471 69.419323 
L 308.291775 71.387952 
L 311.405079 73.595257 
L 314.518383 76.048532 
L 318.02085 79.111846 
L 321.523317 82.507044 
L 325.025783 86.24558 
L 328.52825 90.33932 
L 332.030717 94.800569 
L 335.533184 99.642092 
L 339.035651 104.877136 
L 347.986399 118.643291 
L 351.878029 124.015306 
L 355.769659 129.016798 
L 359.661289 133.67128 
L 363.552919 138.001171 
L 367.833711 142.414687 
L 372.114504 146.488589 
L 376.395297 150.248909 
L 380.67609 153.720586 
L 385.346046 157.206793 
L 390.016001 160.407871 
L 394.685957 163.352598 
L 399.745076 166.285641 
L 405.193358 169.18349 
L 411.030802 172.034048 
L 417.646573 175.007687 
L 425.429833 178.247823 
L 436.326396 182.517495 
L 452.282078 188.783354 
L 460.065338 192.094 
L 466.681109 195.153177 
L 472.518553 198.099266 
L 477.188509 200.657834 
L 477.188509 200.657834 
" clip-path="url(#p1383873efa)" style="fill: none; stroke: #1f77b4; stroke-width: 1.5; stroke-linecap: square"/>
   </g>
   <g id="patch_3">
    <path d="M 68.976 352.18368 
L 68.976 47.48544 
" style="fill: none; stroke: #000000; stroke-width: 0.8; stroke-linejoin: miter; stroke-linecap: square"/>
   </g>
   <g id="patch_4">
    <path d="M 496.6272 352.18368 
L 496.6272 47.48544 
" style="fill: none; stroke: #000000; stroke-width: 0.8; stroke-linejoin: miter; stroke-linecap: square"/>
   </g>
   <g id="patch_5">
    <path d="M 68.976 352.18368 
L 496.6272 352.18368 
" style="fill: none; stroke: #000000; stroke-width: 0.8; stroke-linejoin: miter; stroke-linecap: square"/>
   </g>
   <g id="patch_6">
    <path d="M 68.976 47.48544 
L 496.6272 47.48544 
" style="fill: none; stroke: #000000; stroke-width: 0.8; stroke-linejoin: miter; stroke-linecap: square"/>
   </g>
   <g id="text_14">
    <!-- GZ vs Angle -->
    <g transform="translate(246.477225 41.48544) scale(0.12 -0.12)">
     <defs>
      <path id="DejaVuSans-76" d="M 191 3500 
L 800 3500 
L 1894 563 
L 2988 3500 
L 3597 3500 
L 2284 0 
L 1503 0 
L 191 3500 
z
" transform="scale(0.015625)"/>
     </defs>
     <use xlink:href="#DejaVuSans-47"/>
     <use xlink:href="#DejaVuSans-5a" transform="translate(77.490234 0)"/>
     <use xlink:href="#DejaVuSans-20" transform="translate(145.996094 0)"/>
     <use xlink:href="#DejaVuSans-76" transform="translate(177.783203 0)"/>
     <use xlink:href="#DejaVuSans-73" transform="translate(236.962891 0)"/>
     <use xlink:href="#DejaVuSans-20" transform="translate(289.0625 0)"/>
     <use xlink:href="#DejaVuSans-41" transform="translate(320.849609 0)"/>
     <use xlink:href="#DejaVuSans-6e" transform="translate(389.257812 0)"/>
     <use xlink:href="#DejaVuSans-67" transform="translate(452.636719 0)"/>
     <use xlink:href="#DejaVuSans-6c" transform="translate(516.113281 0)"/>
     <use xlink:href="#DejaVuSans-65" transform="translate(543.896484 0)"/>
    </g>
   </g>
   <g id="legend_1">
    <g id="patch_7">
     <path d="M 435.361575 347.18368 
L 489.6272 347.18368 
Q 491.6272 347.18368 491.6272 345.18368 
L 491.6272 184.724305 
Q 491.6272 182.724305 489.6272 182.724305 
L 435.361575 182.724305 
Q 433.361575 182.724305 433.361575 184.724305 
L 433.361575 345.18368 
Q 433.361575 347.18368 435.361575 347.18368 
z
" style="fill: #ffffff; opacity: 0.8; stroke: #cccccc; stroke-linejoin: miter"/>
    </g>
    <g id="line2d_34">
     <path d="M 437.361575 190.822743 
L 447.361575 190.822743 
L 457.361575 190.822743 
" style="fill: none; stroke: #1f77b4; stroke-width: 1.5; stroke-linecap: square"/>
    </g>
    <g id="text_15">
     <!-- 0.2 -->
     <g transform="translate(465.361575 194.322743) scale(0.1 -0.1)">
      <use xlink:href="#DejaVuSans-30"/>
      <use xlink:href="#DejaVuSans-2e" transform="translate(63.623047 0)"/>
      <use xlink:href="#DejaVuSans-32" transform="translate(95.410156 0)"/>
     </g>
    </g>
    <g id="line2d_35">
     <path d="M 437.361575 205.500868 
L 447.361575 205.500868 
L 457.361575 205.500868 
" style="fill: none; stroke: #ff7f0e; stroke-width: 1.5; stroke-linecap: square"/>
    </g>
    <g id="text_16">
     <!-- 0.21 -->
     <g transform="translate(465.361575 209.000868) scale(0.1 -0.1)">
      <use xlink:href="#DejaVuSans-30"/>
      <use xlink:href="#DejaVuSans-2e" transform="translate(63.623047 0)"/>
      <use xlink:href="#DejaVuSans-32" transform="translate(95.410156 0)"/>
      <use xlink:href="#DejaVuSans-31" transform="translate(159.033203 0)"/>
     </g>
    </g>
    <g id="line2d_36">
     <path d="M 437.361575 220.178993 
L 447.361575 220.178993 
L 457.361575 220.178993 
" style="fill: none; stroke: #2ca02c; stroke-width: 1.5; stroke-linecap: square"/>
    </g>
    <g id="text_17">
     <!-- 0.22 -->
     <g transform="translate(465.361575 223.678993) scale(0.1 -0.1)">
      <use xlink:href="#DejaVuSans-30"/>
      <use xlink:href="#DejaVuSans-2e" transform="translate(63.623047 0)"/>
      <use xlink:href="#DejaVuSans-32" transform="translate(95.410156 0)"/>
      <use xlink:href="#DejaVuSans-32" transform="translate(159.033203 0)"/>
     </g>
    </g>
    <g id="line2d_37">
     <path d="M 437.361575 234.857118 
L 447.361575 234.857118 
L 457.361575 234.857118 
" style="fill: none; stroke: #d62728; stroke-width: 1.5; stroke-linecap: square"/>
    </g>
    <g id="text_18">
     <!-- 0.23 -->
     <g transform="translate(465.361575 238.357118) scale(0.1 -0.1)">
      <use xlink:href="#DejaVuSans-30"/>
      <use xlink:href="#DejaVuSans-2e" transform="translate(63.623047 0)"/>
      <use xlink:href="#DejaVuSans-32" transform="translate(95.410156 0)"/>
      <use xlink:href="#DejaVuSans-33" transform="translate(159.033203 0)"/>
     </g>
    </g>
    <g id="line2d_38">
     <path d="M 437.361575 249.535243 
L 447.361575 249.535243 
L 457.361575 249.535243 
" style="fill: none; stroke: #9467bd; stroke-width: 1.5; stroke-linecap: square"/>
    </g>
    <g id="text_19">
     <!-- 0.24 -->
     <g transform="translate(465.361575 253.035243) scale(0.1 -0.1)">
      <use xlink:href="#DejaVuSans-30"/>
      <use xlink:href="#DejaVuSans-2e" transform="translate(63.623047 0)"/>
      <use xlink:href="#DejaVuSans-32" transform="translate(95.410156 0)"/>
      <use xlink:href="#DejaVuSans-34" transform="translate(159.033203 0)"/>
     </g>
    </g>
    <g id="line2d_39">
     <path d="M 437.361575 264.213368 
L 447.361575 264.213368 
L 457.361575 264.213368 
" style="fill: none; stroke: #8c564b; stroke-width: 1.5; stroke-linecap: square"/>
    </g>
    <g id="text_20">
     <!-- 0.25 -->
     <g transform="translate(465.361575 267.713368) scale(0.1 -0.1)">
      <use xlink:href="#DejaVuSans-30"/>
      <use xlink:href="#DejaVuSans-2e" transform="translate(63.623047 0)"/>
      <use xlink:href="#DejaVuSans-32" transform="translate(95.410156 0)"/>
      <use xlink:href="#DejaVuSans-35" transform="translate(159.033203 0)"/>
     </g>
    </g>
    <g id="line2d_40">
     <path d="M 437.361575 278.891493 
L 447.361575 278.891493 
L 457.361575 278.891493 
" style="fill: none; stroke: #e377c2; stroke-width: 1.5; stroke-linecap: square"/>
    </g>
    <g id="text_21">
     <!-- 0.26 -->
     <g transform="translate(465.361575 282.391493) scale(0.1 -0.1)">
      <defs>
       <path id="DejaVuSans-36" d="M 2113 2584 
Q 1688 2584 1439 2293 
Q 1191 2003 1191 1497 
Q 1191 994 1439 701 
Q 1688 409 2113 409 
Q 2538 409 2786 701 
Q 3034 994 3034 1497 
Q 3034 2003 2786 2293 
Q 2538 2584 2113 2584 
z
M 3366 4563 
L 3366 3988 
Q 3128 4100 2886 4159 
Q 2644 4219 2406 4219 
Q 1781 4219 1451 3797 
Q 1122 3375 1075 2522 
Q 1259 2794 1537 2939 
Q 1816 3084 2150 3084 
Q 2853 3084 3261 2657 
Q 3669 2231 3669 1497 
Q 3669 778 3244 343 
Q 2819 -91 2113 -91 
Q 1303 -91 875 529 
Q 447 1150 447 2328 
Q 447 3434 972 4092 
Q 1497 4750 2381 4750 
Q 2619 4750 2861 4703 
Q 3103 4656 3366 4563 
z
" transform="scale(0.015625)"/>
      </defs>
      <use xlink:href="#DejaVuSans-30"/>
      <use xlink:href="#DejaVuSans-2e" transform="translate(63.623047 0)"/>
      <use xlink:href="#DejaVuSans-32" transform="translate(95.410156 0)"/>
      <use xlink:href="#DejaVuSans-36" transform="translate(159.033203 0)"/>
     </g>
    </g>
    <g id="line2d_41">
     <path d="M 437.361575 293.569618 
L 447.361575 293.569618 
L 457.361575 293.569618 
" style="fill: none; stroke: #7f7f7f; stroke-width: 1.5; stroke-linecap: square"/>
    </g>
    <g id="text_22">
     <!-- 0.27 -->
     <g transform="translate(465.361575 297.069618) scale(0.1 -0.1)">
      <defs>
       <path id="DejaVuSans-37" d="M 525 4666 
L 3525 4666 
L 3525 4397 
L 1831 0 
L 1172 0 
L 2766 4134 
L 525 4134 
L 525 4666 
z
" transform="scale(0.015625)"/>
      </defs>
      <use xlink:href="#DejaVuSans-30"/>
      <use xlink:href="#DejaVuSans-2e" transform="translate(63.623047 0)"/>
      <use xlink:href="#DejaVuSans-32" transform="translate(95.410156 0)"/>
      <use xlink:href="#DejaVuSans-37" transform="translate(159.033203 0)"/>
     </g>
    </g>
    <g id="line2d_42">
     <path d="M 437.361575 308.247743 
L 447.361575 308.247743 
L 457.361575 308.247743 
" style="fill: none; stroke: #bcbd22; stroke-width: 1.5; stroke-linecap: square"/>
    </g>
    <g id="text_23">
     <!-- 0.28 -->
     <g transform="translate(465.361575 311.747743) scale(0.1 -0.1)">
      <defs>
       <path id="DejaVuSans-38" d="M 2034 2216 
Q 1584 2216 1326 1975 
Q 1069 1734 1069 1313 
Q 1069 891 1326 650 
Q 1584 409 2034 409 
Q 2484 409 2743 651 
Q 3003 894 3003 1313 
Q 3003 1734 2745 1975 
Q 2488 2216 2034 2216 
z
M 1403 2484 
Q 997 2584 770 2862 
Q 544 3141 544 3541 
Q 544 4100 942 4425 
Q 1341 4750 2034 4750 
Q 2731 4750 3128 4425 
Q 3525 4100 3525 3541 
Q 3525 3141 3298 2862 
Q 3072 2584 2669 2484 
Q 3125 2378 3379 2068 
Q 3634 1759 3634 1313 
Q 3634 634 3220 271 
Q 2806 -91 2034 -91 
Q 1263 -91 848 271 
Q 434 634 434 1313 
Q 434 1759 690 2068 
Q 947 2378 1403 2484 
z
M 1172 3481 
Q 1172 3119 1398 2916 
Q 1625 2713 2034 2713 
Q 2441 2713 2670 2916 
Q 2900 3119 2900 3481 
Q 2900 3844 2670 4047 
Q 2441 4250 2034 4250 
Q 1625 4250 1398 4047 
Q 1172 3844 1172 3481 
z
" transform="scale(0.015625)"/>
      </defs>
      <use xlink:href="#DejaVuSans-30"/>
      <use xlink:href="#DejaVuSans-2e" transform="translate(63.623047 0)"/>
      <use xlink:href="#DejaVuSans-32" transform="translate(95.410156 0)"/>
      <use xlink:href="#DejaVuSans-38" transform="translate(159.033203 0)"/>
     </g>
    </g>
    <g id="line2d_43">
     <path d="M 437.361575 322.925868 
L 447.361575 322.925868 
L 457.361575 322.925868 
" style="fill: none; stroke: #17becf; stroke-width: 1.5; stroke-linecap: square"/>
    </g>
    <g id="text_24">
     <!-- 0.29 -->
     <g transform="translate(465.361575 326.425868) scale(0.1 -0.1)">
      <defs>
       <path id="DejaVuSans-39" d="M 703 97 
L 703 672 
Q 941 559 1184 500 
Q 1428 441 1663 441 
Q 2288 441 2617 861 
Q 2947 1281 2994 2138 
Q 2813 1869 2534 1725 
Q 2256 1581 1919 1581 
Q 1219 1581 811 2004 
Q 403 2428 403 3163 
Q 403 3881 828 4315 
Q 1253 4750 1959 4750 
Q 2769 4750 3195 4129 
Q 3622 3509 3622 2328 
Q 3622 1225 3098 567 
Q 2575 -91 1691 -91 
Q 1453 -91 1209 -44 
Q 966 3 703 97 
z
M 1959 2075 
Q 2384 2075 2632 2365 
Q 2881 2656 2881 3163 
Q 2881 3666 2632 3958 
Q 2384 4250 1959 4250 
Q 1534 4250 1286 3958 
Q 1038 3666 1038 3163 
Q 1038 2656 1286 2365 
Q 1534 2075 1959 2075 
z
" transform="scale(0.015625)"/>
      </defs>
      <use xlink:href="#DejaVuSans-30"/>
      <use xlink:href="#DejaVuSans-2e" transform="translate(63.623047 0)"/>
      <use xlink:href="#DejaVuSans-32" transform="translate(95.410156 0)"/>
      <use xlink:href="#DejaVuSans-39" transform="translate(159.033203 0)"/>
     </g>
    </g>
    <g id="line2d_44">
     <path d="M 437.361575 337.603993 
L 447.361575 337.603993 
L 457.361575 337.603993 
" style="fill: none; stroke: #1f77b4; stroke-width: 1.5; stroke-linecap: square"/>
    </g>
    <g id="text_25">
     <!-- 0.3 -->
     <g transform="translate(465.361575 341.103993) scale(0.1 -0.1)">
      <use xlink:href="#DejaVuSans-30"/>
      <use xlink:href="#DejaVuSans-2e" transform="translate(63.623047 0)"/>
      <use xlink:href="#DejaVuSans-33" transform="translate(95.410156 0)"/>
     </g>
    </g>
   </g>
  </g>
 </g>
 <defs>
  <clipPath id="p1383873efa">
   <rect x="68.976" y="47.48544" width="427.6512" height="304.69824"/>
  </clipPath>
 </defs>
</svg>
