<?xml version="1.0" encoding="utf-8" standalone="no"?>
<!DOCTYPE svg PUBLIC "-//W3C//DTD SVG 1.1//EN"
  "http://www.w3.org/Graphics/SVG/1.1/DTD/svg11.dtd">
<svg xmlns:xlink="http://www.w3.org/1999/xlink" width="551.808pt" height="391.104pt" viewBox="0 0 551.808 391.104" xmlns="http://www.w3.org/2000/svg" version="1.1">
 <metadata>
  <rdf:RDF xmlns:dc="http://purl.org/dc/elements/1.1/" xmlns:cc="http://creativecommons.org/ns#" xmlns:rdf="http://www.w3.org/1999/02/22-rdf-syntax-ns#">
   <cc:Work>
    <dc:type rdf:resource="http://purl.org/dc/dcmitype/StillImage"/>
    <dc:date>2026-05-12T03:01:20.370556</dc:date>
    <dc:format>image/svg+xml</dc:format>
    <dc:creator>
     <cc:Agent>
      <dc:title>Matplotlib v3.10.9, https://matplotlib.org/</dc:title>
     </cc:Agent>
    </dc:creator>
   </cc:Work>
  </rdf:RDF>
 </metadata>
 <defs>
  <style type="text/css">*{stroke-linejoin: round; stroke-linecap: butt}</style>
 </defs>
 <g id="figure_1">
  <g id="patch_1">
   <path d="M 0 391.104 
L 551.808 391.104 
L 551.808 0 
L 0 0 
z
" style="fill: #ffffff"/>
  </g>
  <g id="axes_1">
   <g id="patch_2">
    <path d="M 68.976 348.08256 
L 496.6272 348.08256 
L 496.6272 46.93248 
L 68.976 46.93248 
z
" style="fill: #ffffff"/>
   </g>
   <g id="matplotlib.axis_1">
    <g id="xtick_1">
     <g id="line2d_1">
      <path d="M 110.013236 348.08256 
L 110.013236 46.93248 
" clip-path="url(#pf756687fd4)" style="fill: none; stroke-dasharray: 1.85,0.8; stroke-dashoffset: 0; stroke: #b0b0b0; stroke-width: 0.5"/>
     </g>
     <g id="line2d_2">
      <defs>
       <path id="m3cc3a50b1b" d="M 0 0 
L 0 3.5 
" style="stroke: #000000; stroke-width: 0.8"/>
      </defs>
      <g>
       <use xlink:href="#m3cc3a50b1b" x="110.013236" y="348.08256" style="stroke: #000000; stroke-width: 0.8"/>
      </g>
     </g>
     <g id="text_1">
      <!-- −40 -->
      <g transform="translate(99.460893 362.680998) scale(0.1 -0.1)">
       <defs>
        <path id="DejaVuSans-2212" d="M 678 2272 
L 4684 2272 
L 4684 1741 
L 678 1741 
L 678 2272 
z
" transform="scale(0.015625)"/>
        <path id="DejaVuSans-34" d="M 2419 4116 
L 825 1625 
L 2419 1625 
L 2419 4116 
z
M 2253 4666 
L 3047 4666 
L 3047 1625 
L 3713 1625 
L 3713 1100 
L 3047 1100 
L 3047 0 
L 2419 0 
L 2419 1100 
L 313 1100 
L 313 1709 
L 2253 4666 
z
" transform="scale(0.015625)"/>
        <path id="DejaVuSans-30" d="M 2034 4250 
Q 1547 4250 1301 3770 
Q 1056 3291 1056 2328 
Q 1056 1369 1301 889 
Q 1547 409 2034 409 
Q 2525 409 2770 889 
Q 3016 1369 3016 2328 
Q 3016 3291 2770 3770 
Q 2525 4250 2034 4250 
z
M 2034 4750 
Q 2819 4750 3233 4129 
Q 3647 3509 3647 2328 
Q 3647 1150 3233 529 
Q 2819 -91 2034 -91 
Q 1250 -91 836 529 
Q 422 1150 422 2328 
Q 422 3509 836 4129 
Q 1250 4750 2034 4750 
z
" transform="scale(0.015625)"/>
       </defs>
       <use xlink:href="#DejaVuSans-2212"/>
       <use xlink:href="#DejaVuSans-34" transform="translate(83.789062 0)"/>
       <use xlink:href="#DejaVuSans-30" transform="translate(147.412109 0)"/>
      </g>
     </g>
    </g>
    <g id="xtick_2">
     <g id="line2d_3">
      <path d="M 196.407418 348.08256 
L 196.407418 46.93248 
" clip-path="url(#pf756687fd4)" style="fill: none; stroke-dasharray: 1.85,0.8; stroke-dashoffset: 0; stroke: #b0b0b0; stroke-width: 0.5"/>
     </g>
     <g id="line2d_4">
      <g>
       <use xlink:href="#m3cc3a50b1b" x="196.407418" y="348.08256" style="stroke: #000000; stroke-width: 0.8"/>
      </g>
     </g>
     <g id="text_2">
      <!-- −20 -->
      <g transform="translate(185.855074 362.680998) scale(0.1 -0.1)">
       <defs>
        <path id="DejaVuSans-32" d="M 1228 531 
L 3431 531 
L 3431 0 
L 469 0 
L 469 531 
Q 828 903 1448 1529 
Q 2069 2156 2228 2338 
Q 2531 2678 2651 2914 
Q 2772 3150 2772 3378 
Q 2772 3750 2511 3984 
Q 2250 4219 1831 4219 
Q 1534 4219 1204 4116 
Q 875 4013 500 3803 
L 500 4441 
Q 881 4594 1212 4672 
Q 1544 4750 1819 4750 
Q 2544 4750 2975 4387 
Q 3406 4025 3406 3419 
Q 3406 3131 3298 2873 
Q 3191 2616 2906 2266 
Q 2828 2175 2409 1742 
Q 1991 1309 1228 531 
z
" transform="scale(0.015625)"/>
       </defs>
       <use xlink:href="#DejaVuSans-2212"/>
       <use xlink:href="#DejaVuSans-32" transform="translate(83.789062 0)"/>
       <use xlink:href="#DejaVuSans-30" transform="translate(147.412109 0)"/>
      </g>
     </g>
    </g>
    <g id="xtick_3">
     <g id="line2d_5">
      <path d="M 282.8016 348.08256 
L 282.8016 46.93248 
" clip-path="url(#pf756687fd4)" style="fill: none; stroke-dasharray: 1.85,0.8; stroke-dashoffset: 0; stroke: #b0b0b0; stroke-width: 0.5"/>
     </g>
     <g id="line2d_6">
      <g>
       <use xlink:href="#m3cc3a50b1b" x="282.8016" y="348.08256" style="stroke: #000000; stroke-width: 0.8"/>
      </g>
     </g>
     <g id="text_3">
      <!-- 0 -->
      <g transform="translate(279.62035 362.680998) scale(0.1 -0.1)">
       <use xlink:href="#DejaVuSans-30"/>
      </g>
     </g>
    </g>
    <g id="xtick_4">
     <g id="line2d_7">
      <path d="M 369.195782 348.08256 
L 369.195782 46.93248 
" clip-path="url(#pf756687fd4)" style="fill: none; stroke-dasharray: 1.85,0.8; stroke-dashoffset: 0; stroke: #b0b0b0; stroke-width: 0.5"/>
     </g>
     <g id="line2d_8">
      <g>
       <use xlink:href="#m3cc3a50b1b" x="369.195782" y="348.08256" style="stroke: #000000; stroke-width: 0.8"/>
      </g>
     </g>
     <g id="text_4">
      <!-- 20 -->
      <g transform="translate(362.833282 362.680998) scale(0.1 -0.1)">
       <use xlink:href="#DejaVuSans-32"/>
       <use xlink:href="#DejaVuSans-30" transform="translate(63.623047 0)"/>
      </g>
     </g>
    </g>
    <g id="xtick_5">
     <g id="line2d_9">
      <path d="M 455.589964 348.08256 
L 455.589964 46.93248 
" clip-path="url(#pf756687fd4)" style="fill: none; stroke-dasharray: 1.85,0.8; stroke-dashoffset: 0; stroke: #b0b0b0; stroke-width: 0.5"/>
     </g>
     <g id="line2d_10">
      <g>
       <use xlink:href="#m3cc3a50b1b" x="455.589964" y="348.08256" style="stroke: #000000; stroke-width: 0.8"/>
      </g>
     </g>
     <g id="text_5">
      <!-- 40 -->
      <g transform="translate(449.227464 362.680998) scale(0.1 -0.1)">
       <use xlink:href="#DejaVuSans-34"/>
       <use xlink:href="#DejaVuSans-30" transform="translate(63.623047 0)"/>
      </g>
     </g>
    </g>
    <g id="text_6">
     <!-- Angle (degrees) -->
     <g transform="translate(242.956288 376.359123) scale(0.1 -0.1)">
      <defs>
       <path id="DejaVuSans-41" d="M 2188 4044 
L 1331 1722 
L 3047 1722 
L 2188 4044 
z
M 1831 4666 
L 2547 4666 
L 4325 0 
L 3669 0 
L 3244 1197 
L 1141 1197 
L 716 0 
L 50 0 
L 1831 4666 
z
" transform="scale(0.015625)"/>
       <path id="DejaVuSans-6e" d="M 3513 2113 
L 3513 0 
L 2938 0 
L 2938 2094 
Q 2938 2591 2744 2837 
Q 2550 3084 2163 3084 
Q 1697 3084 1428 2787 
Q 1159 2491 1159 1978 
L 1159 0 
L 581 0 
L 581 3500 
L 1159 3500 
L 1159 2956 
Q 1366 3272 1645 3428 
Q 1925 3584 2291 3584 
Q 2894 3584 3203 3211 
Q 3513 2838 3513 2113 
z
" transform="scale(0.015625)"/>
       <path id="DejaVuSans-67" d="M 2906 1791 
Q 2906 2416 2648 2759 
Q 2391 3103 1925 3103 
Q 1463 3103 1205 2759 
Q 947 2416 947 1791 
Q 947 1169 1205 825 
Q 1463 481 1925 481 
Q 2391 481 2648 825 
Q 2906 1169 2906 1791 
z
M 3481 434 
Q 3481 -459 3084 -895 
Q 2688 -1331 1869 -1331 
Q 1566 -1331 1297 -1286 
Q 1028 -1241 775 -1147 
L 775 -588 
Q 1028 -725 1275 -790 
Q 1522 -856 1778 -856 
Q 2344 -856 2625 -561 
Q 2906 -266 2906 331 
L 2906 616 
Q 2728 306 2450 153 
Q 2172 0 1784 0 
Q 1141 0 747 490 
Q 353 981 353 1791 
Q 353 2603 747 3093 
Q 1141 3584 1784 3584 
Q 2172 3584 2450 3431 
Q 2728 3278 2906 2969 
L 2906 3500 
L 3481 3500 
L 3481 434 
z
" transform="scale(0.015625)"/>
       <path id="DejaVuSans-6c" d="M 603 4863 
L 1178 4863 
L 1178 0 
L 603 0 
L 603 4863 
z
" transform="scale(0.015625)"/>
       <path id="DejaVuSans-65" d="M 3597 1894 
L 3597 1613 
L 953 1613 
Q 991 1019 1311 708 
Q 1631 397 2203 397 
Q 2534 397 2845 478 
Q 3156 559 3463 722 
L 3463 178 
Q 3153 47 2828 -22 
Q 2503 -91 2169 -91 
Q 1331 -91 842 396 
Q 353 884 353 1716 
Q 353 2575 817 3079 
Q 1281 3584 2069 3584 
Q 2775 3584 3186 3129 
Q 3597 2675 3597 1894 
z
M 3022 2063 
Q 3016 2534 2758 2815 
Q 2500 3097 2075 3097 
Q 1594 3097 1305 2825 
Q 1016 2553 972 2059 
L 3022 2063 
z
" transform="scale(0.015625)"/>
       <path id="DejaVuSans-20" transform="scale(0.015625)"/>
       <path id="DejaVuSans-28" d="M 1984 4856 
Q 1566 4138 1362 3434 
Q 1159 2731 1159 2009 
Q 1159 1288 1364 580 
Q 1569 -128 1984 -844 
L 1484 -844 
Q 1016 -109 783 600 
Q 550 1309 550 2009 
Q 550 2706 781 3412 
Q 1013 4119 1484 4856 
L 1984 4856 
z
" transform="scale(0.015625)"/>
       <path id="DejaVuSans-64" d="M 2906 2969 
L 2906 4863 
L 3481 4863 
L 3481 0 
L 2906 0 
L 2906 525 
Q 2725 213 2448 61 
Q 2172 -91 1784 -91 
Q 1150 -91 751 415 
Q 353 922 353 1747 
Q 353 2572 751 3078 
Q 1150 3584 1784 3584 
Q 2172 3584 2448 3432 
Q 2725 3281 2906 2969 
z
M 947 1747 
Q 947 1113 1208 752 
Q 1469 391 1925 391 
Q 2381 391 2643 752 
Q 2906 1113 2906 1747 
Q 2906 2381 2643 2742 
Q 2381 3103 1925 3103 
Q 1469 3103 1208 2742 
Q 947 2381 947 1747 
z
" transform="scale(0.015625)"/>
       <path id="DejaVuSans-72" d="M 2631 2963 
Q 2534 3019 2420 3045 
Q 2306 3072 2169 3072 
Q 1681 3072 1420 2755 
Q 1159 2438 1159 1844 
L 1159 0 
L 581 0 
L 581 3500 
L 1159 3500 
L 1159 2956 
Q 1341 3275 1631 3429 
Q 1922 3584 2338 3584 
Q 2397 3584 2469 3576 
Q 2541 3569 2628 3553 
L 2631 2963 
z
" transform="scale(0.015625)"/>
       <path id="DejaVuSans-73" d="M 2834 3397 
L 2834 2853 
Q 2591 2978 2328 3040 
Q 2066 3103 1784 3103 
Q 1356 3103 1142 2972 
Q 928 2841 928 2578 
Q 928 2378 1081 2264 
Q 1234 2150 1697 2047 
L 1894 2003 
Q 2506 1872 2764 1633 
Q 3022 1394 3022 966 
Q 3022 478 2636 193 
Q 2250 -91 1575 -91 
Q 1294 -91 989 -36 
Q 684 19 347 128 
L 347 722 
Q 666 556 975 473 
Q 1284 391 1588 391 
Q 1994 391 2212 530 
Q 2431 669 2431 922 
Q 2431 1156 2273 1281 
Q 2116 1406 1581 1522 
L 1381 1569 
Q 847 1681 609 1914 
Q 372 2147 372 2553 
Q 372 3047 722 3315 
Q 1072 3584 1716 3584 
Q 2034 3584 2315 3537 
Q 2597 3491 2834 3397 
z
" transform="scale(0.015625)"/>
       <path id="DejaVuSans-29" d="M 513 4856 
L 1013 4856 
Q 1481 4119 1714 3412 
Q 1947 2706 1947 2009 
Q 1947 1309 1714 600 
Q 1481 -109 1013 -844 
L 513 -844 
Q 928 -128 1133 580 
Q 1338 1288 1338 2009 
Q 1338 2731 1133 3434 
Q 928 4138 513 4856 
z
" transform="scale(0.015625)"/>
      </defs>
      <use xlink:href="#DejaVuSans-41"/>
      <use xlink:href="#DejaVuSans-6e" transform="translate(68.408203 0)"/>
      <use xlink:href="#DejaVuSans-67" transform="translate(131.787109 0)"/>
      <use xlink:href="#DejaVuSans-6c" transform="translate(195.263672 0)"/>
      <use xlink:href="#DejaVuSans-65" transform="translate(223.046875 0)"/>
      <use xlink:href="#DejaVuSans-20" transform="translate(284.570312 0)"/>
      <use xlink:href="#DejaVuSans-28" transform="translate(316.357422 0)"/>
      <use xlink:href="#DejaVuSans-64" transform="translate(355.371094 0)"/>
      <use xlink:href="#DejaVuSans-65" transform="translate(418.847656 0)"/>
      <use xlink:href="#DejaVuSans-67" transform="translate(480.371094 0)"/>
      <use xlink:href="#DejaVuSans-72" transform="translate(543.847656 0)"/>
      <use xlink:href="#DejaVuSans-65" transform="translate(582.710938 0)"/>
      <use xlink:href="#DejaVuSans-65" transform="translate(644.234375 0)"/>
      <use xlink:href="#DejaVuSans-73" transform="translate(705.757812 0)"/>
      <use xlink:href="#DejaVuSans-29" transform="translate(757.857422 0)"/>
     </g>
    </g>
   </g>
   <g id="matplotlib.axis_2">
    <g id="ytick_1">
     <g id="line2d_11">
      <path d="M 68.976 342.924747 
L 496.6272 342.924747 
" clip-path="url(#pf756687fd4)" style="fill: none; stroke-dasharray: 1.85,0.8; stroke-dashoffset: 0; stroke: #b0b0b0; stroke-width: 0.5"/>
     </g>
     <g id="line2d_12">
      <defs>
       <path id="m9da2c00dc0" d="M 0 0 
L -3.5 0 
" style="stroke: #000000; stroke-width: 0.8"/>
      </defs>
      <g>
       <use xlink:href="#m9da2c00dc0" x="68.976" y="342.924747" style="stroke: #000000; stroke-width: 0.8"/>
      </g>
     </g>
     <g id="text_7">
      <!-- −0.04 -->
      <g transform="translate(31.330687 346.723966) scale(0.1 -0.1)">
       <defs>
        <path id="DejaVuSans-2e" d="M 684 794 
L 1344 794 
L 1344 0 
L 684 0 
L 684 794 
z
" transform="scale(0.015625)"/>
       </defs>
       <use xlink:href="#DejaVuSans-2212"/>
       <use xlink:href="#DejaVuSans-30" transform="translate(83.789062 0)"/>
       <use xlink:href="#DejaVuSans-2e" transform="translate(147.412109 0)"/>
       <use xlink:href="#DejaVuSans-30" transform="translate(179.199219 0)"/>
       <use xlink:href="#DejaVuSans-34" transform="translate(242.822266 0)"/>
      </g>
     </g>
    </g>
    <g id="ytick_2">
     <g id="line2d_13">
      <path d="M 68.976 303.85783 
L 496.6272 303.85783 
" clip-path="url(#pf756687fd4)" style="fill: none; stroke-dasharray: 1.85,0.8; stroke-dashoffset: 0; stroke: #b0b0b0; stroke-width: 0.5"/>
     </g>
     <g id="line2d_14">
      <g>
       <use xlink:href="#m9da2c00dc0" x="68.976" y="303.85783" style="stroke: #000000; stroke-width: 0.8"/>
      </g>
     </g>
     <g id="text_8">
      <!-- −0.03 -->
      <g transform="translate(31.330687 307.657049) scale(0.1 -0.1)">
       <defs>
        <path id="DejaVuSans-33" d="M 2597 2516 
Q 3050 2419 3304 2112 
Q 3559 1806 3559 1356 
Q 3559 666 3084 287 
Q 2609 -91 1734 -91 
Q 1441 -91 1130 -33 
Q 819 25 488 141 
L 488 750 
Q 750 597 1062 519 
Q 1375 441 1716 441 
Q 2309 441 2620 675 
Q 2931 909 2931 1356 
Q 2931 1769 2642 2001 
Q 2353 2234 1838 2234 
L 1294 2234 
L 1294 2753 
L 1863 2753 
Q 2328 2753 2575 2939 
Q 2822 3125 2822 3475 
Q 2822 3834 2567 4026 
Q 2313 4219 1838 4219 
Q 1578 4219 1281 4162 
Q 984 4106 628 3988 
L 628 4550 
Q 988 4650 1302 4700 
Q 1616 4750 1894 4750 
Q 2613 4750 3031 4423 
Q 3450 4097 3450 3541 
Q 3450 3153 3228 2886 
Q 3006 2619 2597 2516 
z
" transform="scale(0.015625)"/>
       </defs>
       <use xlink:href="#DejaVuSans-2212"/>
       <use xlink:href="#DejaVuSans-30" transform="translate(83.789062 0)"/>
       <use xlink:href="#DejaVuSans-2e" transform="translate(147.412109 0)"/>
       <use xlink:href="#DejaVuSans-30" transform="translate(179.199219 0)"/>
       <use xlink:href="#DejaVuSans-33" transform="translate(242.822266 0)"/>
      </g>
     </g>
    </g>
    <g id="ytick_3">
     <g id="line2d_15">
      <path d="M 68.976 264.790914 
L 496.6272 264.790914 
" clip-path="url(#pf756687fd4)" style="fill: none; stroke-dasharray: 1.85,0.8; stroke-dashoffset: 0; stroke: #b0b0b0; stroke-width: 0.5"/>
     </g>
     <g id="line2d_16">
      <g>
       <use xlink:href="#m9da2c00dc0" x="68.976" y="264.790914" style="stroke: #000000; stroke-width: 0.8"/>
      </g>
     </g>
     <g id="text_9">
      <!-- −0.02 -->
      <g transform="translate(31.330687 268.590133) scale(0.1 -0.1)">
       <use xlink:href="#DejaVuSans-2212"/>
       <use xlink:href="#DejaVuSans-30" transform="translate(83.789062 0)"/>
       <use xlink:href="#DejaVuSans-2e" transform="translate(147.412109 0)"/>
       <use xlink:href="#DejaVuSans-30" transform="translate(179.199219 0)"/>
       <use xlink:href="#DejaVuSans-32" transform="translate(242.822266 0)"/>
      </g>
     </g>
    </g>
    <g id="ytick_4">
     <g id="line2d_17">
      <path d="M 68.976 225.723998 
L 496.6272 225.723998 
" clip-path="url(#pf756687fd4)" style="fill: none; stroke-dasharray: 1.85,0.8; stroke-dashoffset: 0; stroke: #b0b0b0; stroke-width: 0.5"/>
     </g>
     <g id="line2d_18">
      <g>
       <use xlink:href="#m9da2c00dc0" x="68.976" y="225.723998" style="stroke: #000000; stroke-width: 0.8"/>
      </g>
     </g>
     <g id="text_10">
      <!-- −0.01 -->
      <g transform="translate(31.330687 229.523216) scale(0.1 -0.1)">
       <defs>
        <path id="DejaVuSans-31" d="M 794 531 
L 1825 531 
L 1825 4091 
L 703 3866 
L 703 4441 
L 1819 4666 
L 2450 4666 
L 2450 531 
L 3481 531 
L 3481 0 
L 794 0 
L 794 531 
z
" transform="scale(0.015625)"/>
       </defs>
       <use xlink:href="#DejaVuSans-2212"/>
       <use xlink:href="#DejaVuSans-30" transform="translate(83.789062 0)"/>
       <use xlink:href="#DejaVuSans-2e" transform="translate(147.412109 0)"/>
       <use xlink:href="#DejaVuSans-30" transform="translate(179.199219 0)"/>
       <use xlink:href="#DejaVuSans-31" transform="translate(242.822266 0)"/>
      </g>
     </g>
    </g>
    <g id="ytick_5">
     <g id="line2d_19">
      <path d="M 68.976 186.657081 
L 496.6272 186.657081 
" clip-path="url(#pf756687fd4)" style="fill: none; stroke-dasharray: 1.85,0.8; stroke-dashoffset: 0; stroke: #b0b0b0; stroke-width: 0.5"/>
     </g>
     <g id="line2d_20">
      <g>
       <use xlink:href="#m9da2c00dc0" x="68.976" y="186.657081" style="stroke: #000000; stroke-width: 0.8"/>
      </g>
     </g>
     <g id="text_11">
      <!-- 0.00 -->
      <g transform="translate(39.710375 190.4563) scale(0.1 -0.1)">
       <use xlink:href="#DejaVuSans-30"/>
       <use xlink:href="#DejaVuSans-2e" transform="translate(63.623047 0)"/>
       <use xlink:href="#DejaVuSans-30" transform="translate(95.410156 0)"/>
       <use xlink:href="#DejaVuSans-30" transform="translate(159.033203 0)"/>
      </g>
     </g>
    </g>
    <g id="ytick_6">
     <g id="line2d_21">
      <path d="M 68.976 147.590165 
L 496.6272 147.590165 
" clip-path="url(#pf756687fd4)" style="fill: none; stroke-dasharray: 1.85,0.8; stroke-dashoffset: 0; stroke: #b0b0b0; stroke-width: 0.5"/>
     </g>
     <g id="line2d_22">
      <g>
       <use xlink:href="#m9da2c00dc0" x="68.976" y="147.590165" style="stroke: #000000; stroke-width: 0.8"/>
      </g>
     </g>
     <g id="text_12">
      <!-- 0.01 -->
      <g transform="translate(39.710375 151.389384) scale(0.1 -0.1)">
       <use xlink:href="#DejaVuSans-30"/>
       <use xlink:href="#DejaVuSans-2e" transform="translate(63.623047 0)"/>
       <use xlink:href="#DejaVuSans-30" transform="translate(95.410156 0)"/>
       <use xlink:href="#DejaVuSans-31" transform="translate(159.033203 0)"/>
      </g>
     </g>
    </g>
    <g id="ytick_7">
     <g id="line2d_23">
      <path d="M 68.976 108.523249 
L 496.6272 108.523249 
" clip-path="url(#pf756687fd4)" style="fill: none; stroke-dasharray: 1.85,0.8; stroke-dashoffset: 0; stroke: #b0b0b0; stroke-width: 0.5"/>
     </g>
     <g id="line2d_24">
      <g>
       <use xlink:href="#m9da2c00dc0" x="68.976" y="108.523249" style="stroke: #000000; stroke-width: 0.8"/>
      </g>
     </g>
     <g id="text_13">
      <!-- 0.02 -->
      <g transform="translate(39.710375 112.322467) scale(0.1 -0.1)">
       <use xlink:href="#DejaVuSans-30"/>
       <use xlink:href="#DejaVuSans-2e" transform="translate(63.623047 0)"/>
       <use xlink:href="#DejaVuSans-30" transform="translate(95.410156 0)"/>
       <use xlink:href="#DejaVuSans-32" transform="translate(159.033203 0)"/>
      </g>
     </g>
    </g>
    <g id="ytick_8">
     <g id="line2d_25">
      <path d="M 68.976 69.456332 
L 496.6272 69.456332 
" clip-path="url(#pf756687fd4)" style="fill: none; stroke-dasharray: 1.85,0.8; stroke-dashoffset: 0; stroke: #b0b0b0; stroke-width: 0.5"/>
     </g>
     <g id="line2d_26">
      <g>
       <use xlink:href="#m9da2c00dc0" x="68.976" y="69.456332" style="stroke: #000000; stroke-width: 0.8"/>
      </g>
     </g>
     <g id="text_14">
      <!-- 0.03 -->
      <g transform="translate(39.710375 73.255551) scale(0.1 -0.1)">
       <use xlink:href="#DejaVuSans-30"/>
       <use xlink:href="#DejaVuSans-2e" transform="translate(63.623047 0)"/>
       <use xlink:href="#DejaVuSans-30" transform="translate(95.410156 0)"/>
       <use xlink:href="#DejaVuSans-33" transform="translate(159.033203 0)"/>
      </g>
     </g>
    </g>
    <g id="text_15">
     <!-- Normalized Potential Energy (J/m) -->
     <g transform="translate(25.251 281.968457) rotate(-90) scale(0.1 -0.1)">
      <defs>
       <path id="DejaVuSans-4e" d="M 628 4666 
L 1478 4666 
L 3547 763 
L 3547 4666 
L 4159 4666 
L 4159 0 
L 3309 0 
L 1241 3903 
L 1241 0 
L 628 0 
L 628 4666 
z
" transform="scale(0.015625)"/>
       <path id="DejaVuSans-6f" d="M 1959 3097 
Q 1497 3097 1228 2736 
Q 959 2375 959 1747 
Q 959 1119 1226 758 
Q 1494 397 1959 397 
Q 2419 397 2687 759 
Q 2956 1122 2956 1747 
Q 2956 2369 2687 2733 
Q 2419 3097 1959 3097 
z
M 1959 3584 
Q 2709 3584 3137 3096 
Q 3566 2609 3566 1747 
Q 3566 888 3137 398 
Q 2709 -91 1959 -91 
Q 1206 -91 779 398 
Q 353 888 353 1747 
Q 353 2609 779 3096 
Q 1206 3584 1959 3584 
z
" transform="scale(0.015625)"/>
       <path id="DejaVuSans-6d" d="M 3328 2828 
Q 3544 3216 3844 3400 
Q 4144 3584 4550 3584 
Q 5097 3584 5394 3201 
Q 5691 2819 5691 2113 
L 5691 0 
L 5113 0 
L 5113 2094 
Q 5113 2597 4934 2840 
Q 4756 3084 4391 3084 
Q 3944 3084 3684 2787 
Q 3425 2491 3425 1978 
L 3425 0 
L 2847 0 
L 2847 2094 
Q 2847 2600 2669 2842 
Q 2491 3084 2119 3084 
Q 1678 3084 1418 2786 
Q 1159 2488 1159 1978 
L 1159 0 
L 581 0 
L 581 3500 
L 1159 3500 
L 1159 2956 
Q 1356 3278 1631 3431 
Q 1906 3584 2284 3584 
Q 2666 3584 2933 3390 
Q 3200 3197 3328 2828 
z
" transform="scale(0.015625)"/>
       <path id="DejaVuSans-61" d="M 2194 1759 
Q 1497 1759 1228 1600 
Q 959 1441 959 1056 
Q 959 750 1161 570 
Q 1363 391 1709 391 
Q 2188 391 2477 730 
Q 2766 1069 2766 1631 
L 2766 1759 
L 2194 1759 
z
M 3341 1997 
L 3341 0 
L 2766 0 
L 2766 531 
Q 2569 213 2275 61 
Q 1981 -91 1556 -91 
Q 1019 -91 701 211 
Q 384 513 384 1019 
Q 384 1609 779 1909 
Q 1175 2209 1959 2209 
L 2766 2209 
L 2766 2266 
Q 2766 2663 2505 2880 
Q 2244 3097 1772 3097 
Q 1472 3097 1187 3025 
Q 903 2953 641 2809 
L 641 3341 
Q 956 3463 1253 3523 
Q 1550 3584 1831 3584 
Q 2591 3584 2966 3190 
Q 3341 2797 3341 1997 
z
" transform="scale(0.015625)"/>
       <path id="DejaVuSans-69" d="M 603 3500 
L 1178 3500 
L 1178 0 
L 603 0 
L 603 3500 
z
M 603 4863 
L 1178 4863 
L 1178 4134 
L 603 4134 
L 603 4863 
z
" transform="scale(0.015625)"/>
       <path id="DejaVuSans-7a" d="M 353 3500 
L 3084 3500 
L 3084 2975 
L 922 459 
L 3084 459 
L 3084 0 
L 275 0 
L 275 525 
L 2438 3041 
L 353 3041 
L 353 3500 
z
" transform="scale(0.015625)"/>
       <path id="DejaVuSans-50" d="M 1259 4147 
L 1259 2394 
L 2053 2394 
Q 2494 2394 2734 2622 
Q 2975 2850 2975 3272 
Q 2975 3691 2734 3919 
Q 2494 4147 2053 4147 
L 1259 4147 
z
M 628 4666 
L 2053 4666 
Q 2838 4666 3239 4311 
Q 3641 3956 3641 3272 
Q 3641 2581 3239 2228 
Q 2838 1875 2053 1875 
L 1259 1875 
L 1259 0 
L 628 0 
L 628 4666 
z
" transform="scale(0.015625)"/>
       <path id="DejaVuSans-74" d="M 1172 4494 
L 1172 3500 
L 2356 3500 
L 2356 3053 
L 1172 3053 
L 1172 1153 
Q 1172 725 1289 603 
Q 1406 481 1766 481 
L 2356 481 
L 2356 0 
L 1766 0 
Q 1100 0 847 248 
Q 594 497 594 1153 
L 594 3053 
L 172 3053 
L 172 3500 
L 594 3500 
L 594 4494 
L 1172 4494 
z
" transform="scale(0.015625)"/>
       <path id="DejaVuSans-45" d="M 628 4666 
L 3578 4666 
L 3578 4134 
L 1259 4134 
L 1259 2753 
L 3481 2753 
L 3481 2222 
L 1259 2222 
L 1259 531 
L 3634 531 
L 3634 0 
L 628 0 
L 628 4666 
z
" transform="scale(0.015625)"/>
       <path id="DejaVuSans-79" d="M 2059 -325 
Q 1816 -950 1584 -1140 
Q 1353 -1331 966 -1331 
L 506 -1331 
L 506 -850 
L 844 -850 
Q 1081 -850 1212 -737 
Q 1344 -625 1503 -206 
L 1606 56 
L 191 3500 
L 800 3500 
L 1894 763 
L 2988 3500 
L 3597 3500 
L 2059 -325 
z
" transform="scale(0.015625)"/>
       <path id="DejaVuSans-4a" d="M 628 4666 
L 1259 4666 
L 1259 325 
Q 1259 -519 939 -900 
Q 619 -1281 -91 -1281 
L -331 -1281 
L -331 -750 
L -134 -750 
Q 284 -750 456 -515 
Q 628 -281 628 325 
L 628 4666 
z
" transform="scale(0.015625)"/>
       <path id="DejaVuSans-2f" d="M 1625 4666 
L 2156 4666 
L 531 -594 
L 0 -594 
L 1625 4666 
z
" transform="scale(0.015625)"/>
      </defs>
      <use xlink:href="#DejaVuSans-4e"/>
      <use xlink:href="#DejaVuSans-6f" transform="translate(74.804688 0)"/>
      <use xlink:href="#DejaVuSans-72" transform="translate(135.986328 0)"/>
      <use xlink:href="#DejaVuSans-6d" transform="translate(175.349609 0)"/>
      <use xlink:href="#DejaVuSans-61" transform="translate(272.761719 0)"/>
      <use xlink:href="#DejaVuSans-6c" transform="translate(334.041016 0)"/>
      <use xlink:href="#DejaVuSans-69" transform="translate(361.824219 0)"/>
      <use xlink:href="#DejaVuSans-7a" transform="translate(389.607422 0)"/>
      <use xlink:href="#DejaVuSans-65" transform="translate(442.097656 0)"/>
      <use xlink:href="#DejaVuSans-64" transform="translate(503.621094 0)"/>
      <use xlink:href="#DejaVuSans-20" transform="translate(567.097656 0)"/>
      <use xlink:href="#DejaVuSans-50" transform="translate(598.884766 0)"/>
      <use xlink:href="#DejaVuSans-6f" transform="translate(655.5625 0)"/>
      <use xlink:href="#DejaVuSans-74" transform="translate(716.744141 0)"/>
      <use xlink:href="#DejaVuSans-65" transform="translate(755.953125 0)"/>
      <use xlink:href="#DejaVuSans-6e" transform="translate(817.476562 0)"/>
      <use xlink:href="#DejaVuSans-74" transform="translate(880.855469 0)"/>
      <use xlink:href="#DejaVuSans-69" transform="translate(920.064453 0)"/>
      <use xlink:href="#DejaVuSans-61" transform="translate(947.847656 0)"/>
      <use xlink:href="#DejaVuSans-6c" transform="translate(1009.126953 0)"/>
      <use xlink:href="#DejaVuSans-20" transform="translate(1036.910156 0)"/>
      <use xlink:href="#DejaVuSans-45" transform="translate(1068.697266 0)"/>
      <use xlink:href="#DejaVuSans-6e" transform="translate(1131.880859 0)"/>
      <use xlink:href="#DejaVuSans-65" transform="translate(1195.259766 0)"/>
      <use xlink:href="#DejaVuSans-72" transform="translate(1256.783203 0)"/>
      <use xlink:href="#DejaVuSans-67" transform="translate(1296.146484 0)"/>
      <use xlink:href="#DejaVuSans-79" transform="translate(1359.623047 0)"/>
      <use xlink:href="#DejaVuSans-20" transform="translate(1418.802734 0)"/>
      <use xlink:href="#DejaVuSans-28" transform="translate(1450.589844 0)"/>
      <use xlink:href="#DejaVuSans-4a" transform="translate(1489.603516 0)"/>
      <use xlink:href="#DejaVuSans-2f" transform="translate(1519.095703 0)"/>
      <use xlink:href="#DejaVuSans-6d" transform="translate(1552.787109 0)"/>
      <use xlink:href="#DejaVuSans-29" transform="translate(1650.199219 0)"/>
     </g>
    </g>
   </g>
   <g id="line2d_27">
    <path d="M 88.414691 104.466798 
L 96.34885 105.028691 
L 104.28301 106.711222 
L 112.21717 109.504879 
L 120.151329 113.393585 
L 128.085489 118.354346 
L 136.019648 124.356722 
L 143.953808 131.362098 
L 151.887967 139.322682 
L 159.822127 148.180169 
L 167.756286 157.863943 
L 175.690446 168.288652 
L 183.624606 179.350904 
L 191.558765 190.924675 
L 199.492925 202.854821 
L 207.427084 214.947643 
L 215.361244 226.956755 
L 223.295403 238.561077 
L 231.229563 249.328883 
L 239.163722 258.699378 
L 247.097882 266.431226 
L 255.032042 272.563954 
L 262.966201 277.133033 
L 270.900361 280.164685 
L 278.83452 281.676212 
L 286.76868 281.676212 
L 294.702839 280.164685 
L 302.636999 277.133033 
L 310.571158 272.563954 
L 318.505318 266.431226 
L 326.439478 258.699378 
L 334.373637 249.328883 
L 342.307797 238.561077 
L 350.241956 226.956755 
L 358.176116 214.947643 
L 366.110275 202.854821 
L 374.044435 190.924675 
L 381.978594 179.350904 
L 389.912754 168.288652 
L 397.846914 157.863943 
L 405.781073 148.180169 
L 413.715233 139.322682 
L 421.649392 131.362098 
L 429.583552 124.356722 
L 437.517711 118.354346 
L 445.451871 113.393585 
L 453.38603 109.504879 
L 461.32019 106.711222 
L 469.25435 105.028691 
L 477.188509 104.466798 
" clip-path="url(#pf756687fd4)" style="fill: none; stroke: #1f77b4; stroke-width: 1.5; stroke-linecap: square"/>
    <defs>
     <path id="m7a2ea0a5d9" d="M 0 2 
C 0.530406 2 1.03916 1.789267 1.414214 1.414214 
C 1.789267 1.03916 2 0.530406 2 0 
C 2 -0.530406 1.789267 -1.03916 1.414214 -1.414214 
C 1.03916 -1.789267 0.530406 -2 0 -2 
C -0.530406 -2 -1.03916 -1.789267 -1.414214 -1.414214 
C -1.789267 -1.03916 -2 -0.530406 -2 0 
C -2 0.530406 -1.789267 1.03916 -1.414214 1.414214 
C -1.03916 1.789267 -0.530406 2 0 2 
z
" style="stroke: #1f77b4"/>
    </defs>
    <g clip-path="url(#pf756687fd4)">
     <use xlink:href="#m7a2ea0a5d9" x="88.414691" y="104.466798" style="fill: #1f77b4; stroke: #1f77b4"/>
     <use xlink:href="#m7a2ea0a5d9" x="96.34885" y="105.028691" style="fill: #1f77b4; stroke: #1f77b4"/>
     <use xlink:href="#m7a2ea0a5d9" x="104.28301" y="106.711222" style="fill: #1f77b4; stroke: #1f77b4"/>
     <use xlink:href="#m7a2ea0a5d9" x="112.21717" y="109.504879" style="fill: #1f77b4; stroke: #1f77b4"/>
     <use xlink:href="#m7a2ea0a5d9" x="120.151329" y="113.393585" style="fill: #1f77b4; stroke: #1f77b4"/>
     <use xlink:href="#m7a2ea0a5d9" x="128.085489" y="118.354346" style="fill: #1f77b4; stroke: #1f77b4"/>
     <use xlink:href="#m7a2ea0a5d9" x="136.019648" y="124.356722" style="fill: #1f77b4; stroke: #1f77b4"/>
     <use xlink:href="#m7a2ea0a5d9" x="143.953808" y="131.362098" style="fill: #1f77b4; stroke: #1f77b4"/>
     <use xlink:href="#m7a2ea0a5d9" x="151.887967" y="139.322682" style="fill: #1f77b4; stroke: #1f77b4"/>
     <use xlink:href="#m7a2ea0a5d9" x="159.822127" y="148.180169" style="fill: #1f77b4; stroke: #1f77b4"/>
     <use xlink:href="#m7a2ea0a5d9" x="167.756286" y="157.863943" style="fill: #1f77b4; stroke: #1f77b4"/>
     <use xlink:href="#m7a2ea0a5d9" x="175.690446" y="168.288652" style="fill: #1f77b4; stroke: #1f77b4"/>
     <use xlink:href="#m7a2ea0a5d9" x="183.624606" y="179.350904" style="fill: #1f77b4; stroke: #1f77b4"/>
     <use xlink:href="#m7a2ea0a5d9" x="191.558765" y="190.924675" style="fill: #1f77b4; stroke: #1f77b4"/>
     <use xlink:href="#m7a2ea0a5d9" x="199.492925" y="202.854821" style="fill: #1f77b4; stroke: #1f77b4"/>
     <use xlink:href="#m7a2ea0a5d9" x="207.427084" y="214.947643" style="fill: #1f77b4; stroke: #1f77b4"/>
     <use xlink:href="#m7a2ea0a5d9" x="215.361244" y="226.956755" style="fill: #1f77b4; stroke: #1f77b4"/>
     <use xlink:href="#m7a2ea0a5d9" x="223.295403" y="238.561077" style="fill: #1f77b4; stroke: #1f77b4"/>
     <use xlink:href="#m7a2ea0a5d9" x="231.229563" y="249.328883" style="fill: #1f77b4; stroke: #1f77b4"/>
     <use xlink:href="#m7a2ea0a5d9" x="239.163722" y="258.699378" style="fill: #1f77b4; stroke: #1f77b4"/>
     <use xlink:href="#m7a2ea0a5d9" x="247.097882" y="266.431226" style="fill: #1f77b4; stroke: #1f77b4"/>
     <use xlink:href="#m7a2ea0a5d9" x="255.032042" y="272.563954" style="fill: #1f77b4; stroke: #1f77b4"/>
     <use xlink:href="#m7a2ea0a5d9" x="262.966201" y="277.133033" style="fill: #1f77b4; stroke: #1f77b4"/>
     <use xlink:href="#m7a2ea0a5d9" x="270.900361" y="280.164685" style="fill: #1f77b4; stroke: #1f77b4"/>
     <use xlink:href="#m7a2ea0a5d9" x="278.83452" y="281.676212" style="fill: #1f77b4; stroke: #1f77b4"/>
     <use xlink:href="#m7a2ea0a5d9" x="286.76868" y="281.676212" style="fill: #1f77b4; stroke: #1f77b4"/>
     <use xlink:href="#m7a2ea0a5d9" x="294.702839" y="280.164685" style="fill: #1f77b4; stroke: #1f77b4"/>
     <use xlink:href="#m7a2ea0a5d9" x="302.636999" y="277.133033" style="fill: #1f77b4; stroke: #1f77b4"/>
     <use xlink:href="#m7a2ea0a5d9" x="310.571158" y="272.563954" style="fill: #1f77b4; stroke: #1f77b4"/>
     <use xlink:href="#m7a2ea0a5d9" x="318.505318" y="266.431226" style="fill: #1f77b4; stroke: #1f77b4"/>
     <use xlink:href="#m7a2ea0a5d9" x="326.439478" y="258.699378" style="fill: #1f77b4; stroke: #1f77b4"/>
     <use xlink:href="#m7a2ea0a5d9" x="334.373637" y="249.328883" style="fill: #1f77b4; stroke: #1f77b4"/>
     <use xlink:href="#m7a2ea0a5d9" x="342.307797" y="238.561077" style="fill: #1f77b4; stroke: #1f77b4"/>
     <use xlink:href="#m7a2ea0a5d9" x="350.241956" y="226.956755" style="fill: #1f77b4; stroke: #1f77b4"/>
     <use xlink:href="#m7a2ea0a5d9" x="358.176116" y="214.947643" style="fill: #1f77b4; stroke: #1f77b4"/>
     <use xlink:href="#m7a2ea0a5d9" x="366.110275" y="202.854821" style="fill: #1f77b4; stroke: #1f77b4"/>
     <use xlink:href="#m7a2ea0a5d9" x="374.044435" y="190.924675" style="fill: #1f77b4; stroke: #1f77b4"/>
     <use xlink:href="#m7a2ea0a5d9" x="381.978594" y="179.350904" style="fill: #1f77b4; stroke: #1f77b4"/>
     <use xlink:href="#m7a2ea0a5d9" x="389.912754" y="168.288652" style="fill: #1f77b4; stroke: #1f77b4"/>
     <use xlink:href="#m7a2ea0a5d9" x="397.846914" y="157.863943" style="fill: #1f77b4; stroke: #1f77b4"/>
     <use xlink:href="#m7a2ea0a5d9" x="405.781073" y="148.180169" style="fill: #1f77b4; stroke: #1f77b4"/>
     <use xlink:href="#m7a2ea0a5d9" x="413.715233" y="139.322682" style="fill: #1f77b4; stroke: #1f77b4"/>
     <use xlink:href="#m7a2ea0a5d9" x="421.649392" y="131.362098" style="fill: #1f77b4; stroke: #1f77b4"/>
     <use xlink:href="#m7a2ea0a5d9" x="429.583552" y="124.356722" style="fill: #1f77b4; stroke: #1f77b4"/>
     <use xlink:href="#m7a2ea0a5d9" x="437.517711" y="118.354346" style="fill: #1f77b4; stroke: #1f77b4"/>
     <use xlink:href="#m7a2ea0a5d9" x="445.451871" y="113.393585" style="fill: #1f77b4; stroke: #1f77b4"/>
     <use xlink:href="#m7a2ea0a5d9" x="453.38603" y="109.504879" style="fill: #1f77b4; stroke: #1f77b4"/>
     <use xlink:href="#m7a2ea0a5d9" x="461.32019" y="106.711222" style="fill: #1f77b4; stroke: #1f77b4"/>
     <use xlink:href="#m7a2ea0a5d9" x="469.25435" y="105.028691" style="fill: #1f77b4; stroke: #1f77b4"/>
     <use xlink:href="#m7a2ea0a5d9" x="477.188509" y="104.466798" style="fill: #1f77b4; stroke: #1f77b4"/>
    </g>
   </g>
   <g id="line2d_28">
    <path d="M 88.414691 146.407703 
L 96.34885 146.843529 
L 104.28301 148.143288 
L 112.21717 150.28363 
L 120.151329 153.225005 
L 128.085489 156.910651 
L 136.019648 161.265105 
L 143.953808 166.192117 
L 151.887967 171.571811 
L 159.822127 177.25688 
L 167.756286 183.067496 
L 175.690446 188.784422 
L 183.624606 194.13964 
L 191.558765 198.808229 
L 199.492925 202.622624 
L 207.427084 205.696273 
L 215.361244 208.148815 
L 223.295403 210.084219 
L 231.229563 211.592089 
L 239.163722 212.748732 
L 247.097882 213.618055 
L 255.032042 214.252281 
L 262.966201 214.692532 
L 270.900361 214.969272 
L 278.83452 215.102635 
L 286.76868 215.102635 
L 294.702839 214.969272 
L 302.636999 214.692532 
L 310.571158 214.252281 
L 318.505318 213.618055 
L 326.439478 212.748732 
L 334.373637 211.592089 
L 342.307797 210.084219 
L 350.241956 208.148815 
L 358.176116 205.696273 
L 366.110275 202.622624 
L 374.044435 198.808229 
L 381.978594 194.13964 
L 389.912754 188.784422 
L 397.846914 183.067496 
L 405.781073 177.25688 
L 413.715233 171.571811 
L 421.649392 166.192117 
L 429.583552 161.265105 
L 437.517711 156.910651 
L 445.451871 153.225005 
L 453.38603 150.28363 
L 461.32019 148.143288 
L 469.25435 146.843529 
L 477.188509 146.407703 
" clip-path="url(#pf756687fd4)" style="fill: none; stroke: #ff7f0e; stroke-width: 1.5; stroke-linecap: square"/>
    <defs>
     <path id="m9e5da38404" d="M 0 2 
C 0.530406 2 1.03916 1.789267 1.414214 1.414214 
C 1.789267 1.03916 2 0.530406 2 0 
C 2 -0.530406 1.789267 -1.03916 1.414214 -1.414214 
C 1.03916 -1.789267 0.530406 -2 0 -2 
C -0.530406 -2 -1.03916 -1.789267 -1.414214 -1.414214 
C -1.789267 -1.03916 -2 -0.530406 -2 0 
C -2 0.530406 -1.789267 1.03916 -1.414214 1.414214 
C -1.03916 1.789267 -0.530406 2 0 2 
z
" style="stroke: #ff7f0e"/>
    </defs>
    <g clip-path="url(#pf756687fd4)">
     <use xlink:href="#m9e5da38404" x="88.414691" y="146.407703" style="fill: #ff7f0e; stroke: #ff7f0e"/>
     <use xlink:href="#m9e5da38404" x="96.34885" y="146.843529" style="fill: #ff7f0e; stroke: #ff7f0e"/>
     <use xlink:href="#m9e5da38404" x="104.28301" y="148.143288" style="fill: #ff7f0e; stroke: #ff7f0e"/>
     <use xlink:href="#m9e5da38404" x="112.21717" y="150.28363" style="fill: #ff7f0e; stroke: #ff7f0e"/>
     <use xlink:href="#m9e5da38404" x="120.151329" y="153.225005" style="fill: #ff7f0e; stroke: #ff7f0e"/>
     <use xlink:href="#m9e5da38404" x="128.085489" y="156.910651" style="fill: #ff7f0e; stroke: #ff7f0e"/>
     <use xlink:href="#m9e5da38404" x="136.019648" y="161.265105" style="fill: #ff7f0e; stroke: #ff7f0e"/>
     <use xlink:href="#m9e5da38404" x="143.953808" y="166.192117" style="fill: #ff7f0e; stroke: #ff7f0e"/>
     <use xlink:href="#m9e5da38404" x="151.887967" y="171.571811" style="fill: #ff7f0e; stroke: #ff7f0e"/>
     <use xlink:href="#m9e5da38404" x="159.822127" y="177.25688" style="fill: #ff7f0e; stroke: #ff7f0e"/>
     <use xlink:href="#m9e5da38404" x="167.756286" y="183.067496" style="fill: #ff7f0e; stroke: #ff7f0e"/>
     <use xlink:href="#m9e5da38404" x="175.690446" y="188.784422" style="fill: #ff7f0e; stroke: #ff7f0e"/>
     <use xlink:href="#m9e5da38404" x="183.624606" y="194.13964" style="fill: #ff7f0e; stroke: #ff7f0e"/>
     <use xlink:href="#m9e5da38404" x="191.558765" y="198.808229" style="fill: #ff7f0e; stroke: #ff7f0e"/>
     <use xlink:href="#m9e5da38404" x="199.492925" y="202.622624" style="fill: #ff7f0e; stroke: #ff7f0e"/>
     <use xlink:href="#m9e5da38404" x="207.427084" y="205.696273" style="fill: #ff7f0e; stroke: #ff7f0e"/>
     <use xlink:href="#m9e5da38404" x="215.361244" y="208.148815" style="fill: #ff7f0e; stroke: #ff7f0e"/>
     <use xlink:href="#m9e5da38404" x="223.295403" y="210.084219" style="fill: #ff7f0e; stroke: #ff7f0e"/>
     <use xlink:href="#m9e5da38404" x="231.229563" y="211.592089" style="fill: #ff7f0e; stroke: #ff7f0e"/>
     <use xlink:href="#m9e5da38404" x="239.163722" y="212.748732" style="fill: #ff7f0e; stroke: #ff7f0e"/>
     <use xlink:href="#m9e5da38404" x="247.097882" y="213.618055" style="fill: #ff7f0e; stroke: #ff7f0e"/>
     <use xlink:href="#m9e5da38404" x="255.032042" y="214.252281" style="fill: #ff7f0e; stroke: #ff7f0e"/>
     <use xlink:href="#m9e5da38404" x="262.966201" y="214.692532" style="fill: #ff7f0e; stroke: #ff7f0e"/>
     <use xlink:href="#m9e5da38404" x="270.900361" y="214.969272" style="fill: #ff7f0e; stroke: #ff7f0e"/>
     <use xlink:href="#m9e5da38404" x="278.83452" y="215.102635" style="fill: #ff7f0e; stroke: #ff7f0e"/>
     <use xlink:href="#m9e5da38404" x="286.76868" y="215.102635" style="fill: #ff7f0e; stroke: #ff7f0e"/>
     <use xlink:href="#m9e5da38404" x="294.702839" y="214.969272" style="fill: #ff7f0e; stroke: #ff7f0e"/>
     <use xlink:href="#m9e5da38404" x="302.636999" y="214.692532" style="fill: #ff7f0e; stroke: #ff7f0e"/>
     <use xlink:href="#m9e5da38404" x="310.571158" y="214.252281" style="fill: #ff7f0e; stroke: #ff7f0e"/>
     <use xlink:href="#m9e5da38404" x="318.505318" y="213.618055" style="fill: #ff7f0e; stroke: #ff7f0e"/>
     <use xlink:href="#m9e5da38404" x="326.439478" y="212.748732" style="fill: #ff7f0e; stroke: #ff7f0e"/>
     <use xlink:href="#m9e5da38404" x="334.373637" y="211.592089" style="fill: #ff7f0e; stroke: #ff7f0e"/>
     <use xlink:href="#m9e5da38404" x="342.307797" y="210.084219" style="fill: #ff7f0e; stroke: #ff7f0e"/>
     <use xlink:href="#m9e5da38404" x="350.241956" y="208.148815" style="fill: #ff7f0e; stroke: #ff7f0e"/>
     <use xlink:href="#m9e5da38404" x="358.176116" y="205.696273" style="fill: #ff7f0e; stroke: #ff7f0e"/>
     <use xlink:href="#m9e5da38404" x="366.110275" y="202.622624" style="fill: #ff7f0e; stroke: #ff7f0e"/>
     <use xlink:href="#m9e5da38404" x="374.044435" y="198.808229" style="fill: #ff7f0e; stroke: #ff7f0e"/>
     <use xlink:href="#m9e5da38404" x="381.978594" y="194.13964" style="fill: #ff7f0e; stroke: #ff7f0e"/>
     <use xlink:href="#m9e5da38404" x="389.912754" y="188.784422" style="fill: #ff7f0e; stroke: #ff7f0e"/>
     <use xlink:href="#m9e5da38404" x="397.846914" y="183.067496" style="fill: #ff7f0e; stroke: #ff7f0e"/>
     <use xlink:href="#m9e5da38404" x="405.781073" y="177.25688" style="fill: #ff7f0e; stroke: #ff7f0e"/>
     <use xlink:href="#m9e5da38404" x="413.715233" y="171.571811" style="fill: #ff7f0e; stroke: #ff7f0e"/>
     <use xlink:href="#m9e5da38404" x="421.649392" y="166.192117" style="fill: #ff7f0e; stroke: #ff7f0e"/>
     <use xlink:href="#m9e5da38404" x="429.583552" y="161.265105" style="fill: #ff7f0e; stroke: #ff7f0e"/>
     <use xlink:href="#m9e5da38404" x="437.517711" y="156.910651" style="fill: #ff7f0e; stroke: #ff7f0e"/>
     <use xlink:href="#m9e5da38404" x="445.451871" y="153.225005" style="fill: #ff7f0e; stroke: #ff7f0e"/>
     <use xlink:href="#m9e5da38404" x="453.38603" y="150.28363" style="fill: #ff7f0e; stroke: #ff7f0e"/>
     <use xlink:href="#m9e5da38404" x="461.32019" y="148.143288" style="fill: #ff7f0e; stroke: #ff7f0e"/>
     <use xlink:href="#m9e5da38404" x="469.25435" y="146.843529" style="fill: #ff7f0e; stroke: #ff7f0e"/>
     <use xlink:href="#m9e5da38404" x="477.188509" y="146.407703" style="fill: #ff7f0e; stroke: #ff7f0e"/>
    </g>
   </g>
   <g id="line2d_29">
    <path d="M 88.414691 228.140523 
L 96.34885 228.002426 
L 104.28301 227.57492 
L 112.21717 226.818002 
L 120.151329 225.663829 
L 128.085489 224.014865 
L 136.019648 221.741127 
L 143.953808 218.676347 
L 151.887967 214.617102 
L 159.822127 209.533711 
L 167.756286 203.675785 
L 175.690446 197.286105 
L 183.624606 190.579473 
L 191.558765 183.74586 
L 199.492925 176.953031 
L 207.427084 170.348737 
L 215.361244 164.06256 
L 223.295403 158.207451 
L 231.229563 152.881018 
L 239.163722 148.166591 
L 247.097882 144.13411 
L 255.032042 140.840834 
L 262.966201 138.331923 
L 270.900361 136.64087 
L 278.83452 135.78983 
L 286.76868 135.78983 
L 294.702839 136.64087 
L 302.636999 138.331923 
L 310.571158 140.840834 
L 318.505318 144.13411 
L 326.439478 148.166591 
L 334.373637 152.881018 
L 342.307797 158.207451 
L 350.241956 164.06256 
L 358.176116 170.348737 
L 366.110275 176.953031 
L 374.044435 183.74586 
L 381.978594 190.579473 
L 389.912754 197.286105 
L 397.846914 203.675785 
L 405.781073 209.533711 
L 413.715233 214.617102 
L 421.649392 218.676347 
L 429.583552 221.741127 
L 437.517711 224.014865 
L 445.451871 225.663829 
L 453.38603 226.818002 
L 461.32019 227.57492 
L 469.25435 228.002426 
L 477.188509 228.140523 
" clip-path="url(#pf756687fd4)" style="fill: none; stroke: #2ca02c; stroke-width: 1.5; stroke-linecap: square"/>
    <defs>
     <path id="m68b984197f" d="M 0 2 
C 0.530406 2 1.03916 1.789267 1.414214 1.414214 
C 1.789267 1.03916 2 0.530406 2 0 
C 2 -0.530406 1.789267 -1.03916 1.414214 -1.414214 
C 1.03916 -1.789267 0.530406 -2 0 -2 
C -0.530406 -2 -1.03916 -1.789267 -1.414214 -1.414214 
C -1.789267 -1.03916 -2 -0.530406 -2 0 
C -2 0.530406 -1.789267 1.03916 -1.414214 1.414214 
C -1.03916 1.789267 -0.530406 2 0 2 
z
" style="stroke: #2ca02c"/>
    </defs>
    <g clip-path="url(#pf756687fd4)">
     <use xlink:href="#m68b984197f" x="88.414691" y="228.140523" style="fill: #2ca02c; stroke: #2ca02c"/>
     <use xlink:href="#m68b984197f" x="96.34885" y="228.002426" style="fill: #2ca02c; stroke: #2ca02c"/>
     <use xlink:href="#m68b984197f" x="104.28301" y="227.57492" style="fill: #2ca02c; stroke: #2ca02c"/>
     <use xlink:href="#m68b984197f" x="112.21717" y="226.818002" style="fill: #2ca02c; stroke: #2ca02c"/>
     <use xlink:href="#m68b984197f" x="120.151329" y="225.663829" style="fill: #2ca02c; stroke: #2ca02c"/>
     <use xlink:href="#m68b984197f" x="128.085489" y="224.014865" style="fill: #2ca02c; stroke: #2ca02c"/>
     <use xlink:href="#m68b984197f" x="136.019648" y="221.741127" style="fill: #2ca02c; stroke: #2ca02c"/>
     <use xlink:href="#m68b984197f" x="143.953808" y="218.676347" style="fill: #2ca02c; stroke: #2ca02c"/>
     <use xlink:href="#m68b984197f" x="151.887967" y="214.617102" style="fill: #2ca02c; stroke: #2ca02c"/>
     <use xlink:href="#m68b984197f" x="159.822127" y="209.533711" style="fill: #2ca02c; stroke: #2ca02c"/>
     <use xlink:href="#m68b984197f" x="167.756286" y="203.675785" style="fill: #2ca02c; stroke: #2ca02c"/>
     <use xlink:href="#m68b984197f" x="175.690446" y="197.286105" style="fill: #2ca02c; stroke: #2ca02c"/>
     <use xlink:href="#m68b984197f" x="183.624606" y="190.579473" style="fill: #2ca02c; stroke: #2ca02c"/>
     <use xlink:href="#m68b984197f" x="191.558765" y="183.74586" style="fill: #2ca02c; stroke: #2ca02c"/>
     <use xlink:href="#m68b984197f" x="199.492925" y="176.953031" style="fill: #2ca02c; stroke: #2ca02c"/>
     <use xlink:href="#m68b984197f" x="207.427084" y="170.348737" style="fill: #2ca02c; stroke: #2ca02c"/>
     <use xlink:href="#m68b984197f" x="215.361244" y="164.06256" style="fill: #2ca02c; stroke: #2ca02c"/>
     <use xlink:href="#m68b984197f" x="223.295403" y="158.207451" style="fill: #2ca02c; stroke: #2ca02c"/>
     <use xlink:href="#m68b984197f" x="231.229563" y="152.881018" style="fill: #2ca02c; stroke: #2ca02c"/>
     <use xlink:href="#m68b984197f" x="239.163722" y="148.166591" style="fill: #2ca02c; stroke: #2ca02c"/>
     <use xlink:href="#m68b984197f" x="247.097882" y="144.13411" style="fill: #2ca02c; stroke: #2ca02c"/>
     <use xlink:href="#m68b984197f" x="255.032042" y="140.840834" style="fill: #2ca02c; stroke: #2ca02c"/>
     <use xlink:href="#m68b984197f" x="262.966201" y="138.331923" style="fill: #2ca02c; stroke: #2ca02c"/>
     <use xlink:href="#m68b984197f" x="270.900361" y="136.64087" style="fill: #2ca02c; stroke: #2ca02c"/>
     <use xlink:href="#m68b984197f" x="278.83452" y="135.78983" style="fill: #2ca02c; stroke: #2ca02c"/>
     <use xlink:href="#m68b984197f" x="286.76868" y="135.78983" style="fill: #2ca02c; stroke: #2ca02c"/>
     <use xlink:href="#m68b984197f" x="294.702839" y="136.64087" style="fill: #2ca02c; stroke: #2ca02c"/>
     <use xlink:href="#m68b984197f" x="302.636999" y="138.331923" style="fill: #2ca02c; stroke: #2ca02c"/>
     <use xlink:href="#m68b984197f" x="310.571158" y="140.840834" style="fill: #2ca02c; stroke: #2ca02c"/>
     <use xlink:href="#m68b984197f" x="318.505318" y="144.13411" style="fill: #2ca02c; stroke: #2ca02c"/>
     <use xlink:href="#m68b984197f" x="326.439478" y="148.166591" style="fill: #2ca02c; stroke: #2ca02c"/>
     <use xlink:href="#m68b984197f" x="334.373637" y="152.881018" style="fill: #2ca02c; stroke: #2ca02c"/>
     <use xlink:href="#m68b984197f" x="342.307797" y="158.207451" style="fill: #2ca02c; stroke: #2ca02c"/>
     <use xlink:href="#m68b984197f" x="350.241956" y="164.06256" style="fill: #2ca02c; stroke: #2ca02c"/>
     <use xlink:href="#m68b984197f" x="358.176116" y="170.348737" style="fill: #2ca02c; stroke: #2ca02c"/>
     <use xlink:href="#m68b984197f" x="366.110275" y="176.953031" style="fill: #2ca02c; stroke: #2ca02c"/>
     <use xlink:href="#m68b984197f" x="374.044435" y="183.74586" style="fill: #2ca02c; stroke: #2ca02c"/>
     <use xlink:href="#m68b984197f" x="381.978594" y="190.579473" style="fill: #2ca02c; stroke: #2ca02c"/>
     <use xlink:href="#m68b984197f" x="389.912754" y="197.286105" style="fill: #2ca02c; stroke: #2ca02c"/>
     <use xlink:href="#m68b984197f" x="397.846914" y="203.675785" style="fill: #2ca02c; stroke: #2ca02c"/>
     <use xlink:href="#m68b984197f" x="405.781073" y="209.533711" style="fill: #2ca02c; stroke: #2ca02c"/>
     <use xlink:href="#m68b984197f" x="413.715233" y="214.617102" style="fill: #2ca02c; stroke: #2ca02c"/>
     <use xlink:href="#m68b984197f" x="421.649392" y="218.676347" style="fill: #2ca02c; stroke: #2ca02c"/>
     <use xlink:href="#m68b984197f" x="429.583552" y="221.741127" style="fill: #2ca02c; stroke: #2ca02c"/>
     <use xlink:href="#m68b984197f" x="437.517711" y="224.014865" style="fill: #2ca02c; stroke: #2ca02c"/>
     <use xlink:href="#m68b984197f" x="445.451871" y="225.663829" style="fill: #2ca02c; stroke: #2ca02c"/>
     <use xlink:href="#m68b984197f" x="453.38603" y="226.818002" style="fill: #2ca02c; stroke: #2ca02c"/>
     <use xlink:href="#m68b984197f" x="461.32019" y="227.57492" style="fill: #2ca02c; stroke: #2ca02c"/>
     <use xlink:href="#m68b984197f" x="469.25435" y="228.002426" style="fill: #2ca02c; stroke: #2ca02c"/>
     <use xlink:href="#m68b984197f" x="477.188509" y="228.140523" style="fill: #2ca02c; stroke: #2ca02c"/>
    </g>
   </g>
   <g id="line2d_30">
    <path d="M 88.414691 302.73997 
L 96.34885 301.665778 
L 104.28301 298.423734 
L 112.21717 292.954913 
L 120.151329 285.177831 
L 128.085489 275.307596 
L 136.019648 263.802777 
L 143.953808 251.0753 
L 151.887967 237.488113 
L 159.822127 223.361854 
L 167.756286 208.980343 
L 175.690446 194.595119 
L 183.624606 180.429201 
L 191.558765 166.680227 
L 199.492925 153.523063 
L 207.427084 141.112003 
L 215.361244 129.582595 
L 223.295403 119.053178 
L 231.229563 109.626163 
L 239.163722 101.389095 
L 247.097882 94.415531 
L 255.032042 88.765755 
L 262.966201 84.487345 
L 270.900361 81.615615 
L 278.83452 80.173935 
L 286.76868 80.173935 
L 294.702839 81.615615 
L 302.636999 84.487345 
L 310.571158 88.765755 
L 318.505318 94.415531 
L 326.439478 101.389095 
L 334.373637 109.626163 
L 342.307797 119.053178 
L 350.241956 129.582595 
L 358.176116 141.112003 
L 366.110275 153.523063 
L 374.044435 166.680227 
L 381.978594 180.429201 
L 389.912754 194.595119 
L 397.846914 208.980343 
L 405.781073 223.361854 
L 413.715233 237.488113 
L 421.649392 251.0753 
L 429.583552 263.802777 
L 437.517711 275.307596 
L 445.451871 285.177831 
L 453.38603 292.954913 
L 461.32019 298.423734 
L 469.25435 301.665778 
L 477.188509 302.73997 
" clip-path="url(#pf756687fd4)" style="fill: none; stroke: #d62728; stroke-width: 1.5; stroke-linecap: square"/>
    <defs>
     <path id="md2097390db" d="M 0 2 
C 0.530406 2 1.03916 1.789267 1.414214 1.414214 
C 1.789267 1.03916 2 0.530406 2 0 
C 2 -0.530406 1.789267 -1.03916 1.414214 -1.414214 
C 1.03916 -1.789267 0.530406 -2 0 -2 
C -0.530406 -2 -1.03916 -1.789267 -1.414214 -1.414214 
C -1.789267 -1.03916 -2 -0.530406 -2 0 
C -2 0.530406 -1.789267 1.03916 -1.414214 1.414214 
C -1.03916 1.789267 -0.530406 2 0 2 
z
" style="stroke: #d62728"/>
    </defs>
    <g clip-path="url(#pf756687fd4)">
     <use xlink:href="#md2097390db" x="88.414691" y="302.73997" style="fill: #d62728; stroke: #d62728"/>
     <use xlink:href="#md2097390db" x="96.34885" y="301.665778" style="fill: #d62728; stroke: #d62728"/>
     <use xlink:href="#md2097390db" x="104.28301" y="298.423734" style="fill: #d62728; stroke: #d62728"/>
     <use xlink:href="#md2097390db" x="112.21717" y="292.954913" style="fill: #d62728; stroke: #d62728"/>
     <use xlink:href="#md2097390db" x="120.151329" y="285.177831" style="fill: #d62728; stroke: #d62728"/>
     <use xlink:href="#md2097390db" x="128.085489" y="275.307596" style="fill: #d62728; stroke: #d62728"/>
     <use xlink:href="#md2097390db" x="136.019648" y="263.802777" style="fill: #d62728; stroke: #d62728"/>
     <use xlink:href="#md2097390db" x="143.953808" y="251.0753" style="fill: #d62728; stroke: #d62728"/>
     <use xlink:href="#md2097390db" x="151.887967" y="237.488113" style="fill: #d62728; stroke: #d62728"/>
     <use xlink:href="#md2097390db" x="159.822127" y="223.361854" style="fill: #d62728; stroke: #d62728"/>
     <use xlink:href="#md2097390db" x="167.756286" y="208.980343" style="fill: #d62728; stroke: #d62728"/>
     <use xlink:href="#md2097390db" x="175.690446" y="194.595119" style="fill: #d62728; stroke: #d62728"/>
     <use xlink:href="#md2097390db" x="183.624606" y="180.429201" style="fill: #d62728; stroke: #d62728"/>
     <use xlink:href="#md2097390db" x="191.558765" y="166.680227" style="fill: #d62728; stroke: #d62728"/>
     <use xlink:href="#md2097390db" x="199.492925" y="153.523063" style="fill: #d62728; stroke: #d62728"/>
     <use xlink:href="#md2097390db" x="207.427084" y="141.112003" style="fill: #d62728; stroke: #d62728"/>
     <use xlink:href="#md2097390db" x="215.361244" y="129.582595" style="fill: #d62728; stroke: #d62728"/>
     <use xlink:href="#md2097390db" x="223.295403" y="119.053178" style="fill: #d62728; stroke: #d62728"/>
     <use xlink:href="#md2097390db" x="231.229563" y="109.626163" style="fill: #d62728; stroke: #d62728"/>
     <use xlink:href="#md2097390db" x="239.163722" y="101.389095" style="fill: #d62728; stroke: #d62728"/>
     <use xlink:href="#md2097390db" x="247.097882" y="94.415531" style="fill: #d62728; stroke: #d62728"/>
     <use xlink:href="#md2097390db" x="255.032042" y="88.765755" style="fill: #d62728; stroke: #d62728"/>
     <use xlink:href="#md2097390db" x="262.966201" y="84.487345" style="fill: #d62728; stroke: #d62728"/>
     <use xlink:href="#md2097390db" x="270.900361" y="81.615615" style="fill: #d62728; stroke: #d62728"/>
     <use xlink:href="#md2097390db" x="278.83452" y="80.173935" style="fill: #d62728; stroke: #d62728"/>
     <use xlink:href="#md2097390db" x="286.76868" y="80.173935" style="fill: #d62728; stroke: #d62728"/>
     <use xlink:href="#md2097390db" x="294.702839" y="81.615615" style="fill: #d62728; stroke: #d62728"/>
     <use xlink:href="#md2097390db" x="302.636999" y="84.487345" style="fill: #d62728; stroke: #d62728"/>
     <use xlink:href="#md2097390db" x="310.571158" y="88.765755" style="fill: #d62728; stroke: #d62728"/>
     <use xlink:href="#md2097390db" x="318.505318" y="94.415531" style="fill: #d62728; stroke: #d62728"/>
     <use xlink:href="#md2097390db" x="326.439478" y="101.389095" style="fill: #d62728; stroke: #d62728"/>
     <use xlink:href="#md2097390db" x="334.373637" y="109.626163" style="fill: #d62728; stroke: #d62728"/>
     <use xlink:href="#md2097390db" x="342.307797" y="119.053178" style="fill: #d62728; stroke: #d62728"/>
     <use xlink:href="#md2097390db" x="350.241956" y="129.582595" style="fill: #d62728; stroke: #d62728"/>
     <use xlink:href="#md2097390db" x="358.176116" y="141.112003" style="fill: #d62728; stroke: #d62728"/>
     <use xlink:href="#md2097390db" x="366.110275" y="153.523063" style="fill: #d62728; stroke: #d62728"/>
     <use xlink:href="#md2097390db" x="374.044435" y="166.680227" style="fill: #d62728; stroke: #d62728"/>
     <use xlink:href="#md2097390db" x="381.978594" y="180.429201" style="fill: #d62728; stroke: #d62728"/>
     <use xlink:href="#md2097390db" x="389.912754" y="194.595119" style="fill: #d62728; stroke: #d62728"/>
     <use xlink:href="#md2097390db" x="397.846914" y="208.980343" style="fill: #d62728; stroke: #d62728"/>
     <use xlink:href="#md2097390db" x="405.781073" y="223.361854" style="fill: #d62728; stroke: #d62728"/>
     <use xlink:href="#md2097390db" x="413.715233" y="237.488113" style="fill: #d62728; stroke: #d62728"/>
     <use xlink:href="#md2097390db" x="421.649392" y="251.0753" style="fill: #d62728; stroke: #d62728"/>
     <use xlink:href="#md2097390db" x="429.583552" y="263.802777" style="fill: #d62728; stroke: #d62728"/>
     <use xlink:href="#md2097390db" x="437.517711" y="275.307596" style="fill: #d62728; stroke: #d62728"/>
     <use xlink:href="#md2097390db" x="445.451871" y="285.177831" style="fill: #d62728; stroke: #d62728"/>
     <use xlink:href="#md2097390db" x="453.38603" y="292.954913" style="fill: #d62728; stroke: #d62728"/>
     <use xlink:href="#md2097390db" x="461.32019" y="298.423734" style="fill: #d62728; stroke: #d62728"/>
     <use xlink:href="#md2097390db" x="469.25435" y="301.665778" style="fill: #d62728; stroke: #d62728"/>
     <use xlink:href="#md2097390db" x="477.188509" y="302.73997" style="fill: #d62728; stroke: #d62728"/>
    </g>
   </g>
   <g id="line2d_31">
    <path d="M 88.414691 334.39392 
L 96.34885 332.216414 
L 104.28301 326.215808 
L 112.21717 317.107311 
L 120.151329 305.510871 
L 128.085489 291.966673 
L 136.019648 276.947561 
L 143.953808 260.869073 
L 151.887967 244.0976 
L 159.822127 226.957051 
L 167.756286 209.734346 
L 175.690446 192.683941 
L 183.624606 176.031595 
L 191.558765 159.977499 
L 199.492925 144.698891 
L 207.427084 130.352242 
L 215.361244 117.07509 
L 223.295403 104.987571 
L 231.229563 94.193695 
L 239.163722 84.782413 
L 247.097882 76.828488 
L 255.032042 70.393211 
L 262.966201 65.524969 
L 270.900361 62.259681 
L 278.83452 60.62112 
L 286.76868 60.62112 
L 294.702839 62.259681 
L 302.636999 65.524969 
L 310.571158 70.393211 
L 318.505318 76.828488 
L 326.439478 84.782413 
L 334.373637 94.193695 
L 342.307797 104.987571 
L 350.241956 117.07509 
L 358.176116 130.352242 
L 366.110275 144.698891 
L 374.044435 159.977499 
L 381.978594 176.031595 
L 389.912754 192.683941 
L 397.846914 209.734346 
L 405.781073 226.957051 
L 413.715233 244.0976 
L 421.649392 260.869073 
L 429.583552 276.947561 
L 437.517711 291.966673 
L 445.451871 305.510871 
L 453.38603 317.107311 
L 461.32019 326.215808 
L 469.25435 332.216414 
L 477.188509 334.39392 
" clip-path="url(#pf756687fd4)" style="fill: none; stroke: #9467bd; stroke-width: 1.5; stroke-linecap: square"/>
    <defs>
     <path id="m3c7e5e0a1a" d="M 0 2 
C 0.530406 2 1.03916 1.789267 1.414214 1.414214 
C 1.789267 1.03916 2 0.530406 2 0 
C 2 -0.530406 1.789267 -1.03916 1.414214 -1.414214 
C 1.03916 -1.789267 0.530406 -2 0 -2 
C -0.530406 -2 -1.03916 -1.789267 -1.414214 -1.414214 
C -1.789267 -1.03916 -2 -0.530406 -2 0 
C -2 0.530406 -1.789267 1.03916 -1.414214 1.414214 
C -1.03916 1.789267 -0.530406 2 0 2 
z
" style="stroke: #9467bd"/>
    </defs>
    <g clip-path="url(#pf756687fd4)">
     <use xlink:href="#m3c7e5e0a1a" x="88.414691" y="334.39392" style="fill: #9467bd; stroke: #9467bd"/>
     <use xlink:href="#m3c7e5e0a1a" x="96.34885" y="332.216414" style="fill: #9467bd; stroke: #9467bd"/>
     <use xlink:href="#m3c7e5e0a1a" x="104.28301" y="326.215808" style="fill: #9467bd; stroke: #9467bd"/>
     <use xlink:href="#m3c7e5e0a1a" x="112.21717" y="317.107311" style="fill: #9467bd; stroke: #9467bd"/>
     <use xlink:href="#m3c7e5e0a1a" x="120.151329" y="305.510871" style="fill: #9467bd; stroke: #9467bd"/>
     <use xlink:href="#m3c7e5e0a1a" x="128.085489" y="291.966673" style="fill: #9467bd; stroke: #9467bd"/>
     <use xlink:href="#m3c7e5e0a1a" x="136.019648" y="276.947561" style="fill: #9467bd; stroke: #9467bd"/>
     <use xlink:href="#m3c7e5e0a1a" x="143.953808" y="260.869073" style="fill: #9467bd; stroke: #9467bd"/>
     <use xlink:href="#m3c7e5e0a1a" x="151.887967" y="244.0976" style="fill: #9467bd; stroke: #9467bd"/>
     <use xlink:href="#m3c7e5e0a1a" x="159.822127" y="226.957051" style="fill: #9467bd; stroke: #9467bd"/>
     <use xlink:href="#m3c7e5e0a1a" x="167.756286" y="209.734346" style="fill: #9467bd; stroke: #9467bd"/>
     <use xlink:href="#m3c7e5e0a1a" x="175.690446" y="192.683941" style="fill: #9467bd; stroke: #9467bd"/>
     <use xlink:href="#m3c7e5e0a1a" x="183.624606" y="176.031595" style="fill: #9467bd; stroke: #9467bd"/>
     <use xlink:href="#m3c7e5e0a1a" x="191.558765" y="159.977499" style="fill: #9467bd; stroke: #9467bd"/>
     <use xlink:href="#m3c7e5e0a1a" x="199.492925" y="144.698891" style="fill: #9467bd; stroke: #9467bd"/>
     <use xlink:href="#m3c7e5e0a1a" x="207.427084" y="130.352242" style="fill: #9467bd; stroke: #9467bd"/>
     <use xlink:href="#m3c7e5e0a1a" x="215.361244" y="117.07509" style="fill: #9467bd; stroke: #9467bd"/>
     <use xlink:href="#m3c7e5e0a1a" x="223.295403" y="104.987571" style="fill: #9467bd; stroke: #9467bd"/>
     <use xlink:href="#m3c7e5e0a1a" x="231.229563" y="94.193695" style="fill: #9467bd; stroke: #9467bd"/>
     <use xlink:href="#m3c7e5e0a1a" x="239.163722" y="84.782413" style="fill: #9467bd; stroke: #9467bd"/>
     <use xlink:href="#m3c7e5e0a1a" x="247.097882" y="76.828488" style="fill: #9467bd; stroke: #9467bd"/>
     <use xlink:href="#m3c7e5e0a1a" x="255.032042" y="70.393211" style="fill: #9467bd; stroke: #9467bd"/>
     <use xlink:href="#m3c7e5e0a1a" x="262.966201" y="65.524969" style="fill: #9467bd; stroke: #9467bd"/>
     <use xlink:href="#m3c7e5e0a1a" x="270.900361" y="62.259681" style="fill: #9467bd; stroke: #9467bd"/>
     <use xlink:href="#m3c7e5e0a1a" x="278.83452" y="60.62112" style="fill: #9467bd; stroke: #9467bd"/>
     <use xlink:href="#m3c7e5e0a1a" x="286.76868" y="60.62112" style="fill: #9467bd; stroke: #9467bd"/>
     <use xlink:href="#m3c7e5e0a1a" x="294.702839" y="62.259681" style="fill: #9467bd; stroke: #9467bd"/>
     <use xlink:href="#m3c7e5e0a1a" x="302.636999" y="65.524969" style="fill: #9467bd; stroke: #9467bd"/>
     <use xlink:href="#m3c7e5e0a1a" x="310.571158" y="70.393211" style="fill: #9467bd; stroke: #9467bd"/>
     <use xlink:href="#m3c7e5e0a1a" x="318.505318" y="76.828488" style="fill: #9467bd; stroke: #9467bd"/>
     <use xlink:href="#m3c7e5e0a1a" x="326.439478" y="84.782413" style="fill: #9467bd; stroke: #9467bd"/>
     <use xlink:href="#m3c7e5e0a1a" x="334.373637" y="94.193695" style="fill: #9467bd; stroke: #9467bd"/>
     <use xlink:href="#m3c7e5e0a1a" x="342.307797" y="104.987571" style="fill: #9467bd; stroke: #9467bd"/>
     <use xlink:href="#m3c7e5e0a1a" x="350.241956" y="117.07509" style="fill: #9467bd; stroke: #9467bd"/>
     <use xlink:href="#m3c7e5e0a1a" x="358.176116" y="130.352242" style="fill: #9467bd; stroke: #9467bd"/>
     <use xlink:href="#m3c7e5e0a1a" x="366.110275" y="144.698891" style="fill: #9467bd; stroke: #9467bd"/>
     <use xlink:href="#m3c7e5e0a1a" x="374.044435" y="159.977499" style="fill: #9467bd; stroke: #9467bd"/>
     <use xlink:href="#m3c7e5e0a1a" x="381.978594" y="176.031595" style="fill: #9467bd; stroke: #9467bd"/>
     <use xlink:href="#m3c7e5e0a1a" x="389.912754" y="192.683941" style="fill: #9467bd; stroke: #9467bd"/>
     <use xlink:href="#m3c7e5e0a1a" x="397.846914" y="209.734346" style="fill: #9467bd; stroke: #9467bd"/>
     <use xlink:href="#m3c7e5e0a1a" x="405.781073" y="226.957051" style="fill: #9467bd; stroke: #9467bd"/>
     <use xlink:href="#m3c7e5e0a1a" x="413.715233" y="244.0976" style="fill: #9467bd; stroke: #9467bd"/>
     <use xlink:href="#m3c7e5e0a1a" x="421.649392" y="260.869073" style="fill: #9467bd; stroke: #9467bd"/>
     <use xlink:href="#m3c7e5e0a1a" x="429.583552" y="276.947561" style="fill: #9467bd; stroke: #9467bd"/>
     <use xlink:href="#m3c7e5e0a1a" x="437.517711" y="291.966673" style="fill: #9467bd; stroke: #9467bd"/>
     <use xlink:href="#m3c7e5e0a1a" x="445.451871" y="305.510871" style="fill: #9467bd; stroke: #9467bd"/>
     <use xlink:href="#m3c7e5e0a1a" x="453.38603" y="317.107311" style="fill: #9467bd; stroke: #9467bd"/>
     <use xlink:href="#m3c7e5e0a1a" x="461.32019" y="326.215808" style="fill: #9467bd; stroke: #9467bd"/>
     <use xlink:href="#m3c7e5e0a1a" x="469.25435" y="332.216414" style="fill: #9467bd; stroke: #9467bd"/>
     <use xlink:href="#m3c7e5e0a1a" x="477.188509" y="334.39392" style="fill: #9467bd; stroke: #9467bd"/>
    </g>
   </g>
   <g id="patch_3">
    <path d="M 68.976 348.08256 
L 68.976 46.93248 
" style="fill: none; stroke: #000000; stroke-width: 0.8; stroke-linejoin: miter; stroke-linecap: square"/>
   </g>
   <g id="patch_4">
    <path d="M 496.6272 348.08256 
L 496.6272 46.93248 
" style="fill: none; stroke: #000000; stroke-width: 0.8; stroke-linejoin: miter; stroke-linecap: square"/>
   </g>
   <g id="patch_5">
    <path d="M 68.976 348.08256 
L 496.6272 348.08256 
" style="fill: none; stroke: #000000; stroke-width: 0.8; stroke-linejoin: miter; stroke-linecap: square"/>
   </g>
   <g id="patch_6">
    <path d="M 68.976 46.93248 
L 496.6272 46.93248 
" style="fill: none; stroke: #000000; stroke-width: 0.8; stroke-linejoin: miter; stroke-linecap: square"/>
   </g>
   <g id="text_16">
    <!-- Mean-Centered Potential Energy vs. Angle for multiple densities -->
    <g transform="translate(90.750038 40.93248) scale(0.12 -0.12)">
     <defs>
      <path id="DejaVuSans-4d" d="M 628 4666 
L 1569 4666 
L 2759 1491 
L 3956 4666 
L 4897 4666 
L 4897 0 
L 4281 0 
L 4281 4097 
L 3078 897 
L 2444 897 
L 1241 4097 
L 1241 0 
L 628 0 
L 628 4666 
z
" transform="scale(0.015625)"/>
      <path id="DejaVuSans-2d" d="M 313 2009 
L 1997 2009 
L 1997 1497 
L 313 1497 
L 313 2009 
z
" transform="scale(0.015625)"/>
      <path id="DejaVuSans-43" d="M 4122 4306 
L 4122 3641 
Q 3803 3938 3442 4084 
Q 3081 4231 2675 4231 
Q 1875 4231 1450 3742 
Q 1025 3253 1025 2328 
Q 1025 1406 1450 917 
Q 1875 428 2675 428 
Q 3081 428 3442 575 
Q 3803 722 4122 1019 
L 4122 359 
Q 3791 134 3420 21 
Q 3050 -91 2638 -91 
Q 1578 -91 968 557 
Q 359 1206 359 2328 
Q 359 3453 968 4101 
Q 1578 4750 2638 4750 
Q 3056 4750 3426 4639 
Q 3797 4528 4122 4306 
z
" transform="scale(0.015625)"/>
      <path id="DejaVuSans-76" d="M 191 3500 
L 800 3500 
L 1894 563 
L 2988 3500 
L 3597 3500 
L 2284 0 
L 1503 0 
L 191 3500 
z
" transform="scale(0.015625)"/>
      <path id="DejaVuSans-66" d="M 2375 4863 
L 2375 4384 
L 1825 4384 
Q 1516 4384 1395 4259 
Q 1275 4134 1275 3809 
L 1275 3500 
L 2222 3500 
L 2222 3053 
L 1275 3053 
L 1275 0 
L 697 0 
L 697 3053 
L 147 3053 
L 147 3500 
L 697 3500 
L 697 3744 
Q 697 4328 969 4595 
Q 1241 4863 1831 4863 
L 2375 4863 
z
" transform="scale(0.015625)"/>
      <path id="DejaVuSans-75" d="M 544 1381 
L 544 3500 
L 1119 3500 
L 1119 1403 
Q 1119 906 1312 657 
Q 1506 409 1894 409 
Q 2359 409 2629 706 
Q 2900 1003 2900 1516 
L 2900 3500 
L 3475 3500 
L 3475 0 
L 2900 0 
L 2900 538 
Q 2691 219 2414 64 
Q 2138 -91 1772 -91 
Q 1169 -91 856 284 
Q 544 659 544 1381 
z
M 1991 3584 
L 1991 3584 
z
" transform="scale(0.015625)"/>
      <path id="DejaVuSans-70" d="M 1159 525 
L 1159 -1331 
L 581 -1331 
L 581 3500 
L 1159 3500 
L 1159 2969 
Q 1341 3281 1617 3432 
Q 1894 3584 2278 3584 
Q 2916 3584 3314 3078 
Q 3713 2572 3713 1747 
Q 3713 922 3314 415 
Q 2916 -91 2278 -91 
Q 1894 -91 1617 61 
Q 1341 213 1159 525 
z
M 3116 1747 
Q 3116 2381 2855 2742 
Q 2594 3103 2138 3103 
Q 1681 3103 1420 2742 
Q 1159 2381 1159 1747 
Q 1159 1113 1420 752 
Q 1681 391 2138 391 
Q 2594 391 2855 752 
Q 3116 1113 3116 1747 
z
" transform="scale(0.015625)"/>
     </defs>
     <use xlink:href="#DejaVuSans-4d"/>
     <use xlink:href="#DejaVuSans-65" transform="translate(86.279297 0)"/>
     <use xlink:href="#DejaVuSans-61" transform="translate(147.802734 0)"/>
     <use xlink:href="#DejaVuSans-6e" transform="translate(209.082031 0)"/>
     <use xlink:href="#DejaVuSans-2d" transform="translate(272.460938 0)"/>
     <use xlink:href="#DejaVuSans-43" transform="translate(308.544922 0)"/>
     <use xlink:href="#DejaVuSans-65" transform="translate(378.369141 0)"/>
     <use xlink:href="#DejaVuSans-6e" transform="translate(439.892578 0)"/>
     <use xlink:href="#DejaVuSans-74" transform="translate(503.271484 0)"/>
     <use xlink:href="#DejaVuSans-65" transform="translate(542.480469 0)"/>
     <use xlink:href="#DejaVuSans-72" transform="translate(604.003906 0)"/>
     <use xlink:href="#DejaVuSans-65" transform="translate(642.867188 0)"/>
     <use xlink:href="#DejaVuSans-64" transform="translate(704.390625 0)"/>
     <use xlink:href="#DejaVuSans-20" transform="translate(767.867188 0)"/>
     <use xlink:href="#DejaVuSans-50" transform="translate(799.654297 0)"/>
     <use xlink:href="#DejaVuSans-6f" transform="translate(856.332031 0)"/>
     <use xlink:href="#DejaVuSans-74" transform="translate(917.513672 0)"/>
     <use xlink:href="#DejaVuSans-65" transform="translate(956.722656 0)"/>
     <use xlink:href="#DejaVuSans-6e" transform="translate(1018.246094 0)"/>
     <use xlink:href="#DejaVuSans-74" transform="translate(1081.625 0)"/>
     <use xlink:href="#DejaVuSans-69" transform="translate(1120.833984 0)"/>
     <use xlink:href="#DejaVuSans-61" transform="translate(1148.617188 0)"/>
     <use xlink:href="#DejaVuSans-6c" transform="translate(1209.896484 0)"/>
     <use xlink:href="#DejaVuSans-20" transform="translate(1237.679688 0)"/>
     <use xlink:href="#DejaVuSans-45" transform="translate(1269.466797 0)"/>
     <use xlink:href="#DejaVuSans-6e" transform="translate(1332.650391 0)"/>
     <use xlink:href="#DejaVuSans-65" transform="translate(1396.029297 0)"/>
     <use xlink:href="#DejaVuSans-72" transform="translate(1457.552734 0)"/>
     <use xlink:href="#DejaVuSans-67" transform="translate(1496.916016 0)"/>
     <use xlink:href="#DejaVuSans-79" transform="translate(1560.392578 0)"/>
     <use xlink:href="#DejaVuSans-20" transform="translate(1619.572266 0)"/>
     <use xlink:href="#DejaVuSans-76" transform="translate(1651.359375 0)"/>
     <use xlink:href="#DejaVuSans-73" transform="translate(1710.539062 0)"/>
     <use xlink:href="#DejaVuSans-2e" transform="translate(1762.638672 0)"/>
     <use xlink:href="#DejaVuSans-20" transform="translate(1794.425781 0)"/>
     <use xlink:href="#DejaVuSans-41" transform="translate(1826.212891 0)"/>
     <use xlink:href="#DejaVuSans-6e" transform="translate(1894.621094 0)"/>
     <use xlink:href="#DejaVuSans-67" transform="translate(1958 0)"/>
     <use xlink:href="#DejaVuSans-6c" transform="translate(2021.476562 0)"/>
     <use xlink:href="#DejaVuSans-65" transform="translate(2049.259766 0)"/>
     <use xlink:href="#DejaVuSans-20" transform="translate(2110.783203 0)"/>
     <use xlink:href="#DejaVuSans-66" transform="translate(2142.570312 0)"/>
     <use xlink:href="#DejaVuSans-6f" transform="translate(2177.775391 0)"/>
     <use xlink:href="#DejaVuSans-72" transform="translate(2238.957031 0)"/>
     <use xlink:href="#DejaVuSans-20" transform="translate(2280.070312 0)"/>
     <use xlink:href="#DejaVuSans-6d" transform="translate(2311.857422 0)"/>
     <use xlink:href="#DejaVuSans-75" transform="translate(2409.269531 0)"/>
     <use xlink:href="#DejaVuSans-6c" transform="translate(2472.648438 0)"/>
     <use xlink:href="#DejaVuSans-74" transform="translate(2500.431641 0)"/>
     <use xlink:href="#DejaVuSans-69" transform="translate(2539.640625 0)"/>
     <use xlink:href="#DejaVuSans-70" transform="translate(2567.423828 0)"/>
     <use xlink:href="#DejaVuSans-6c" transform="translate(2630.900391 0)"/>
     <use xlink:href="#DejaVuSans-65" transform="translate(2658.683594 0)"/>
     <use xlink:href="#DejaVuSans-20" transform="translate(2720.207031 0)"/>
     <use xlink:href="#DejaVuSans-64" transform="translate(2751.994141 0)"/>
     <use xlink:href="#DejaVuSans-65" transform="translate(2815.470703 0)"/>
     <use xlink:href="#DejaVuSans-6e" transform="translate(2876.994141 0)"/>
     <use xlink:href="#DejaVuSans-73" transform="translate(2940.373047 0)"/>
     <use xlink:href="#DejaVuSans-69" transform="translate(2992.472656 0)"/>
     <use xlink:href="#DejaVuSans-74" transform="translate(3020.255859 0)"/>
     <use xlink:href="#DejaVuSans-69" transform="translate(3059.464844 0)"/>
     <use xlink:href="#DejaVuSans-65" transform="translate(3087.248047 0)"/>
     <use xlink:href="#DejaVuSans-73" transform="translate(3148.771484 0)"/>
    </g>
   </g>
   <g id="legend_1">
    <g id="patch_7">
     <path d="M 441.724075 128.323105 
L 489.6272 128.323105 
Q 491.6272 128.323105 491.6272 126.323105 
L 491.6272 53.93248 
Q 491.6272 51.93248 489.6272 51.93248 
L 441.724075 51.93248 
Q 439.724075 51.93248 439.724075 53.93248 
L 439.724075 126.323105 
Q 439.724075 128.323105 441.724075 128.323105 
z
" style="fill: #ffffff; opacity: 0.8; stroke: #cccccc; stroke-linejoin: miter"/>
    </g>
    <g id="line2d_32">
     <path d="M 443.724075 60.030917 
L 453.724075 60.030917 
L 463.724075 60.030917 
" style="fill: none; stroke: #1f77b4; stroke-width: 1.5; stroke-linecap: square"/>
     <g>
      <use xlink:href="#m7a2ea0a5d9" x="453.724075" y="60.030917" style="fill: #1f77b4; stroke: #1f77b4"/>
     </g>
    </g>
    <g id="text_17">
     <!-- 0.1 -->
     <g transform="translate(471.724075 63.530917) scale(0.1 -0.1)">
      <use xlink:href="#DejaVuSans-30"/>
      <use xlink:href="#DejaVuSans-2e" transform="translate(63.623047 0)"/>
      <use xlink:href="#DejaVuSans-31" transform="translate(95.410156 0)"/>
     </g>
    </g>
    <g id="line2d_33">
     <path d="M 443.724075 74.709043 
L 453.724075 74.709043 
L 463.724075 74.709043 
" style="fill: none; stroke: #ff7f0e; stroke-width: 1.5; stroke-linecap: square"/>
     <g>
      <use xlink:href="#m9e5da38404" x="453.724075" y="74.709043" style="fill: #ff7f0e; stroke: #ff7f0e"/>
     </g>
    </g>
    <g id="text_18">
     <!-- 0.2 -->
     <g transform="translate(471.724075 78.209043) scale(0.1 -0.1)">
      <use xlink:href="#DejaVuSans-30"/>
      <use xlink:href="#DejaVuSans-2e" transform="translate(63.623047 0)"/>
      <use xlink:href="#DejaVuSans-32" transform="translate(95.410156 0)"/>
     </g>
    </g>
    <g id="line2d_34">
     <path d="M 443.724075 89.387167 
L 453.724075 89.387167 
L 463.724075 89.387167 
" style="fill: none; stroke: #2ca02c; stroke-width: 1.5; stroke-linecap: square"/>
     <g>
      <use xlink:href="#m68b984197f" x="453.724075" y="89.387167" style="fill: #2ca02c; stroke: #2ca02c"/>
     </g>
    </g>
    <g id="text_19">
     <!-- 0.3 -->
     <g transform="translate(471.724075 92.887167) scale(0.1 -0.1)">
      <use xlink:href="#DejaVuSans-30"/>
      <use xlink:href="#DejaVuSans-2e" transform="translate(63.623047 0)"/>
      <use xlink:href="#DejaVuSans-33" transform="translate(95.410156 0)"/>
     </g>
    </g>
    <g id="line2d_35">
     <path d="M 443.724075 104.065292 
L 453.724075 104.065292 
L 463.724075 104.065292 
" style="fill: none; stroke: #d62728; stroke-width: 1.5; stroke-linecap: square"/>
     <g>
      <use xlink:href="#md2097390db" x="453.724075" y="104.065292" style="fill: #d62728; stroke: #d62728"/>
     </g>
    </g>
    <g id="text_20">
     <!-- 0.4 -->
     <g transform="translate(471.724075 107.565292) scale(0.1 -0.1)">
      <use xlink:href="#DejaVuSans-30"/>
      <use xlink:href="#DejaVuSans-2e" transform="translate(63.623047 0)"/>
      <use xlink:href="#DejaVuSans-34" transform="translate(95.410156 0)"/>
     </g>
    </g>
    <g id="line2d_36">
     <path d="M 443.724075 118.743417 
L 453.724075 118.743417 
L 463.724075 118.743417 
" style="fill: none; stroke: #9467bd; stroke-width: 1.5; stroke-linecap: square"/>
     <g>
      <use xlink:href="#m3c7e5e0a1a" x="453.724075" y="118.743417" style="fill: #9467bd; stroke: #9467bd"/>
     </g>
    </g>
    <g id="text_21">
     <!-- 0.5 -->
     <g transform="translate(471.724075 122.243417) scale(0.1 -0.1)">
      <defs>
       <path id="DejaVuSans-35" d="M 691 4666 
L 3169 4666 
L 3169 4134 
L 1269 4134 
L 1269 2991 
Q 1406 3038 1543 3061 
Q 1681 3084 1819 3084 
Q 2600 3084 3056 2656 
Q 3513 2228 3513 1497 
Q 3513 744 3044 326 
Q 2575 -91 1722 -91 
Q 1428 -91 1123 -41 
Q 819 9 494 109 
L 494 744 
Q 775 591 1075 516 
Q 1375 441 1709 441 
Q 2250 441 2565 725 
Q 2881 1009 2881 1497 
Q 2881 1984 2565 2268 
Q 2250 2553 1709 2553 
Q 1456 2553 1204 2497 
Q 953 2441 691 2322 
L 691 4666 
z
" transform="scale(0.015625)"/>
      </defs>
      <use xlink:href="#DejaVuSans-30"/>
      <use xlink:href="#DejaVuSans-2e" transform="translate(63.623047 0)"/>
      <use xlink:href="#DejaVuSans-35" transform="translate(95.410156 0)"/>
     </g>
    </g>
   </g>
  </g>
 </g>
 <defs>
  <clipPath id="pf756687fd4">
   <rect x="68.976" y="46.93248" width="427.6512" height="301.15008"/>
  </clipPath>
 </defs>
</svg>
