<?xml version="1.0" encoding="utf-8" standalone="no"?>
<!DOCTYPE svg PUBLIC "-//W3C//DTD SVG 1.1//EN"
  "http://www.w3.org/Graphics/SVG/1.1/DTD/svg11.dtd">
<svg xmlns:xlink="http://www.w3.org/1999/xlink" width="1105.92pt" height="543.168pt" viewBox="0 0 1105.92 543.168" xmlns="http://www.w3.org/2000/svg" version="1.1">
 <metadata>
  <rdf:RDF xmlns:dc="http://purl.org/dc/elements/1.1/" xmlns:cc="http://creativecommons.org/ns#" xmlns:rdf="http://www.w3.org/1999/02/22-rdf-syntax-ns#">
   <cc:Work>
    <dc:type rdf:resource="http://purl.org/dc/dcmitype/StillImage"/>
    <dc:date>2026-05-09T23:32:00.112328</dc:date>
    <dc:format>image/svg+xml</dc:format>
    <dc:creator>
     <cc:Agent>
      <dc:title>Matplotlib v3.10.9, https://matplotlib.org/</dc:title>
     </cc:Agent>
    </dc:creator>
   </cc:Work>
  </rdf:RDF>
 </metadata>
 <defs>
  <style type="text/css">*{stroke-linejoin: round; stroke-linecap: butt}</style>
 </defs>
 <g id="figure_1">
  <g id="patch_1">
   <path d="M 0 543.168 
L 1105.92 543.168 
L 1105.92 0 
L 0 0 
z
" style="fill: #ffffff"/>
  </g>
  <g id="axes_1">
   <g id="patch_2">
    <path d="M 138.24 483.41952 
L 995.328 483.41952 
L 995.328 65.18016 
L 138.24 65.18016 
z
" style="fill: #ffffff"/>
   </g>
   <g id="matplotlib.axis_1">
    <g id="xtick_1">
     <g id="line2d_1">
      <path d="M 220.485818 483.41952 
L 220.485818 65.18016 
" clip-path="url(#p74fc9967ec)" style="fill: none; stroke-dasharray: 1.85,0.8; stroke-dashoffset: 0; stroke: #b0b0b0; stroke-width: 0.5"/>
     </g>
     <g id="line2d_2">
      <defs>
       <path id="m8443454a30" d="M 0 0 
L 0 3.5 
" style="stroke: #000000; stroke-width: 0.8"/>
      </defs>
      <g>
       <use xlink:href="#m8443454a30" x="220.485818" y="483.41952" style="stroke: #000000; stroke-width: 0.8"/>
      </g>
     </g>
     <g id="text_1">
      <!-- −40 -->
      <g transform="translate(209.933474 498.017958) scale(0.1 -0.1)">
       <defs>
        <path id="DejaVuSans-2212" d="M 678 2272 
L 4684 2272 
L 4684 1741 
L 678 1741 
L 678 2272 
z
" transform="scale(0.015625)"/>
        <path id="DejaVuSans-34" d="M 2419 4116 
L 825 1625 
L 2419 1625 
L 2419 4116 
z
M 2253 4666 
L 3047 4666 
L 3047 1625 
L 3713 1625 
L 3713 1100 
L 3047 1100 
L 3047 0 
L 2419 0 
L 2419 1100 
L 313 1100 
L 313 1709 
L 2253 4666 
z
" transform="scale(0.015625)"/>
        <path id="DejaVuSans-30" d="M 2034 4250 
Q 1547 4250 1301 3770 
Q 1056 3291 1056 2328 
Q 1056 1369 1301 889 
Q 1547 409 2034 409 
Q 2525 409 2770 889 
Q 3016 1369 3016 2328 
Q 3016 3291 2770 3770 
Q 2525 4250 2034 4250 
z
M 2034 4750 
Q 2819 4750 3233 4129 
Q 3647 3509 3647 2328 
Q 3647 1150 3233 529 
Q 2819 -91 2034 -91 
Q 1250 -91 836 529 
Q 422 1150 422 2328 
Q 422 3509 836 4129 
Q 1250 4750 2034 4750 
z
" transform="scale(0.015625)"/>
       </defs>
       <use xlink:href="#DejaVuSans-2212"/>
       <use xlink:href="#DejaVuSans-34" transform="translate(83.789062 0)"/>
       <use xlink:href="#DejaVuSans-30" transform="translate(147.412109 0)"/>
      </g>
     </g>
    </g>
    <g id="xtick_2">
     <g id="line2d_3">
      <path d="M 393.634909 483.41952 
L 393.634909 65.18016 
" clip-path="url(#p74fc9967ec)" style="fill: none; stroke-dasharray: 1.85,0.8; stroke-dashoffset: 0; stroke: #b0b0b0; stroke-width: 0.5"/>
     </g>
     <g id="line2d_4">
      <g>
       <use xlink:href="#m8443454a30" x="393.634909" y="483.41952" style="stroke: #000000; stroke-width: 0.8"/>
      </g>
     </g>
     <g id="text_2">
      <!-- −20 -->
      <g transform="translate(383.082565 498.017958) scale(0.1 -0.1)">
       <defs>
        <path id="DejaVuSans-32" d="M 1228 531 
L 3431 531 
L 3431 0 
L 469 0 
L 469 531 
Q 828 903 1448 1529 
Q 2069 2156 2228 2338 
Q 2531 2678 2651 2914 
Q 2772 3150 2772 3378 
Q 2772 3750 2511 3984 
Q 2250 4219 1831 4219 
Q 1534 4219 1204 4116 
Q 875 4013 500 3803 
L 500 4441 
Q 881 4594 1212 4672 
Q 1544 4750 1819 4750 
Q 2544 4750 2975 4387 
Q 3406 4025 3406 3419 
Q 3406 3131 3298 2873 
Q 3191 2616 2906 2266 
Q 2828 2175 2409 1742 
Q 1991 1309 1228 531 
z
" transform="scale(0.015625)"/>
       </defs>
       <use xlink:href="#DejaVuSans-2212"/>
       <use xlink:href="#DejaVuSans-32" transform="translate(83.789062 0)"/>
       <use xlink:href="#DejaVuSans-30" transform="translate(147.412109 0)"/>
      </g>
     </g>
    </g>
    <g id="xtick_3">
     <g id="line2d_5">
      <path d="M 566.784 483.41952 
L 566.784 65.18016 
" clip-path="url(#p74fc9967ec)" style="fill: none; stroke-dasharray: 1.85,0.8; stroke-dashoffset: 0; stroke: #b0b0b0; stroke-width: 0.5"/>
     </g>
     <g id="line2d_6">
      <g>
       <use xlink:href="#m8443454a30" x="566.784" y="483.41952" style="stroke: #000000; stroke-width: 0.8"/>
      </g>
     </g>
     <g id="text_3">
      <!-- 0 -->
      <g transform="translate(563.60275 498.017958) scale(0.1 -0.1)">
       <use xlink:href="#DejaVuSans-30"/>
      </g>
     </g>
    </g>
    <g id="xtick_4">
     <g id="line2d_7">
      <path d="M 739.933091 483.41952 
L 739.933091 65.18016 
" clip-path="url(#p74fc9967ec)" style="fill: none; stroke-dasharray: 1.85,0.8; stroke-dashoffset: 0; stroke: #b0b0b0; stroke-width: 0.5"/>
     </g>
     <g id="line2d_8">
      <g>
       <use xlink:href="#m8443454a30" x="739.933091" y="483.41952" style="stroke: #000000; stroke-width: 0.8"/>
      </g>
     </g>
     <g id="text_4">
      <!-- 20 -->
      <g transform="translate(733.570591 498.017958) scale(0.1 -0.1)">
       <use xlink:href="#DejaVuSans-32"/>
       <use xlink:href="#DejaVuSans-30" transform="translate(63.623047 0)"/>
      </g>
     </g>
    </g>
    <g id="xtick_5">
     <g id="line2d_9">
      <path d="M 913.082182 483.41952 
L 913.082182 65.18016 
" clip-path="url(#p74fc9967ec)" style="fill: none; stroke-dasharray: 1.85,0.8; stroke-dashoffset: 0; stroke: #b0b0b0; stroke-width: 0.5"/>
     </g>
     <g id="line2d_10">
      <g>
       <use xlink:href="#m8443454a30" x="913.082182" y="483.41952" style="stroke: #000000; stroke-width: 0.8"/>
      </g>
     </g>
     <g id="text_5">
      <!-- 40 -->
      <g transform="translate(906.719682 498.017958) scale(0.1 -0.1)">
       <use xlink:href="#DejaVuSans-34"/>
       <use xlink:href="#DejaVuSans-30" transform="translate(63.623047 0)"/>
      </g>
     </g>
    </g>
    <g id="text_6">
     <!-- Angle (degrees) -->
     <g transform="translate(526.938688 511.696082) scale(0.1 -0.1)">
      <defs>
       <path id="DejaVuSans-41" d="M 2188 4044 
L 1331 1722 
L 3047 1722 
L 2188 4044 
z
M 1831 4666 
L 2547 4666 
L 4325 0 
L 3669 0 
L 3244 1197 
L 1141 1197 
L 716 0 
L 50 0 
L 1831 4666 
z
" transform="scale(0.015625)"/>
       <path id="DejaVuSans-6e" d="M 3513 2113 
L 3513 0 
L 2938 0 
L 2938 2094 
Q 2938 2591 2744 2837 
Q 2550 3084 2163 3084 
Q 1697 3084 1428 2787 
Q 1159 2491 1159 1978 
L 1159 0 
L 581 0 
L 581 3500 
L 1159 3500 
L 1159 2956 
Q 1366 3272 1645 3428 
Q 1925 3584 2291 3584 
Q 2894 3584 3203 3211 
Q 3513 2838 3513 2113 
z
" transform="scale(0.015625)"/>
       <path id="DejaVuSans-67" d="M 2906 1791 
Q 2906 2416 2648 2759 
Q 2391 3103 1925 3103 
Q 1463 3103 1205 2759 
Q 947 2416 947 1791 
Q 947 1169 1205 825 
Q 1463 481 1925 481 
Q 2391 481 2648 825 
Q 2906 1169 2906 1791 
z
M 3481 434 
Q 3481 -459 3084 -895 
Q 2688 -1331 1869 -1331 
Q 1566 -1331 1297 -1286 
Q 1028 -1241 775 -1147 
L 775 -588 
Q 1028 -725 1275 -790 
Q 1522 -856 1778 -856 
Q 2344 -856 2625 -561 
Q 2906 -266 2906 331 
L 2906 616 
Q 2728 306 2450 153 
Q 2172 0 1784 0 
Q 1141 0 747 490 
Q 353 981 353 1791 
Q 353 2603 747 3093 
Q 1141 3584 1784 3584 
Q 2172 3584 2450 3431 
Q 2728 3278 2906 2969 
L 2906 3500 
L 3481 3500 
L 3481 434 
z
" transform="scale(0.015625)"/>
       <path id="DejaVuSans-6c" d="M 603 4863 
L 1178 4863 
L 1178 0 
L 603 0 
L 603 4863 
z
" transform="scale(0.015625)"/>
       <path id="DejaVuSans-65" d="M 3597 1894 
L 3597 1613 
L 953 1613 
Q 991 1019 1311 708 
Q 1631 397 2203 397 
Q 2534 397 2845 478 
Q 3156 559 3463 722 
L 3463 178 
Q 3153 47 2828 -22 
Q 2503 -91 2169 -91 
Q 1331 -91 842 396 
Q 353 884 353 1716 
Q 353 2575 817 3079 
Q 1281 3584 2069 3584 
Q 2775 3584 3186 3129 
Q 3597 2675 3597 1894 
z
M 3022 2063 
Q 3016 2534 2758 2815 
Q 2500 3097 2075 3097 
Q 1594 3097 1305 2825 
Q 1016 2553 972 2059 
L 3022 2063 
z
" transform="scale(0.015625)"/>
       <path id="DejaVuSans-20" transform="scale(0.015625)"/>
       <path id="DejaVuSans-28" d="M 1984 4856 
Q 1566 4138 1362 3434 
Q 1159 2731 1159 2009 
Q 1159 1288 1364 580 
Q 1569 -128 1984 -844 
L 1484 -844 
Q 1016 -109 783 600 
Q 550 1309 550 2009 
Q 550 2706 781 3412 
Q 1013 4119 1484 4856 
L 1984 4856 
z
" transform="scale(0.015625)"/>
       <path id="DejaVuSans-64" d="M 2906 2969 
L 2906 4863 
L 3481 4863 
L 3481 0 
L 2906 0 
L 2906 525 
Q 2725 213 2448 61 
Q 2172 -91 1784 -91 
Q 1150 -91 751 415 
Q 353 922 353 1747 
Q 353 2572 751 3078 
Q 1150 3584 1784 3584 
Q 2172 3584 2448 3432 
Q 2725 3281 2906 2969 
z
M 947 1747 
Q 947 1113 1208 752 
Q 1469 391 1925 391 
Q 2381 391 2643 752 
Q 2906 1113 2906 1747 
Q 2906 2381 2643 2742 
Q 2381 3103 1925 3103 
Q 1469 3103 1208 2742 
Q 947 2381 947 1747 
z
" transform="scale(0.015625)"/>
       <path id="DejaVuSans-72" d="M 2631 2963 
Q 2534 3019 2420 3045 
Q 2306 3072 2169 3072 
Q 1681 3072 1420 2755 
Q 1159 2438 1159 1844 
L 1159 0 
L 581 0 
L 581 3500 
L 1159 3500 
L 1159 2956 
Q 1341 3275 1631 3429 
Q 1922 3584 2338 3584 
Q 2397 3584 2469 3576 
Q 2541 3569 2628 3553 
L 2631 2963 
z
" transform="scale(0.015625)"/>
       <path id="DejaVuSans-73" d="M 2834 3397 
L 2834 2853 
Q 2591 2978 2328 3040 
Q 2066 3103 1784 3103 
Q 1356 3103 1142 2972 
Q 928 2841 928 2578 
Q 928 2378 1081 2264 
Q 1234 2150 1697 2047 
L 1894 2003 
Q 2506 1872 2764 1633 
Q 3022 1394 3022 966 
Q 3022 478 2636 193 
Q 2250 -91 1575 -91 
Q 1294 -91 989 -36 
Q 684 19 347 128 
L 347 722 
Q 666 556 975 473 
Q 1284 391 1588 391 
Q 1994 391 2212 530 
Q 2431 669 2431 922 
Q 2431 1156 2273 1281 
Q 2116 1406 1581 1522 
L 1381 1569 
Q 847 1681 609 1914 
Q 372 2147 372 2553 
Q 372 3047 722 3315 
Q 1072 3584 1716 3584 
Q 2034 3584 2315 3537 
Q 2597 3491 2834 3397 
z
" transform="scale(0.015625)"/>
       <path id="DejaVuSans-29" d="M 513 4856 
L 1013 4856 
Q 1481 4119 1714 3412 
Q 1947 2706 1947 2009 
Q 1947 1309 1714 600 
Q 1481 -109 1013 -844 
L 513 -844 
Q 928 -128 1133 580 
Q 1338 1288 1338 2009 
Q 1338 2731 1133 3434 
Q 928 4138 513 4856 
z
" transform="scale(0.015625)"/>
      </defs>
      <use xlink:href="#DejaVuSans-41"/>
      <use xlink:href="#DejaVuSans-6e" transform="translate(68.408203 0)"/>
      <use xlink:href="#DejaVuSans-67" transform="translate(131.787109 0)"/>
      <use xlink:href="#DejaVuSans-6c" transform="translate(195.263672 0)"/>
      <use xlink:href="#DejaVuSans-65" transform="translate(223.046875 0)"/>
      <use xlink:href="#DejaVuSans-20" transform="translate(284.570312 0)"/>
      <use xlink:href="#DejaVuSans-28" transform="translate(316.357422 0)"/>
      <use xlink:href="#DejaVuSans-64" transform="translate(355.371094 0)"/>
      <use xlink:href="#DejaVuSans-65" transform="translate(418.847656 0)"/>
      <use xlink:href="#DejaVuSans-67" transform="translate(480.371094 0)"/>
      <use xlink:href="#DejaVuSans-72" transform="translate(543.847656 0)"/>
      <use xlink:href="#DejaVuSans-65" transform="translate(582.710938 0)"/>
      <use xlink:href="#DejaVuSans-65" transform="translate(644.234375 0)"/>
      <use xlink:href="#DejaVuSans-73" transform="translate(705.757812 0)"/>
      <use xlink:href="#DejaVuSans-29" transform="translate(757.857422 0)"/>
     </g>
    </g>
   </g>
   <g id="matplotlib.axis_2">
    <g id="ytick_1">
     <g id="line2d_11">
      <path d="M 138.24 476.256313 
L 995.328 476.256313 
" clip-path="url(#p74fc9967ec)" style="fill: none; stroke-dasharray: 1.85,0.8; stroke-dashoffset: 0; stroke: #b0b0b0; stroke-width: 0.5"/>
     </g>
     <g id="line2d_12">
      <defs>
       <path id="m024c6cb08a" d="M 0 0 
L -3.5 0 
" style="stroke: #000000; stroke-width: 0.8"/>
      </defs>
      <g>
       <use xlink:href="#m024c6cb08a" x="138.24" y="476.256313" style="stroke: #000000; stroke-width: 0.8"/>
      </g>
     </g>
     <g id="text_7">
      <!-- −0.04 -->
      <g transform="translate(100.594688 480.055531) scale(0.1 -0.1)">
       <defs>
        <path id="DejaVuSans-2e" d="M 684 794 
L 1344 794 
L 1344 0 
L 684 0 
L 684 794 
z
" transform="scale(0.015625)"/>
       </defs>
       <use xlink:href="#DejaVuSans-2212"/>
       <use xlink:href="#DejaVuSans-30" transform="translate(83.789062 0)"/>
       <use xlink:href="#DejaVuSans-2e" transform="translate(147.412109 0)"/>
       <use xlink:href="#DejaVuSans-30" transform="translate(179.199219 0)"/>
       <use xlink:href="#DejaVuSans-34" transform="translate(242.822266 0)"/>
      </g>
     </g>
    </g>
    <g id="ytick_2">
     <g id="line2d_13">
      <path d="M 138.24 421.999903 
L 995.328 421.999903 
" clip-path="url(#p74fc9967ec)" style="fill: none; stroke-dasharray: 1.85,0.8; stroke-dashoffset: 0; stroke: #b0b0b0; stroke-width: 0.5"/>
     </g>
     <g id="line2d_14">
      <g>
       <use xlink:href="#m024c6cb08a" x="138.24" y="421.999903" style="stroke: #000000; stroke-width: 0.8"/>
      </g>
     </g>
     <g id="text_8">
      <!-- −0.03 -->
      <g transform="translate(100.594688 425.799122) scale(0.1 -0.1)">
       <defs>
        <path id="DejaVuSans-33" d="M 2597 2516 
Q 3050 2419 3304 2112 
Q 3559 1806 3559 1356 
Q 3559 666 3084 287 
Q 2609 -91 1734 -91 
Q 1441 -91 1130 -33 
Q 819 25 488 141 
L 488 750 
Q 750 597 1062 519 
Q 1375 441 1716 441 
Q 2309 441 2620 675 
Q 2931 909 2931 1356 
Q 2931 1769 2642 2001 
Q 2353 2234 1838 2234 
L 1294 2234 
L 1294 2753 
L 1863 2753 
Q 2328 2753 2575 2939 
Q 2822 3125 2822 3475 
Q 2822 3834 2567 4026 
Q 2313 4219 1838 4219 
Q 1578 4219 1281 4162 
Q 984 4106 628 3988 
L 628 4550 
Q 988 4650 1302 4700 
Q 1616 4750 1894 4750 
Q 2613 4750 3031 4423 
Q 3450 4097 3450 3541 
Q 3450 3153 3228 2886 
Q 3006 2619 2597 2516 
z
" transform="scale(0.015625)"/>
       </defs>
       <use xlink:href="#DejaVuSans-2212"/>
       <use xlink:href="#DejaVuSans-30" transform="translate(83.789062 0)"/>
       <use xlink:href="#DejaVuSans-2e" transform="translate(147.412109 0)"/>
       <use xlink:href="#DejaVuSans-30" transform="translate(179.199219 0)"/>
       <use xlink:href="#DejaVuSans-33" transform="translate(242.822266 0)"/>
      </g>
     </g>
    </g>
    <g id="ytick_3">
     <g id="line2d_15">
      <path d="M 138.24 367.743493 
L 995.328 367.743493 
" clip-path="url(#p74fc9967ec)" style="fill: none; stroke-dasharray: 1.85,0.8; stroke-dashoffset: 0; stroke: #b0b0b0; stroke-width: 0.5"/>
     </g>
     <g id="line2d_16">
      <g>
       <use xlink:href="#m024c6cb08a" x="138.24" y="367.743493" style="stroke: #000000; stroke-width: 0.8"/>
      </g>
     </g>
     <g id="text_9">
      <!-- −0.02 -->
      <g transform="translate(100.594688 371.542712) scale(0.1 -0.1)">
       <use xlink:href="#DejaVuSans-2212"/>
       <use xlink:href="#DejaVuSans-30" transform="translate(83.789062 0)"/>
       <use xlink:href="#DejaVuSans-2e" transform="translate(147.412109 0)"/>
       <use xlink:href="#DejaVuSans-30" transform="translate(179.199219 0)"/>
       <use xlink:href="#DejaVuSans-32" transform="translate(242.822266 0)"/>
      </g>
     </g>
    </g>
    <g id="ytick_4">
     <g id="line2d_17">
      <path d="M 138.24 313.487084 
L 995.328 313.487084 
" clip-path="url(#p74fc9967ec)" style="fill: none; stroke-dasharray: 1.85,0.8; stroke-dashoffset: 0; stroke: #b0b0b0; stroke-width: 0.5"/>
     </g>
     <g id="line2d_18">
      <g>
       <use xlink:href="#m024c6cb08a" x="138.24" y="313.487084" style="stroke: #000000; stroke-width: 0.8"/>
      </g>
     </g>
     <g id="text_10">
      <!-- −0.01 -->
      <g transform="translate(100.594688 317.286302) scale(0.1 -0.1)">
       <defs>
        <path id="DejaVuSans-31" d="M 794 531 
L 1825 531 
L 1825 4091 
L 703 3866 
L 703 4441 
L 1819 4666 
L 2450 4666 
L 2450 531 
L 3481 531 
L 3481 0 
L 794 0 
L 794 531 
z
" transform="scale(0.015625)"/>
       </defs>
       <use xlink:href="#DejaVuSans-2212"/>
       <use xlink:href="#DejaVuSans-30" transform="translate(83.789062 0)"/>
       <use xlink:href="#DejaVuSans-2e" transform="translate(147.412109 0)"/>
       <use xlink:href="#DejaVuSans-30" transform="translate(179.199219 0)"/>
       <use xlink:href="#DejaVuSans-31" transform="translate(242.822266 0)"/>
      </g>
     </g>
    </g>
    <g id="ytick_5">
     <g id="line2d_19">
      <path d="M 138.24 259.230674 
L 995.328 259.230674 
" clip-path="url(#p74fc9967ec)" style="fill: none; stroke-dasharray: 1.85,0.8; stroke-dashoffset: 0; stroke: #b0b0b0; stroke-width: 0.5"/>
     </g>
     <g id="line2d_20">
      <g>
       <use xlink:href="#m024c6cb08a" x="138.24" y="259.230674" style="stroke: #000000; stroke-width: 0.8"/>
      </g>
     </g>
     <g id="text_11">
      <!-- 0.00 -->
      <g transform="translate(108.974375 263.029893) scale(0.1 -0.1)">
       <use xlink:href="#DejaVuSans-30"/>
       <use xlink:href="#DejaVuSans-2e" transform="translate(63.623047 0)"/>
       <use xlink:href="#DejaVuSans-30" transform="translate(95.410156 0)"/>
       <use xlink:href="#DejaVuSans-30" transform="translate(159.033203 0)"/>
      </g>
     </g>
    </g>
    <g id="ytick_6">
     <g id="line2d_21">
      <path d="M 138.24 204.974264 
L 995.328 204.974264 
" clip-path="url(#p74fc9967ec)" style="fill: none; stroke-dasharray: 1.85,0.8; stroke-dashoffset: 0; stroke: #b0b0b0; stroke-width: 0.5"/>
     </g>
     <g id="line2d_22">
      <g>
       <use xlink:href="#m024c6cb08a" x="138.24" y="204.974264" style="stroke: #000000; stroke-width: 0.8"/>
      </g>
     </g>
     <g id="text_12">
      <!-- 0.01 -->
      <g transform="translate(108.974375 208.773483) scale(0.1 -0.1)">
       <use xlink:href="#DejaVuSans-30"/>
       <use xlink:href="#DejaVuSans-2e" transform="translate(63.623047 0)"/>
       <use xlink:href="#DejaVuSans-30" transform="translate(95.410156 0)"/>
       <use xlink:href="#DejaVuSans-31" transform="translate(159.033203 0)"/>
      </g>
     </g>
    </g>
    <g id="ytick_7">
     <g id="line2d_23">
      <path d="M 138.24 150.717855 
L 995.328 150.717855 
" clip-path="url(#p74fc9967ec)" style="fill: none; stroke-dasharray: 1.85,0.8; stroke-dashoffset: 0; stroke: #b0b0b0; stroke-width: 0.5"/>
     </g>
     <g id="line2d_24">
      <g>
       <use xlink:href="#m024c6cb08a" x="138.24" y="150.717855" style="stroke: #000000; stroke-width: 0.8"/>
      </g>
     </g>
     <g id="text_13">
      <!-- 0.02 -->
      <g transform="translate(108.974375 154.517074) scale(0.1 -0.1)">
       <use xlink:href="#DejaVuSans-30"/>
       <use xlink:href="#DejaVuSans-2e" transform="translate(63.623047 0)"/>
       <use xlink:href="#DejaVuSans-30" transform="translate(95.410156 0)"/>
       <use xlink:href="#DejaVuSans-32" transform="translate(159.033203 0)"/>
      </g>
     </g>
    </g>
    <g id="ytick_8">
     <g id="line2d_25">
      <path d="M 138.24 96.461445 
L 995.328 96.461445 
" clip-path="url(#p74fc9967ec)" style="fill: none; stroke-dasharray: 1.85,0.8; stroke-dashoffset: 0; stroke: #b0b0b0; stroke-width: 0.5"/>
     </g>
     <g id="line2d_26">
      <g>
       <use xlink:href="#m024c6cb08a" x="138.24" y="96.461445" style="stroke: #000000; stroke-width: 0.8"/>
      </g>
     </g>
     <g id="text_14">
      <!-- 0.03 -->
      <g transform="translate(108.974375 100.260664) scale(0.1 -0.1)">
       <use xlink:href="#DejaVuSans-30"/>
       <use xlink:href="#DejaVuSans-2e" transform="translate(63.623047 0)"/>
       <use xlink:href="#DejaVuSans-30" transform="translate(95.410156 0)"/>
       <use xlink:href="#DejaVuSans-33" transform="translate(159.033203 0)"/>
      </g>
     </g>
    </g>
    <g id="text_15">
     <!-- Normalized Potential Energy (J/m) -->
     <g transform="translate(94.515 358.760778) rotate(-90) scale(0.1 -0.1)">
      <defs>
       <path id="DejaVuSans-4e" d="M 628 4666 
L 1478 4666 
L 3547 763 
L 3547 4666 
L 4159 4666 
L 4159 0 
L 3309 0 
L 1241 3903 
L 1241 0 
L 628 0 
L 628 4666 
z
" transform="scale(0.015625)"/>
       <path id="DejaVuSans-6f" d="M 1959 3097 
Q 1497 3097 1228 2736 
Q 959 2375 959 1747 
Q 959 1119 1226 758 
Q 1494 397 1959 397 
Q 2419 397 2687 759 
Q 2956 1122 2956 1747 
Q 2956 2369 2687 2733 
Q 2419 3097 1959 3097 
z
M 1959 3584 
Q 2709 3584 3137 3096 
Q 3566 2609 3566 1747 
Q 3566 888 3137 398 
Q 2709 -91 1959 -91 
Q 1206 -91 779 398 
Q 353 888 353 1747 
Q 353 2609 779 3096 
Q 1206 3584 1959 3584 
z
" transform="scale(0.015625)"/>
       <path id="DejaVuSans-6d" d="M 3328 2828 
Q 3544 3216 3844 3400 
Q 4144 3584 4550 3584 
Q 5097 3584 5394 3201 
Q 5691 2819 5691 2113 
L 5691 0 
L 5113 0 
L 5113 2094 
Q 5113 2597 4934 2840 
Q 4756 3084 4391 3084 
Q 3944 3084 3684 2787 
Q 3425 2491 3425 1978 
L 3425 0 
L 2847 0 
L 2847 2094 
Q 2847 2600 2669 2842 
Q 2491 3084 2119 3084 
Q 1678 3084 1418 2786 
Q 1159 2488 1159 1978 
L 1159 0 
L 581 0 
L 581 3500 
L 1159 3500 
L 1159 2956 
Q 1356 3278 1631 3431 
Q 1906 3584 2284 3584 
Q 2666 3584 2933 3390 
Q 3200 3197 3328 2828 
z
" transform="scale(0.015625)"/>
       <path id="DejaVuSans-61" d="M 2194 1759 
Q 1497 1759 1228 1600 
Q 959 1441 959 1056 
Q 959 750 1161 570 
Q 1363 391 1709 391 
Q 2188 391 2477 730 
Q 2766 1069 2766 1631 
L 2766 1759 
L 2194 1759 
z
M 3341 1997 
L 3341 0 
L 2766 0 
L 2766 531 
Q 2569 213 2275 61 
Q 1981 -91 1556 -91 
Q 1019 -91 701 211 
Q 384 513 384 1019 
Q 384 1609 779 1909 
Q 1175 2209 1959 2209 
L 2766 2209 
L 2766 2266 
Q 2766 2663 2505 2880 
Q 2244 3097 1772 3097 
Q 1472 3097 1187 3025 
Q 903 2953 641 2809 
L 641 3341 
Q 956 3463 1253 3523 
Q 1550 3584 1831 3584 
Q 2591 3584 2966 3190 
Q 3341 2797 3341 1997 
z
" transform="scale(0.015625)"/>
       <path id="DejaVuSans-69" d="M 603 3500 
L 1178 3500 
L 1178 0 
L 603 0 
L 603 3500 
z
M 603 4863 
L 1178 4863 
L 1178 4134 
L 603 4134 
L 603 4863 
z
" transform="scale(0.015625)"/>
       <path id="DejaVuSans-7a" d="M 353 3500 
L 3084 3500 
L 3084 2975 
L 922 459 
L 3084 459 
L 3084 0 
L 275 0 
L 275 525 
L 2438 3041 
L 353 3041 
L 353 3500 
z
" transform="scale(0.015625)"/>
       <path id="DejaVuSans-50" d="M 1259 4147 
L 1259 2394 
L 2053 2394 
Q 2494 2394 2734 2622 
Q 2975 2850 2975 3272 
Q 2975 3691 2734 3919 
Q 2494 4147 2053 4147 
L 1259 4147 
z
M 628 4666 
L 2053 4666 
Q 2838 4666 3239 4311 
Q 3641 3956 3641 3272 
Q 3641 2581 3239 2228 
Q 2838 1875 2053 1875 
L 1259 1875 
L 1259 0 
L 628 0 
L 628 4666 
z
" transform="scale(0.015625)"/>
       <path id="DejaVuSans-74" d="M 1172 4494 
L 1172 3500 
L 2356 3500 
L 2356 3053 
L 1172 3053 
L 1172 1153 
Q 1172 725 1289 603 
Q 1406 481 1766 481 
L 2356 481 
L 2356 0 
L 1766 0 
Q 1100 0 847 248 
Q 594 497 594 1153 
L 594 3053 
L 172 3053 
L 172 3500 
L 594 3500 
L 594 4494 
L 1172 4494 
z
" transform="scale(0.015625)"/>
       <path id="DejaVuSans-45" d="M 628 4666 
L 3578 4666 
L 3578 4134 
L 1259 4134 
L 1259 2753 
L 3481 2753 
L 3481 2222 
L 1259 2222 
L 1259 531 
L 3634 531 
L 3634 0 
L 628 0 
L 628 4666 
z
" transform="scale(0.015625)"/>
       <path id="DejaVuSans-79" d="M 2059 -325 
Q 1816 -950 1584 -1140 
Q 1353 -1331 966 -1331 
L 506 -1331 
L 506 -850 
L 844 -850 
Q 1081 -850 1212 -737 
Q 1344 -625 1503 -206 
L 1606 56 
L 191 3500 
L 800 3500 
L 1894 763 
L 2988 3500 
L 3597 3500 
L 2059 -325 
z
" transform="scale(0.015625)"/>
       <path id="DejaVuSans-4a" d="M 628 4666 
L 1259 4666 
L 1259 325 
Q 1259 -519 939 -900 
Q 619 -1281 -91 -1281 
L -331 -1281 
L -331 -750 
L -134 -750 
Q 284 -750 456 -515 
Q 628 -281 628 325 
L 628 4666 
z
" transform="scale(0.015625)"/>
       <path id="DejaVuSans-2f" d="M 1625 4666 
L 2156 4666 
L 531 -594 
L 0 -594 
L 1625 4666 
z
" transform="scale(0.015625)"/>
      </defs>
      <use xlink:href="#DejaVuSans-4e"/>
      <use xlink:href="#DejaVuSans-6f" transform="translate(74.804688 0)"/>
      <use xlink:href="#DejaVuSans-72" transform="translate(135.986328 0)"/>
      <use xlink:href="#DejaVuSans-6d" transform="translate(175.349609 0)"/>
      <use xlink:href="#DejaVuSans-61" transform="translate(272.761719 0)"/>
      <use xlink:href="#DejaVuSans-6c" transform="translate(334.041016 0)"/>
      <use xlink:href="#DejaVuSans-69" transform="translate(361.824219 0)"/>
      <use xlink:href="#DejaVuSans-7a" transform="translate(389.607422 0)"/>
      <use xlink:href="#DejaVuSans-65" transform="translate(442.097656 0)"/>
      <use xlink:href="#DejaVuSans-64" transform="translate(503.621094 0)"/>
      <use xlink:href="#DejaVuSans-20" transform="translate(567.097656 0)"/>
      <use xlink:href="#DejaVuSans-50" transform="translate(598.884766 0)"/>
      <use xlink:href="#DejaVuSans-6f" transform="translate(655.5625 0)"/>
      <use xlink:href="#DejaVuSans-74" transform="translate(716.744141 0)"/>
      <use xlink:href="#DejaVuSans-65" transform="translate(755.953125 0)"/>
      <use xlink:href="#DejaVuSans-6e" transform="translate(817.476562 0)"/>
      <use xlink:href="#DejaVuSans-74" transform="translate(880.855469 0)"/>
      <use xlink:href="#DejaVuSans-69" transform="translate(920.064453 0)"/>
      <use xlink:href="#DejaVuSans-61" transform="translate(947.847656 0)"/>
      <use xlink:href="#DejaVuSans-6c" transform="translate(1009.126953 0)"/>
      <use xlink:href="#DejaVuSans-20" transform="translate(1036.910156 0)"/>
      <use xlink:href="#DejaVuSans-45" transform="translate(1068.697266 0)"/>
      <use xlink:href="#DejaVuSans-6e" transform="translate(1131.880859 0)"/>
      <use xlink:href="#DejaVuSans-65" transform="translate(1195.259766 0)"/>
      <use xlink:href="#DejaVuSans-72" transform="translate(1256.783203 0)"/>
      <use xlink:href="#DejaVuSans-67" transform="translate(1296.146484 0)"/>
      <use xlink:href="#DejaVuSans-79" transform="translate(1359.623047 0)"/>
      <use xlink:href="#DejaVuSans-20" transform="translate(1418.802734 0)"/>
      <use xlink:href="#DejaVuSans-28" transform="translate(1450.589844 0)"/>
      <use xlink:href="#DejaVuSans-4a" transform="translate(1489.603516 0)"/>
      <use xlink:href="#DejaVuSans-2f" transform="translate(1519.095703 0)"/>
      <use xlink:href="#DejaVuSans-6d" transform="translate(1552.787109 0)"/>
      <use xlink:href="#DejaVuSans-29" transform="translate(1650.199219 0)"/>
     </g>
    </g>
   </g>
   <g id="line2d_27">
    <path d="M 177.198545 145.084228 
L 193.099993 145.864589 
L 209.00144 148.2013 
L 224.902887 152.08115 
L 240.804334 157.481813 
L 256.705781 164.371352 
L 272.607228 172.707495 
L 288.508675 182.43661 
L 304.410122 193.492326 
L 320.31157 205.793666 
L 336.213017 219.24256 
L 352.114464 233.72047 
L 368.015911 249.083803 
L 383.917358 265.157538 
L 399.818805 281.72621 
L 415.720252 298.520806 
L 431.621699 315.199146 
L 447.523147 331.31531 
L 463.424594 346.269715 
L 479.326041 359.283525 
L 495.227488 370.021571 
L 511.128935 378.538746 
L 527.030382 384.884315 
L 542.931829 389.094695 
L 558.833276 391.193914 
L 574.734724 391.193914 
L 590.636171 389.094695 
L 606.537618 384.884315 
L 622.439065 378.538746 
L 638.340512 370.021571 
L 654.241959 359.283525 
L 670.143406 346.269715 
L 686.044853 331.31531 
L 701.946301 315.199146 
L 717.847748 298.520806 
L 733.749195 281.72621 
L 749.650642 265.157538 
L 765.552089 249.083803 
L 781.453536 233.72047 
L 797.354983 219.24256 
L 813.25643 205.793666 
L 829.157878 193.492326 
L 845.059325 182.43661 
L 860.960772 172.707495 
L 876.862219 164.371352 
L 892.763666 157.481813 
L 908.665113 152.08115 
L 924.56656 148.2013 
L 940.468007 145.864589 
L 956.369455 145.084228 
" clip-path="url(#p74fc9967ec)" style="fill: none; stroke: #1f77b4; stroke-width: 1.5; stroke-linecap: square"/>
    <defs>
     <path id="m298fa272c5" d="M 0 2 
C 0.530406 2 1.03916 1.789267 1.414214 1.414214 
C 1.789267 1.03916 2 0.530406 2 0 
C 2 -0.530406 1.789267 -1.03916 1.414214 -1.414214 
C 1.03916 -1.789267 0.530406 -2 0 -2 
C -0.530406 -2 -1.03916 -1.789267 -1.414214 -1.414214 
C -1.789267 -1.03916 -2 -0.530406 -2 0 
C -2 0.530406 -1.789267 1.03916 -1.414214 1.414214 
C -1.03916 1.789267 -0.530406 2 0 2 
z
" style="stroke: #1f77b4"/>
    </defs>
    <g clip-path="url(#p74fc9967ec)">
     <use xlink:href="#m298fa272c5" x="177.198545" y="145.084228" style="fill: #1f77b4; stroke: #1f77b4"/>
     <use xlink:href="#m298fa272c5" x="193.099993" y="145.864589" style="fill: #1f77b4; stroke: #1f77b4"/>
     <use xlink:href="#m298fa272c5" x="209.00144" y="148.2013" style="fill: #1f77b4; stroke: #1f77b4"/>
     <use xlink:href="#m298fa272c5" x="224.902887" y="152.08115" style="fill: #1f77b4; stroke: #1f77b4"/>
     <use xlink:href="#m298fa272c5" x="240.804334" y="157.481813" style="fill: #1f77b4; stroke: #1f77b4"/>
     <use xlink:href="#m298fa272c5" x="256.705781" y="164.371352" style="fill: #1f77b4; stroke: #1f77b4"/>
     <use xlink:href="#m298fa272c5" x="272.607228" y="172.707495" style="fill: #1f77b4; stroke: #1f77b4"/>
     <use xlink:href="#m298fa272c5" x="288.508675" y="182.43661" style="fill: #1f77b4; stroke: #1f77b4"/>
     <use xlink:href="#m298fa272c5" x="304.410122" y="193.492326" style="fill: #1f77b4; stroke: #1f77b4"/>
     <use xlink:href="#m298fa272c5" x="320.31157" y="205.793666" style="fill: #1f77b4; stroke: #1f77b4"/>
     <use xlink:href="#m298fa272c5" x="336.213017" y="219.24256" style="fill: #1f77b4; stroke: #1f77b4"/>
     <use xlink:href="#m298fa272c5" x="352.114464" y="233.72047" style="fill: #1f77b4; stroke: #1f77b4"/>
     <use xlink:href="#m298fa272c5" x="368.015911" y="249.083803" style="fill: #1f77b4; stroke: #1f77b4"/>
     <use xlink:href="#m298fa272c5" x="383.917358" y="265.157538" style="fill: #1f77b4; stroke: #1f77b4"/>
     <use xlink:href="#m298fa272c5" x="399.818805" y="281.72621" style="fill: #1f77b4; stroke: #1f77b4"/>
     <use xlink:href="#m298fa272c5" x="415.720252" y="298.520806" style="fill: #1f77b4; stroke: #1f77b4"/>
     <use xlink:href="#m298fa272c5" x="431.621699" y="315.199146" style="fill: #1f77b4; stroke: #1f77b4"/>
     <use xlink:href="#m298fa272c5" x="447.523147" y="331.31531" style="fill: #1f77b4; stroke: #1f77b4"/>
     <use xlink:href="#m298fa272c5" x="463.424594" y="346.269715" style="fill: #1f77b4; stroke: #1f77b4"/>
     <use xlink:href="#m298fa272c5" x="479.326041" y="359.283525" style="fill: #1f77b4; stroke: #1f77b4"/>
     <use xlink:href="#m298fa272c5" x="495.227488" y="370.021571" style="fill: #1f77b4; stroke: #1f77b4"/>
     <use xlink:href="#m298fa272c5" x="511.128935" y="378.538746" style="fill: #1f77b4; stroke: #1f77b4"/>
     <use xlink:href="#m298fa272c5" x="527.030382" y="384.884315" style="fill: #1f77b4; stroke: #1f77b4"/>
     <use xlink:href="#m298fa272c5" x="542.931829" y="389.094695" style="fill: #1f77b4; stroke: #1f77b4"/>
     <use xlink:href="#m298fa272c5" x="558.833276" y="391.193914" style="fill: #1f77b4; stroke: #1f77b4"/>
     <use xlink:href="#m298fa272c5" x="574.734724" y="391.193914" style="fill: #1f77b4; stroke: #1f77b4"/>
     <use xlink:href="#m298fa272c5" x="590.636171" y="389.094695" style="fill: #1f77b4; stroke: #1f77b4"/>
     <use xlink:href="#m298fa272c5" x="606.537618" y="384.884315" style="fill: #1f77b4; stroke: #1f77b4"/>
     <use xlink:href="#m298fa272c5" x="622.439065" y="378.538746" style="fill: #1f77b4; stroke: #1f77b4"/>
     <use xlink:href="#m298fa272c5" x="638.340512" y="370.021571" style="fill: #1f77b4; stroke: #1f77b4"/>
     <use xlink:href="#m298fa272c5" x="654.241959" y="359.283525" style="fill: #1f77b4; stroke: #1f77b4"/>
     <use xlink:href="#m298fa272c5" x="670.143406" y="346.269715" style="fill: #1f77b4; stroke: #1f77b4"/>
     <use xlink:href="#m298fa272c5" x="686.044853" y="331.31531" style="fill: #1f77b4; stroke: #1f77b4"/>
     <use xlink:href="#m298fa272c5" x="701.946301" y="315.199146" style="fill: #1f77b4; stroke: #1f77b4"/>
     <use xlink:href="#m298fa272c5" x="717.847748" y="298.520806" style="fill: #1f77b4; stroke: #1f77b4"/>
     <use xlink:href="#m298fa272c5" x="733.749195" y="281.72621" style="fill: #1f77b4; stroke: #1f77b4"/>
     <use xlink:href="#m298fa272c5" x="749.650642" y="265.157538" style="fill: #1f77b4; stroke: #1f77b4"/>
     <use xlink:href="#m298fa272c5" x="765.552089" y="249.083803" style="fill: #1f77b4; stroke: #1f77b4"/>
     <use xlink:href="#m298fa272c5" x="781.453536" y="233.72047" style="fill: #1f77b4; stroke: #1f77b4"/>
     <use xlink:href="#m298fa272c5" x="797.354983" y="219.24256" style="fill: #1f77b4; stroke: #1f77b4"/>
     <use xlink:href="#m298fa272c5" x="813.25643" y="205.793666" style="fill: #1f77b4; stroke: #1f77b4"/>
     <use xlink:href="#m298fa272c5" x="829.157878" y="193.492326" style="fill: #1f77b4; stroke: #1f77b4"/>
     <use xlink:href="#m298fa272c5" x="845.059325" y="182.43661" style="fill: #1f77b4; stroke: #1f77b4"/>
     <use xlink:href="#m298fa272c5" x="860.960772" y="172.707495" style="fill: #1f77b4; stroke: #1f77b4"/>
     <use xlink:href="#m298fa272c5" x="876.862219" y="164.371352" style="fill: #1f77b4; stroke: #1f77b4"/>
     <use xlink:href="#m298fa272c5" x="892.763666" y="157.481813" style="fill: #1f77b4; stroke: #1f77b4"/>
     <use xlink:href="#m298fa272c5" x="908.665113" y="152.08115" style="fill: #1f77b4; stroke: #1f77b4"/>
     <use xlink:href="#m298fa272c5" x="924.56656" y="148.2013" style="fill: #1f77b4; stroke: #1f77b4"/>
     <use xlink:href="#m298fa272c5" x="940.468007" y="145.864589" style="fill: #1f77b4; stroke: #1f77b4"/>
     <use xlink:href="#m298fa272c5" x="956.369455" y="145.084228" style="fill: #1f77b4; stroke: #1f77b4"/>
    </g>
   </g>
   <g id="line2d_28">
    <path d="M 177.198545 203.332054 
L 193.099993 203.937331 
L 209.00144 205.742446 
L 224.902887 208.714968 
L 240.804334 212.79997 
L 256.705781 217.918621 
L 272.607228 223.966118 
L 288.508675 230.808788 
L 304.410122 238.280144 
L 320.31157 246.175608 
L 336.213017 254.245432 
L 352.114464 262.185139 
L 368.015911 269.622505 
L 383.917358 276.106274 
L 399.818805 281.403733 
L 415.720252 285.672438 
L 431.621699 289.078545 
L 447.523147 291.766449 
L 463.424594 293.860589 
L 479.326041 295.466943 
L 495.227488 296.674265 
L 511.128935 297.555082 
L 527.030382 298.166506 
L 542.931829 298.550845 
L 558.833276 298.736061 
L 574.734724 298.736061 
L 590.636171 298.550845 
L 606.537618 298.166506 
L 622.439065 297.555082 
L 638.340512 296.674265 
L 654.241959 295.466943 
L 670.143406 293.860589 
L 686.044853 291.766449 
L 701.946301 289.078545 
L 717.847748 285.672438 
L 733.749195 281.403733 
L 749.650642 276.106274 
L 765.552089 269.622505 
L 781.453536 262.185139 
L 797.354983 254.245432 
L 813.25643 246.175608 
L 829.157878 238.280144 
L 845.059325 230.808788 
L 860.960772 223.966118 
L 876.862219 217.918621 
L 892.763666 212.79997 
L 908.665113 208.714968 
L 924.56656 205.742446 
L 940.468007 203.937331 
L 956.369455 203.332054 
" clip-path="url(#p74fc9967ec)" style="fill: none; stroke: #ff7f0e; stroke-width: 1.5; stroke-linecap: square"/>
    <defs>
     <path id="m3a1b7aef91" d="M 0 2 
C 0.530406 2 1.03916 1.789267 1.414214 1.414214 
C 1.789267 1.03916 2 0.530406 2 0 
C 2 -0.530406 1.789267 -1.03916 1.414214 -1.414214 
C 1.03916 -1.789267 0.530406 -2 0 -2 
C -0.530406 -2 -1.03916 -1.789267 -1.414214 -1.414214 
C -1.789267 -1.03916 -2 -0.530406 -2 0 
C -2 0.530406 -1.789267 1.03916 -1.414214 1.414214 
C -1.03916 1.789267 -0.530406 2 0 2 
z
" style="stroke: #ff7f0e"/>
    </defs>
    <g clip-path="url(#p74fc9967ec)">
     <use xlink:href="#m3a1b7aef91" x="177.198545" y="203.332054" style="fill: #ff7f0e; stroke: #ff7f0e"/>
     <use xlink:href="#m3a1b7aef91" x="193.099993" y="203.937331" style="fill: #ff7f0e; stroke: #ff7f0e"/>
     <use xlink:href="#m3a1b7aef91" x="209.00144" y="205.742446" style="fill: #ff7f0e; stroke: #ff7f0e"/>
     <use xlink:href="#m3a1b7aef91" x="224.902887" y="208.714968" style="fill: #ff7f0e; stroke: #ff7f0e"/>
     <use xlink:href="#m3a1b7aef91" x="240.804334" y="212.79997" style="fill: #ff7f0e; stroke: #ff7f0e"/>
     <use xlink:href="#m3a1b7aef91" x="256.705781" y="217.918621" style="fill: #ff7f0e; stroke: #ff7f0e"/>
     <use xlink:href="#m3a1b7aef91" x="272.607228" y="223.966118" style="fill: #ff7f0e; stroke: #ff7f0e"/>
     <use xlink:href="#m3a1b7aef91" x="288.508675" y="230.808788" style="fill: #ff7f0e; stroke: #ff7f0e"/>
     <use xlink:href="#m3a1b7aef91" x="304.410122" y="238.280144" style="fill: #ff7f0e; stroke: #ff7f0e"/>
     <use xlink:href="#m3a1b7aef91" x="320.31157" y="246.175608" style="fill: #ff7f0e; stroke: #ff7f0e"/>
     <use xlink:href="#m3a1b7aef91" x="336.213017" y="254.245432" style="fill: #ff7f0e; stroke: #ff7f0e"/>
     <use xlink:href="#m3a1b7aef91" x="352.114464" y="262.185139" style="fill: #ff7f0e; stroke: #ff7f0e"/>
     <use xlink:href="#m3a1b7aef91" x="368.015911" y="269.622505" style="fill: #ff7f0e; stroke: #ff7f0e"/>
     <use xlink:href="#m3a1b7aef91" x="383.917358" y="276.106274" style="fill: #ff7f0e; stroke: #ff7f0e"/>
     <use xlink:href="#m3a1b7aef91" x="399.818805" y="281.403733" style="fill: #ff7f0e; stroke: #ff7f0e"/>
     <use xlink:href="#m3a1b7aef91" x="415.720252" y="285.672438" style="fill: #ff7f0e; stroke: #ff7f0e"/>
     <use xlink:href="#m3a1b7aef91" x="431.621699" y="289.078545" style="fill: #ff7f0e; stroke: #ff7f0e"/>
     <use xlink:href="#m3a1b7aef91" x="447.523147" y="291.766449" style="fill: #ff7f0e; stroke: #ff7f0e"/>
     <use xlink:href="#m3a1b7aef91" x="463.424594" y="293.860589" style="fill: #ff7f0e; stroke: #ff7f0e"/>
     <use xlink:href="#m3a1b7aef91" x="479.326041" y="295.466943" style="fill: #ff7f0e; stroke: #ff7f0e"/>
     <use xlink:href="#m3a1b7aef91" x="495.227488" y="296.674265" style="fill: #ff7f0e; stroke: #ff7f0e"/>
     <use xlink:href="#m3a1b7aef91" x="511.128935" y="297.555082" style="fill: #ff7f0e; stroke: #ff7f0e"/>
     <use xlink:href="#m3a1b7aef91" x="527.030382" y="298.166506" style="fill: #ff7f0e; stroke: #ff7f0e"/>
     <use xlink:href="#m3a1b7aef91" x="542.931829" y="298.550845" style="fill: #ff7f0e; stroke: #ff7f0e"/>
     <use xlink:href="#m3a1b7aef91" x="558.833276" y="298.736061" style="fill: #ff7f0e; stroke: #ff7f0e"/>
     <use xlink:href="#m3a1b7aef91" x="574.734724" y="298.736061" style="fill: #ff7f0e; stroke: #ff7f0e"/>
     <use xlink:href="#m3a1b7aef91" x="590.636171" y="298.550845" style="fill: #ff7f0e; stroke: #ff7f0e"/>
     <use xlink:href="#m3a1b7aef91" x="606.537618" y="298.166506" style="fill: #ff7f0e; stroke: #ff7f0e"/>
     <use xlink:href="#m3a1b7aef91" x="622.439065" y="297.555082" style="fill: #ff7f0e; stroke: #ff7f0e"/>
     <use xlink:href="#m3a1b7aef91" x="638.340512" y="296.674265" style="fill: #ff7f0e; stroke: #ff7f0e"/>
     <use xlink:href="#m3a1b7aef91" x="654.241959" y="295.466943" style="fill: #ff7f0e; stroke: #ff7f0e"/>
     <use xlink:href="#m3a1b7aef91" x="670.143406" y="293.860589" style="fill: #ff7f0e; stroke: #ff7f0e"/>
     <use xlink:href="#m3a1b7aef91" x="686.044853" y="291.766449" style="fill: #ff7f0e; stroke: #ff7f0e"/>
     <use xlink:href="#m3a1b7aef91" x="701.946301" y="289.078545" style="fill: #ff7f0e; stroke: #ff7f0e"/>
     <use xlink:href="#m3a1b7aef91" x="717.847748" y="285.672438" style="fill: #ff7f0e; stroke: #ff7f0e"/>
     <use xlink:href="#m3a1b7aef91" x="733.749195" y="281.403733" style="fill: #ff7f0e; stroke: #ff7f0e"/>
     <use xlink:href="#m3a1b7aef91" x="749.650642" y="276.106274" style="fill: #ff7f0e; stroke: #ff7f0e"/>
     <use xlink:href="#m3a1b7aef91" x="765.552089" y="269.622505" style="fill: #ff7f0e; stroke: #ff7f0e"/>
     <use xlink:href="#m3a1b7aef91" x="781.453536" y="262.185139" style="fill: #ff7f0e; stroke: #ff7f0e"/>
     <use xlink:href="#m3a1b7aef91" x="797.354983" y="254.245432" style="fill: #ff7f0e; stroke: #ff7f0e"/>
     <use xlink:href="#m3a1b7aef91" x="813.25643" y="246.175608" style="fill: #ff7f0e; stroke: #ff7f0e"/>
     <use xlink:href="#m3a1b7aef91" x="829.157878" y="238.280144" style="fill: #ff7f0e; stroke: #ff7f0e"/>
     <use xlink:href="#m3a1b7aef91" x="845.059325" y="230.808788" style="fill: #ff7f0e; stroke: #ff7f0e"/>
     <use xlink:href="#m3a1b7aef91" x="860.960772" y="223.966118" style="fill: #ff7f0e; stroke: #ff7f0e"/>
     <use xlink:href="#m3a1b7aef91" x="876.862219" y="217.918621" style="fill: #ff7f0e; stroke: #ff7f0e"/>
     <use xlink:href="#m3a1b7aef91" x="892.763666" y="212.79997" style="fill: #ff7f0e; stroke: #ff7f0e"/>
     <use xlink:href="#m3a1b7aef91" x="908.665113" y="208.714968" style="fill: #ff7f0e; stroke: #ff7f0e"/>
     <use xlink:href="#m3a1b7aef91" x="924.56656" y="205.742446" style="fill: #ff7f0e; stroke: #ff7f0e"/>
     <use xlink:href="#m3a1b7aef91" x="940.468007" y="203.937331" style="fill: #ff7f0e; stroke: #ff7f0e"/>
     <use xlink:href="#m3a1b7aef91" x="956.369455" y="203.332054" style="fill: #ff7f0e; stroke: #ff7f0e"/>
    </g>
   </g>
   <g id="line2d_29">
    <path d="M 177.198545 316.843171 
L 193.099993 316.651381 
L 209.00144 316.057657 
L 224.902887 315.006444 
L 240.804334 313.403521 
L 256.705781 311.113428 
L 272.607228 307.955645 
L 288.508675 303.699257 
L 304.410122 298.061749 
L 320.31157 291.0019 
L 336.213017 282.86637 
L 352.114464 273.992337 
L 368.015911 264.67812 
L 383.917358 255.18755 
L 399.818805 245.753621 
L 415.720252 236.581531 
L 431.621699 227.851243 
L 447.523147 219.719626 
L 463.424594 212.322239 
L 479.326041 205.77481 
L 495.227488 200.174471 
L 511.128935 195.600746 
L 527.030382 192.116353 
L 542.931829 189.767807 
L 558.833276 188.585876 
L 574.734724 188.585876 
L 590.636171 189.767807 
L 606.537618 192.116353 
L 622.439065 195.600746 
L 638.340512 200.174471 
L 654.241959 205.77481 
L 670.143406 212.322239 
L 686.044853 219.719626 
L 701.946301 227.851243 
L 717.847748 236.581531 
L 733.749195 245.753621 
L 749.650642 255.18755 
L 765.552089 264.67812 
L 781.453536 273.992337 
L 797.354983 282.86637 
L 813.25643 291.0019 
L 829.157878 298.061749 
L 845.059325 303.699257 
L 860.960772 307.955645 
L 876.862219 311.113428 
L 892.763666 313.403521 
L 908.665113 315.006444 
L 924.56656 316.057657 
L 940.468007 316.651381 
L 956.369455 316.843171 
" clip-path="url(#p74fc9967ec)" style="fill: none; stroke: #2ca02c; stroke-width: 1.5; stroke-linecap: square"/>
    <defs>
     <path id="ma7b0418fc2" d="M 0 2 
C 0.530406 2 1.03916 1.789267 1.414214 1.414214 
C 1.789267 1.03916 2 0.530406 2 0 
C 2 -0.530406 1.789267 -1.03916 1.414214 -1.414214 
C 1.03916 -1.789267 0.530406 -2 0 -2 
C -0.530406 -2 -1.03916 -1.789267 -1.414214 -1.414214 
C -1.789267 -1.03916 -2 -0.530406 -2 0 
C -2 0.530406 -1.789267 1.03916 -1.414214 1.414214 
C -1.03916 1.789267 -0.530406 2 0 2 
z
" style="stroke: #2ca02c"/>
    </defs>
    <g clip-path="url(#p74fc9967ec)">
     <use xlink:href="#ma7b0418fc2" x="177.198545" y="316.843171" style="fill: #2ca02c; stroke: #2ca02c"/>
     <use xlink:href="#ma7b0418fc2" x="193.099993" y="316.651381" style="fill: #2ca02c; stroke: #2ca02c"/>
     <use xlink:href="#ma7b0418fc2" x="209.00144" y="316.057657" style="fill: #2ca02c; stroke: #2ca02c"/>
     <use xlink:href="#ma7b0418fc2" x="224.902887" y="315.006444" style="fill: #2ca02c; stroke: #2ca02c"/>
     <use xlink:href="#ma7b0418fc2" x="240.804334" y="313.403521" style="fill: #2ca02c; stroke: #2ca02c"/>
     <use xlink:href="#ma7b0418fc2" x="256.705781" y="311.113428" style="fill: #2ca02c; stroke: #2ca02c"/>
     <use xlink:href="#ma7b0418fc2" x="272.607228" y="307.955645" style="fill: #2ca02c; stroke: #2ca02c"/>
     <use xlink:href="#ma7b0418fc2" x="288.508675" y="303.699257" style="fill: #2ca02c; stroke: #2ca02c"/>
     <use xlink:href="#ma7b0418fc2" x="304.410122" y="298.061749" style="fill: #2ca02c; stroke: #2ca02c"/>
     <use xlink:href="#ma7b0418fc2" x="320.31157" y="291.0019" style="fill: #2ca02c; stroke: #2ca02c"/>
     <use xlink:href="#ma7b0418fc2" x="336.213017" y="282.86637" style="fill: #2ca02c; stroke: #2ca02c"/>
     <use xlink:href="#ma7b0418fc2" x="352.114464" y="273.992337" style="fill: #2ca02c; stroke: #2ca02c"/>
     <use xlink:href="#ma7b0418fc2" x="368.015911" y="264.67812" style="fill: #2ca02c; stroke: #2ca02c"/>
     <use xlink:href="#ma7b0418fc2" x="383.917358" y="255.18755" style="fill: #2ca02c; stroke: #2ca02c"/>
     <use xlink:href="#ma7b0418fc2" x="399.818805" y="245.753621" style="fill: #2ca02c; stroke: #2ca02c"/>
     <use xlink:href="#ma7b0418fc2" x="415.720252" y="236.581531" style="fill: #2ca02c; stroke: #2ca02c"/>
     <use xlink:href="#ma7b0418fc2" x="431.621699" y="227.851243" style="fill: #2ca02c; stroke: #2ca02c"/>
     <use xlink:href="#ma7b0418fc2" x="447.523147" y="219.719626" style="fill: #2ca02c; stroke: #2ca02c"/>
     <use xlink:href="#ma7b0418fc2" x="463.424594" y="212.322239" style="fill: #2ca02c; stroke: #2ca02c"/>
     <use xlink:href="#ma7b0418fc2" x="479.326041" y="205.77481" style="fill: #2ca02c; stroke: #2ca02c"/>
     <use xlink:href="#ma7b0418fc2" x="495.227488" y="200.174471" style="fill: #2ca02c; stroke: #2ca02c"/>
     <use xlink:href="#ma7b0418fc2" x="511.128935" y="195.600746" style="fill: #2ca02c; stroke: #2ca02c"/>
     <use xlink:href="#ma7b0418fc2" x="527.030382" y="192.116353" style="fill: #2ca02c; stroke: #2ca02c"/>
     <use xlink:href="#ma7b0418fc2" x="542.931829" y="189.767807" style="fill: #2ca02c; stroke: #2ca02c"/>
     <use xlink:href="#ma7b0418fc2" x="558.833276" y="188.585876" style="fill: #2ca02c; stroke: #2ca02c"/>
     <use xlink:href="#ma7b0418fc2" x="574.734724" y="188.585876" style="fill: #2ca02c; stroke: #2ca02c"/>
     <use xlink:href="#ma7b0418fc2" x="590.636171" y="189.767807" style="fill: #2ca02c; stroke: #2ca02c"/>
     <use xlink:href="#ma7b0418fc2" x="606.537618" y="192.116353" style="fill: #2ca02c; stroke: #2ca02c"/>
     <use xlink:href="#ma7b0418fc2" x="622.439065" y="195.600746" style="fill: #2ca02c; stroke: #2ca02c"/>
     <use xlink:href="#ma7b0418fc2" x="638.340512" y="200.174471" style="fill: #2ca02c; stroke: #2ca02c"/>
     <use xlink:href="#ma7b0418fc2" x="654.241959" y="205.77481" style="fill: #2ca02c; stroke: #2ca02c"/>
     <use xlink:href="#ma7b0418fc2" x="670.143406" y="212.322239" style="fill: #2ca02c; stroke: #2ca02c"/>
     <use xlink:href="#ma7b0418fc2" x="686.044853" y="219.719626" style="fill: #2ca02c; stroke: #2ca02c"/>
     <use xlink:href="#ma7b0418fc2" x="701.946301" y="227.851243" style="fill: #2ca02c; stroke: #2ca02c"/>
     <use xlink:href="#ma7b0418fc2" x="717.847748" y="236.581531" style="fill: #2ca02c; stroke: #2ca02c"/>
     <use xlink:href="#ma7b0418fc2" x="733.749195" y="245.753621" style="fill: #2ca02c; stroke: #2ca02c"/>
     <use xlink:href="#ma7b0418fc2" x="749.650642" y="255.18755" style="fill: #2ca02c; stroke: #2ca02c"/>
     <use xlink:href="#ma7b0418fc2" x="765.552089" y="264.67812" style="fill: #2ca02c; stroke: #2ca02c"/>
     <use xlink:href="#ma7b0418fc2" x="781.453536" y="273.992337" style="fill: #2ca02c; stroke: #2ca02c"/>
     <use xlink:href="#ma7b0418fc2" x="797.354983" y="282.86637" style="fill: #2ca02c; stroke: #2ca02c"/>
     <use xlink:href="#ma7b0418fc2" x="813.25643" y="291.0019" style="fill: #2ca02c; stroke: #2ca02c"/>
     <use xlink:href="#ma7b0418fc2" x="829.157878" y="298.061749" style="fill: #2ca02c; stroke: #2ca02c"/>
     <use xlink:href="#ma7b0418fc2" x="845.059325" y="303.699257" style="fill: #2ca02c; stroke: #2ca02c"/>
     <use xlink:href="#ma7b0418fc2" x="860.960772" y="307.955645" style="fill: #2ca02c; stroke: #2ca02c"/>
     <use xlink:href="#ma7b0418fc2" x="876.862219" y="311.113428" style="fill: #2ca02c; stroke: #2ca02c"/>
     <use xlink:href="#ma7b0418fc2" x="892.763666" y="313.403521" style="fill: #2ca02c; stroke: #2ca02c"/>
     <use xlink:href="#ma7b0418fc2" x="908.665113" y="315.006444" style="fill: #2ca02c; stroke: #2ca02c"/>
     <use xlink:href="#ma7b0418fc2" x="924.56656" y="316.057657" style="fill: #2ca02c; stroke: #2ca02c"/>
     <use xlink:href="#ma7b0418fc2" x="940.468007" y="316.651381" style="fill: #2ca02c; stroke: #2ca02c"/>
     <use xlink:href="#ma7b0418fc2" x="956.369455" y="316.843171" style="fill: #2ca02c; stroke: #2ca02c"/>
    </g>
   </g>
   <g id="line2d_30">
    <path d="M 177.198545 420.447411 
L 193.099993 418.955566 
L 209.00144 414.452991 
L 224.902887 406.857854 
L 240.804334 396.056988 
L 256.705781 382.349136 
L 272.607228 366.371161 
L 288.508675 348.695151 
L 304.410122 329.82517 
L 320.31157 310.206522 
L 336.213017 290.233377 
L 352.114464 270.255077 
L 368.015911 250.58135 
L 383.917358 231.486677 
L 399.818805 213.213915 
L 415.720252 195.977347 
L 431.621699 179.965224 
L 447.523147 165.341895 
L 463.424594 152.24959 
L 479.326041 140.809891 
L 495.227488 131.124957 
L 511.128935 123.278508 
L 527.030382 117.336621 
L 542.931829 113.348344 
L 558.833276 111.346128 
L 574.734724 111.346128 
L 590.636171 113.348344 
L 606.537618 117.336621 
L 622.439065 123.278508 
L 638.340512 131.124957 
L 654.241959 140.809891 
L 670.143406 152.24959 
L 686.044853 165.341895 
L 701.946301 179.965224 
L 717.847748 195.977347 
L 733.749195 213.213915 
L 749.650642 231.486677 
L 765.552089 250.58135 
L 781.453536 270.255077 
L 797.354983 290.233377 
L 813.25643 310.206522 
L 829.157878 329.82517 
L 845.059325 348.695151 
L 860.960772 366.371161 
L 876.862219 382.349136 
L 892.763666 396.056988 
L 908.665113 406.857854 
L 924.56656 414.452991 
L 940.468007 418.955566 
L 956.369455 420.447411 
" clip-path="url(#p74fc9967ec)" style="fill: none; stroke: #d62728; stroke-width: 1.5; stroke-linecap: square"/>
    <defs>
     <path id="mc81cbc7769" d="M 0 2 
C 0.530406 2 1.03916 1.789267 1.414214 1.414214 
C 1.789267 1.03916 2 0.530406 2 0 
C 2 -0.530406 1.789267 -1.03916 1.414214 -1.414214 
C 1.03916 -1.789267 0.530406 -2 0 -2 
C -0.530406 -2 -1.03916 -1.789267 -1.414214 -1.414214 
C -1.789267 -1.03916 -2 -0.530406 -2 0 
C -2 0.530406 -1.789267 1.03916 -1.414214 1.414214 
C -1.03916 1.789267 -0.530406 2 0 2 
z
" style="stroke: #d62728"/>
    </defs>
    <g clip-path="url(#p74fc9967ec)">
     <use xlink:href="#mc81cbc7769" x="177.198545" y="420.447411" style="fill: #d62728; stroke: #d62728"/>
     <use xlink:href="#mc81cbc7769" x="193.099993" y="418.955566" style="fill: #d62728; stroke: #d62728"/>
     <use xlink:href="#mc81cbc7769" x="209.00144" y="414.452991" style="fill: #d62728; stroke: #d62728"/>
     <use xlink:href="#mc81cbc7769" x="224.902887" y="406.857854" style="fill: #d62728; stroke: #d62728"/>
     <use xlink:href="#mc81cbc7769" x="240.804334" y="396.056988" style="fill: #d62728; stroke: #d62728"/>
     <use xlink:href="#mc81cbc7769" x="256.705781" y="382.349136" style="fill: #d62728; stroke: #d62728"/>
     <use xlink:href="#mc81cbc7769" x="272.607228" y="366.371161" style="fill: #d62728; stroke: #d62728"/>
     <use xlink:href="#mc81cbc7769" x="288.508675" y="348.695151" style="fill: #d62728; stroke: #d62728"/>
     <use xlink:href="#mc81cbc7769" x="304.410122" y="329.82517" style="fill: #d62728; stroke: #d62728"/>
     <use xlink:href="#mc81cbc7769" x="320.31157" y="310.206522" style="fill: #d62728; stroke: #d62728"/>
     <use xlink:href="#mc81cbc7769" x="336.213017" y="290.233377" style="fill: #d62728; stroke: #d62728"/>
     <use xlink:href="#mc81cbc7769" x="352.114464" y="270.255077" style="fill: #d62728; stroke: #d62728"/>
     <use xlink:href="#mc81cbc7769" x="368.015911" y="250.58135" style="fill: #d62728; stroke: #d62728"/>
     <use xlink:href="#mc81cbc7769" x="383.917358" y="231.486677" style="fill: #d62728; stroke: #d62728"/>
     <use xlink:href="#mc81cbc7769" x="399.818805" y="213.213915" style="fill: #d62728; stroke: #d62728"/>
     <use xlink:href="#mc81cbc7769" x="415.720252" y="195.977347" style="fill: #d62728; stroke: #d62728"/>
     <use xlink:href="#mc81cbc7769" x="431.621699" y="179.965224" style="fill: #d62728; stroke: #d62728"/>
     <use xlink:href="#mc81cbc7769" x="447.523147" y="165.341895" style="fill: #d62728; stroke: #d62728"/>
     <use xlink:href="#mc81cbc7769" x="463.424594" y="152.24959" style="fill: #d62728; stroke: #d62728"/>
     <use xlink:href="#mc81cbc7769" x="479.326041" y="140.809891" style="fill: #d62728; stroke: #d62728"/>
     <use xlink:href="#mc81cbc7769" x="495.227488" y="131.124957" style="fill: #d62728; stroke: #d62728"/>
     <use xlink:href="#mc81cbc7769" x="511.128935" y="123.278508" style="fill: #d62728; stroke: #d62728"/>
     <use xlink:href="#mc81cbc7769" x="527.030382" y="117.336621" style="fill: #d62728; stroke: #d62728"/>
     <use xlink:href="#mc81cbc7769" x="542.931829" y="113.348344" style="fill: #d62728; stroke: #d62728"/>
     <use xlink:href="#mc81cbc7769" x="558.833276" y="111.346128" style="fill: #d62728; stroke: #d62728"/>
     <use xlink:href="#mc81cbc7769" x="574.734724" y="111.346128" style="fill: #d62728; stroke: #d62728"/>
     <use xlink:href="#mc81cbc7769" x="590.636171" y="113.348344" style="fill: #d62728; stroke: #d62728"/>
     <use xlink:href="#mc81cbc7769" x="606.537618" y="117.336621" style="fill: #d62728; stroke: #d62728"/>
     <use xlink:href="#mc81cbc7769" x="622.439065" y="123.278508" style="fill: #d62728; stroke: #d62728"/>
     <use xlink:href="#mc81cbc7769" x="638.340512" y="131.124957" style="fill: #d62728; stroke: #d62728"/>
     <use xlink:href="#mc81cbc7769" x="654.241959" y="140.809891" style="fill: #d62728; stroke: #d62728"/>
     <use xlink:href="#mc81cbc7769" x="670.143406" y="152.24959" style="fill: #d62728; stroke: #d62728"/>
     <use xlink:href="#mc81cbc7769" x="686.044853" y="165.341895" style="fill: #d62728; stroke: #d62728"/>
     <use xlink:href="#mc81cbc7769" x="701.946301" y="179.965224" style="fill: #d62728; stroke: #d62728"/>
     <use xlink:href="#mc81cbc7769" x="717.847748" y="195.977347" style="fill: #d62728; stroke: #d62728"/>
     <use xlink:href="#mc81cbc7769" x="733.749195" y="213.213915" style="fill: #d62728; stroke: #d62728"/>
     <use xlink:href="#mc81cbc7769" x="749.650642" y="231.486677" style="fill: #d62728; stroke: #d62728"/>
     <use xlink:href="#mc81cbc7769" x="765.552089" y="250.58135" style="fill: #d62728; stroke: #d62728"/>
     <use xlink:href="#mc81cbc7769" x="781.453536" y="270.255077" style="fill: #d62728; stroke: #d62728"/>
     <use xlink:href="#mc81cbc7769" x="797.354983" y="290.233377" style="fill: #d62728; stroke: #d62728"/>
     <use xlink:href="#mc81cbc7769" x="813.25643" y="310.206522" style="fill: #d62728; stroke: #d62728"/>
     <use xlink:href="#mc81cbc7769" x="829.157878" y="329.82517" style="fill: #d62728; stroke: #d62728"/>
     <use xlink:href="#mc81cbc7769" x="845.059325" y="348.695151" style="fill: #d62728; stroke: #d62728"/>
     <use xlink:href="#mc81cbc7769" x="860.960772" y="366.371161" style="fill: #d62728; stroke: #d62728"/>
     <use xlink:href="#mc81cbc7769" x="876.862219" y="382.349136" style="fill: #d62728; stroke: #d62728"/>
     <use xlink:href="#mc81cbc7769" x="892.763666" y="396.056988" style="fill: #d62728; stroke: #d62728"/>
     <use xlink:href="#mc81cbc7769" x="908.665113" y="406.857854" style="fill: #d62728; stroke: #d62728"/>
     <use xlink:href="#mc81cbc7769" x="924.56656" y="414.452991" style="fill: #d62728; stroke: #d62728"/>
     <use xlink:href="#mc81cbc7769" x="940.468007" y="418.955566" style="fill: #d62728; stroke: #d62728"/>
     <use xlink:href="#mc81cbc7769" x="956.369455" y="420.447411" style="fill: #d62728; stroke: #d62728"/>
    </g>
   </g>
   <g id="line2d_31">
    <path d="M 177.198545 464.40864 
L 193.099993 461.384504 
L 209.00144 453.05082 
L 224.902887 440.400875 
L 240.804334 424.295658 
L 256.705781 405.48538 
L 272.607228 384.626731 
L 288.508675 362.296813 
L 304.410122 339.004472 
L 320.31157 315.199557 
L 336.213017 291.280542 
L 352.114464 267.600819 
L 368.015911 244.473924 
L 383.917358 222.177882 
L 399.818805 200.958842 
L 415.720252 181.034115 
L 431.621699 162.594712 
L 447.523147 145.80748 
L 463.424594 130.816869 
L 479.326041 117.746414 
L 495.227488 106.699947 
L 511.128935 97.76259 
L 527.030382 91.001541 
L 542.931829 86.466686 
L 558.833276 84.19104 
L 574.734724 84.19104 
L 590.636171 86.466686 
L 606.537618 91.001541 
L 622.439065 97.76259 
L 638.340512 106.699947 
L 654.241959 117.746414 
L 670.143406 130.816869 
L 686.044853 145.80748 
L 701.946301 162.594712 
L 717.847748 181.034115 
L 733.749195 200.958842 
L 749.650642 222.177882 
L 765.552089 244.473924 
L 781.453536 267.600819 
L 797.354983 291.280542 
L 813.25643 315.199557 
L 829.157878 339.004472 
L 845.059325 362.296813 
L 860.960772 384.626731 
L 876.862219 405.48538 
L 892.763666 424.295658 
L 908.665113 440.400875 
L 924.56656 453.05082 
L 940.468007 461.384504 
L 956.369455 464.40864 
" clip-path="url(#p74fc9967ec)" style="fill: none; stroke: #9467bd; stroke-width: 1.5; stroke-linecap: square"/>
    <defs>
     <path id="m8fb06d7d6b" d="M 0 2 
C 0.530406 2 1.03916 1.789267 1.414214 1.414214 
C 1.789267 1.03916 2 0.530406 2 0 
C 2 -0.530406 1.789267 -1.03916 1.414214 -1.414214 
C 1.03916 -1.789267 0.530406 -2 0 -2 
C -0.530406 -2 -1.03916 -1.789267 -1.414214 -1.414214 
C -1.789267 -1.03916 -2 -0.530406 -2 0 
C -2 0.530406 -1.789267 1.03916 -1.414214 1.414214 
C -1.03916 1.789267 -0.530406 2 0 2 
z
" style="stroke: #9467bd"/>
    </defs>
    <g clip-path="url(#p74fc9967ec)">
     <use xlink:href="#m8fb06d7d6b" x="177.198545" y="464.40864" style="fill: #9467bd; stroke: #9467bd"/>
     <use xlink:href="#m8fb06d7d6b" x="193.099993" y="461.384504" style="fill: #9467bd; stroke: #9467bd"/>
     <use xlink:href="#m8fb06d7d6b" x="209.00144" y="453.05082" style="fill: #9467bd; stroke: #9467bd"/>
     <use xlink:href="#m8fb06d7d6b" x="224.902887" y="440.400875" style="fill: #9467bd; stroke: #9467bd"/>
     <use xlink:href="#m8fb06d7d6b" x="240.804334" y="424.295658" style="fill: #9467bd; stroke: #9467bd"/>
     <use xlink:href="#m8fb06d7d6b" x="256.705781" y="405.48538" style="fill: #9467bd; stroke: #9467bd"/>
     <use xlink:href="#m8fb06d7d6b" x="272.607228" y="384.626731" style="fill: #9467bd; stroke: #9467bd"/>
     <use xlink:href="#m8fb06d7d6b" x="288.508675" y="362.296813" style="fill: #9467bd; stroke: #9467bd"/>
     <use xlink:href="#m8fb06d7d6b" x="304.410122" y="339.004472" style="fill: #9467bd; stroke: #9467bd"/>
     <use xlink:href="#m8fb06d7d6b" x="320.31157" y="315.199557" style="fill: #9467bd; stroke: #9467bd"/>
     <use xlink:href="#m8fb06d7d6b" x="336.213017" y="291.280542" style="fill: #9467bd; stroke: #9467bd"/>
     <use xlink:href="#m8fb06d7d6b" x="352.114464" y="267.600819" style="fill: #9467bd; stroke: #9467bd"/>
     <use xlink:href="#m8fb06d7d6b" x="368.015911" y="244.473924" style="fill: #9467bd; stroke: #9467bd"/>
     <use xlink:href="#m8fb06d7d6b" x="383.917358" y="222.177882" style="fill: #9467bd; stroke: #9467bd"/>
     <use xlink:href="#m8fb06d7d6b" x="399.818805" y="200.958842" style="fill: #9467bd; stroke: #9467bd"/>
     <use xlink:href="#m8fb06d7d6b" x="415.720252" y="181.034115" style="fill: #9467bd; stroke: #9467bd"/>
     <use xlink:href="#m8fb06d7d6b" x="431.621699" y="162.594712" style="fill: #9467bd; stroke: #9467bd"/>
     <use xlink:href="#m8fb06d7d6b" x="447.523147" y="145.80748" style="fill: #9467bd; stroke: #9467bd"/>
     <use xlink:href="#m8fb06d7d6b" x="463.424594" y="130.816869" style="fill: #9467bd; stroke: #9467bd"/>
     <use xlink:href="#m8fb06d7d6b" x="479.326041" y="117.746414" style="fill: #9467bd; stroke: #9467bd"/>
     <use xlink:href="#m8fb06d7d6b" x="495.227488" y="106.699947" style="fill: #9467bd; stroke: #9467bd"/>
     <use xlink:href="#m8fb06d7d6b" x="511.128935" y="97.76259" style="fill: #9467bd; stroke: #9467bd"/>
     <use xlink:href="#m8fb06d7d6b" x="527.030382" y="91.001541" style="fill: #9467bd; stroke: #9467bd"/>
     <use xlink:href="#m8fb06d7d6b" x="542.931829" y="86.466686" style="fill: #9467bd; stroke: #9467bd"/>
     <use xlink:href="#m8fb06d7d6b" x="558.833276" y="84.19104" style="fill: #9467bd; stroke: #9467bd"/>
     <use xlink:href="#m8fb06d7d6b" x="574.734724" y="84.19104" style="fill: #9467bd; stroke: #9467bd"/>
     <use xlink:href="#m8fb06d7d6b" x="590.636171" y="86.466686" style="fill: #9467bd; stroke: #9467bd"/>
     <use xlink:href="#m8fb06d7d6b" x="606.537618" y="91.001541" style="fill: #9467bd; stroke: #9467bd"/>
     <use xlink:href="#m8fb06d7d6b" x="622.439065" y="97.76259" style="fill: #9467bd; stroke: #9467bd"/>
     <use xlink:href="#m8fb06d7d6b" x="638.340512" y="106.699947" style="fill: #9467bd; stroke: #9467bd"/>
     <use xlink:href="#m8fb06d7d6b" x="654.241959" y="117.746414" style="fill: #9467bd; stroke: #9467bd"/>
     <use xlink:href="#m8fb06d7d6b" x="670.143406" y="130.816869" style="fill: #9467bd; stroke: #9467bd"/>
     <use xlink:href="#m8fb06d7d6b" x="686.044853" y="145.80748" style="fill: #9467bd; stroke: #9467bd"/>
     <use xlink:href="#m8fb06d7d6b" x="701.946301" y="162.594712" style="fill: #9467bd; stroke: #9467bd"/>
     <use xlink:href="#m8fb06d7d6b" x="717.847748" y="181.034115" style="fill: #9467bd; stroke: #9467bd"/>
     <use xlink:href="#m8fb06d7d6b" x="733.749195" y="200.958842" style="fill: #9467bd; stroke: #9467bd"/>
     <use xlink:href="#m8fb06d7d6b" x="749.650642" y="222.177882" style="fill: #9467bd; stroke: #9467bd"/>
     <use xlink:href="#m8fb06d7d6b" x="765.552089" y="244.473924" style="fill: #9467bd; stroke: #9467bd"/>
     <use xlink:href="#m8fb06d7d6b" x="781.453536" y="267.600819" style="fill: #9467bd; stroke: #9467bd"/>
     <use xlink:href="#m8fb06d7d6b" x="797.354983" y="291.280542" style="fill: #9467bd; stroke: #9467bd"/>
     <use xlink:href="#m8fb06d7d6b" x="813.25643" y="315.199557" style="fill: #9467bd; stroke: #9467bd"/>
     <use xlink:href="#m8fb06d7d6b" x="829.157878" y="339.004472" style="fill: #9467bd; stroke: #9467bd"/>
     <use xlink:href="#m8fb06d7d6b" x="845.059325" y="362.296813" style="fill: #9467bd; stroke: #9467bd"/>
     <use xlink:href="#m8fb06d7d6b" x="860.960772" y="384.626731" style="fill: #9467bd; stroke: #9467bd"/>
     <use xlink:href="#m8fb06d7d6b" x="876.862219" y="405.48538" style="fill: #9467bd; stroke: #9467bd"/>
     <use xlink:href="#m8fb06d7d6b" x="892.763666" y="424.295658" style="fill: #9467bd; stroke: #9467bd"/>
     <use xlink:href="#m8fb06d7d6b" x="908.665113" y="440.400875" style="fill: #9467bd; stroke: #9467bd"/>
     <use xlink:href="#m8fb06d7d6b" x="924.56656" y="453.05082" style="fill: #9467bd; stroke: #9467bd"/>
     <use xlink:href="#m8fb06d7d6b" x="940.468007" y="461.384504" style="fill: #9467bd; stroke: #9467bd"/>
     <use xlink:href="#m8fb06d7d6b" x="956.369455" y="464.40864" style="fill: #9467bd; stroke: #9467bd"/>
    </g>
   </g>
   <g id="patch_3">
    <path d="M 138.24 483.41952 
L 138.24 65.18016 
" style="fill: none; stroke: #000000; stroke-width: 0.8; stroke-linejoin: miter; stroke-linecap: square"/>
   </g>
   <g id="patch_4">
    <path d="M 995.328 483.41952 
L 995.328 65.18016 
" style="fill: none; stroke: #000000; stroke-width: 0.8; stroke-linejoin: miter; stroke-linecap: square"/>
   </g>
   <g id="patch_5">
    <path d="M 138.24 483.41952 
L 995.328 483.41952 
" style="fill: none; stroke: #000000; stroke-width: 0.8; stroke-linejoin: miter; stroke-linecap: square"/>
   </g>
   <g id="patch_6">
    <path d="M 138.24 65.18016 
L 995.328 65.18016 
" style="fill: none; stroke: #000000; stroke-width: 0.8; stroke-linejoin: miter; stroke-linecap: square"/>
   </g>
   <g id="text_16">
    <!-- Mean-Centered Potential Energy vs. Angle for multiple densities -->
    <g transform="translate(374.732438 59.18016) scale(0.12 -0.12)">
     <defs>
      <path id="DejaVuSans-4d" d="M 628 4666 
L 1569 4666 
L 2759 1491 
L 3956 4666 
L 4897 4666 
L 4897 0 
L 4281 0 
L 4281 4097 
L 3078 897 
L 2444 897 
L 1241 4097 
L 1241 0 
L 628 0 
L 628 4666 
z
" transform="scale(0.015625)"/>
      <path id="DejaVuSans-2d" d="M 313 2009 
L 1997 2009 
L 1997 1497 
L 313 1497 
L 313 2009 
z
" transform="scale(0.015625)"/>
      <path id="DejaVuSans-43" d="M 4122 4306 
L 4122 3641 
Q 3803 3938 3442 4084 
Q 3081 4231 2675 4231 
Q 1875 4231 1450 3742 
Q 1025 3253 1025 2328 
Q 1025 1406 1450 917 
Q 1875 428 2675 428 
Q 3081 428 3442 575 
Q 3803 722 4122 1019 
L 4122 359 
Q 3791 134 3420 21 
Q 3050 -91 2638 -91 
Q 1578 -91 968 557 
Q 359 1206 359 2328 
Q 359 3453 968 4101 
Q 1578 4750 2638 4750 
Q 3056 4750 3426 4639 
Q 3797 4528 4122 4306 
z
" transform="scale(0.015625)"/>
      <path id="DejaVuSans-76" d="M 191 3500 
L 800 3500 
L 1894 563 
L 2988 3500 
L 3597 3500 
L 2284 0 
L 1503 0 
L 191 3500 
z
" transform="scale(0.015625)"/>
      <path id="DejaVuSans-66" d="M 2375 4863 
L 2375 4384 
L 1825 4384 
Q 1516 4384 1395 4259 
Q 1275 4134 1275 3809 
L 1275 3500 
L 2222 3500 
L 2222 3053 
L 1275 3053 
L 1275 0 
L 697 0 
L 697 3053 
L 147 3053 
L 147 3500 
L 697 3500 
L 697 3744 
Q 697 4328 969 4595 
Q 1241 4863 1831 4863 
L 2375 4863 
z
" transform="scale(0.015625)"/>
      <path id="DejaVuSans-75" d="M 544 1381 
L 544 3500 
L 1119 3500 
L 1119 1403 
Q 1119 906 1312 657 
Q 1506 409 1894 409 
Q 2359 409 2629 706 
Q 2900 1003 2900 1516 
L 2900 3500 
L 3475 3500 
L 3475 0 
L 2900 0 
L 2900 538 
Q 2691 219 2414 64 
Q 2138 -91 1772 -91 
Q 1169 -91 856 284 
Q 544 659 544 1381 
z
M 1991 3584 
L 1991 3584 
z
" transform="scale(0.015625)"/>
      <path id="DejaVuSans-70" d="M 1159 525 
L 1159 -1331 
L 581 -1331 
L 581 3500 
L 1159 3500 
L 1159 2969 
Q 1341 3281 1617 3432 
Q 1894 3584 2278 3584 
Q 2916 3584 3314 3078 
Q 3713 2572 3713 1747 
Q 3713 922 3314 415 
Q 2916 -91 2278 -91 
Q 1894 -91 1617 61 
Q 1341 213 1159 525 
z
M 3116 1747 
Q 3116 2381 2855 2742 
Q 2594 3103 2138 3103 
Q 1681 3103 1420 2742 
Q 1159 2381 1159 1747 
Q 1159 1113 1420 752 
Q 1681 391 2138 391 
Q 2594 391 2855 752 
Q 3116 1113 3116 1747 
z
" transform="scale(0.015625)"/>
     </defs>
     <use xlink:href="#DejaVuSans-4d"/>
     <use xlink:href="#DejaVuSans-65" transform="translate(86.279297 0)"/>
     <use xlink:href="#DejaVuSans-61" transform="translate(147.802734 0)"/>
     <use xlink:href="#DejaVuSans-6e" transform="translate(209.082031 0)"/>
     <use xlink:href="#DejaVuSans-2d" transform="translate(272.460938 0)"/>
     <use xlink:href="#DejaVuSans-43" transform="translate(308.544922 0)"/>
     <use xlink:href="#DejaVuSans-65" transform="translate(378.369141 0)"/>
     <use xlink:href="#DejaVuSans-6e" transform="translate(439.892578 0)"/>
     <use xlink:href="#DejaVuSans-74" transform="translate(503.271484 0)"/>
     <use xlink:href="#DejaVuSans-65" transform="translate(542.480469 0)"/>
     <use xlink:href="#DejaVuSans-72" transform="translate(604.003906 0)"/>
     <use xlink:href="#DejaVuSans-65" transform="translate(642.867188 0)"/>
     <use xlink:href="#DejaVuSans-64" transform="translate(704.390625 0)"/>
     <use xlink:href="#DejaVuSans-20" transform="translate(767.867188 0)"/>
     <use xlink:href="#DejaVuSans-50" transform="translate(799.654297 0)"/>
     <use xlink:href="#DejaVuSans-6f" transform="translate(856.332031 0)"/>
     <use xlink:href="#DejaVuSans-74" transform="translate(917.513672 0)"/>
     <use xlink:href="#DejaVuSans-65" transform="translate(956.722656 0)"/>
     <use xlink:href="#DejaVuSans-6e" transform="translate(1018.246094 0)"/>
     <use xlink:href="#DejaVuSans-74" transform="translate(1081.625 0)"/>
     <use xlink:href="#DejaVuSans-69" transform="translate(1120.833984 0)"/>
     <use xlink:href="#DejaVuSans-61" transform="translate(1148.617188 0)"/>
     <use xlink:href="#DejaVuSans-6c" transform="translate(1209.896484 0)"/>
     <use xlink:href="#DejaVuSans-20" transform="translate(1237.679688 0)"/>
     <use xlink:href="#DejaVuSans-45" transform="translate(1269.466797 0)"/>
     <use xlink:href="#DejaVuSans-6e" transform="translate(1332.650391 0)"/>
     <use xlink:href="#DejaVuSans-65" transform="translate(1396.029297 0)"/>
     <use xlink:href="#DejaVuSans-72" transform="translate(1457.552734 0)"/>
     <use xlink:href="#DejaVuSans-67" transform="translate(1496.916016 0)"/>
     <use xlink:href="#DejaVuSans-79" transform="translate(1560.392578 0)"/>
     <use xlink:href="#DejaVuSans-20" transform="translate(1619.572266 0)"/>
     <use xlink:href="#DejaVuSans-76" transform="translate(1651.359375 0)"/>
     <use xlink:href="#DejaVuSans-73" transform="translate(1710.539062 0)"/>
     <use xlink:href="#DejaVuSans-2e" transform="translate(1762.638672 0)"/>
     <use xlink:href="#DejaVuSans-20" transform="translate(1794.425781 0)"/>
     <use xlink:href="#DejaVuSans-41" transform="translate(1826.212891 0)"/>
     <use xlink:href="#DejaVuSans-6e" transform="translate(1894.621094 0)"/>
     <use xlink:href="#DejaVuSans-67" transform="translate(1958 0)"/>
     <use xlink:href="#DejaVuSans-6c" transform="translate(2021.476562 0)"/>
     <use xlink:href="#DejaVuSans-65" transform="translate(2049.259766 0)"/>
     <use xlink:href="#DejaVuSans-20" transform="translate(2110.783203 0)"/>
     <use xlink:href="#DejaVuSans-66" transform="translate(2142.570312 0)"/>
     <use xlink:href="#DejaVuSans-6f" transform="translate(2177.775391 0)"/>
     <use xlink:href="#DejaVuSans-72" transform="translate(2238.957031 0)"/>
     <use xlink:href="#DejaVuSans-20" transform="translate(2280.070312 0)"/>
     <use xlink:href="#DejaVuSans-6d" transform="translate(2311.857422 0)"/>
     <use xlink:href="#DejaVuSans-75" transform="translate(2409.269531 0)"/>
     <use xlink:href="#DejaVuSans-6c" transform="translate(2472.648438 0)"/>
     <use xlink:href="#DejaVuSans-74" transform="translate(2500.431641 0)"/>
     <use xlink:href="#DejaVuSans-69" transform="translate(2539.640625 0)"/>
     <use xlink:href="#DejaVuSans-70" transform="translate(2567.423828 0)"/>
     <use xlink:href="#DejaVuSans-6c" transform="translate(2630.900391 0)"/>
     <use xlink:href="#DejaVuSans-65" transform="translate(2658.683594 0)"/>
     <use xlink:href="#DejaVuSans-20" transform="translate(2720.207031 0)"/>
     <use xlink:href="#DejaVuSans-64" transform="translate(2751.994141 0)"/>
     <use xlink:href="#DejaVuSans-65" transform="translate(2815.470703 0)"/>
     <use xlink:href="#DejaVuSans-6e" transform="translate(2876.994141 0)"/>
     <use xlink:href="#DejaVuSans-73" transform="translate(2940.373047 0)"/>
     <use xlink:href="#DejaVuSans-69" transform="translate(2992.472656 0)"/>
     <use xlink:href="#DejaVuSans-74" transform="translate(3020.255859 0)"/>
     <use xlink:href="#DejaVuSans-69" transform="translate(3059.464844 0)"/>
     <use xlink:href="#DejaVuSans-65" transform="translate(3087.248047 0)"/>
     <use xlink:href="#DejaVuSans-73" transform="translate(3148.771484 0)"/>
    </g>
   </g>
   <g id="legend_1">
    <g id="patch_7">
     <path d="M 940.424875 312.495153 
L 988.328 312.495153 
Q 990.328 312.495153 990.328 310.495153 
L 990.328 238.104528 
Q 990.328 236.104528 988.328 236.104528 
L 940.424875 236.104528 
Q 938.424875 236.104528 938.424875 238.104528 
L 938.424875 310.495153 
Q 938.424875 312.495153 940.424875 312.495153 
z
" style="fill: #ffffff; opacity: 0.8; stroke: #cccccc; stroke-linejoin: miter"/>
    </g>
    <g id="line2d_32">
     <path d="M 942.424875 244.202965 
L 952.424875 244.202965 
L 962.424875 244.202965 
" style="fill: none; stroke: #1f77b4; stroke-width: 1.5; stroke-linecap: square"/>
     <g>
      <use xlink:href="#m298fa272c5" x="952.424875" y="244.202965" style="fill: #1f77b4; stroke: #1f77b4"/>
     </g>
    </g>
    <g id="text_17">
     <!-- 0.1 -->
     <g transform="translate(970.424875 247.702965) scale(0.1 -0.1)">
      <use xlink:href="#DejaVuSans-30"/>
      <use xlink:href="#DejaVuSans-2e" transform="translate(63.623047 0)"/>
      <use xlink:href="#DejaVuSans-31" transform="translate(95.410156 0)"/>
     </g>
    </g>
    <g id="line2d_33">
     <path d="M 942.424875 258.88109 
L 952.424875 258.88109 
L 962.424875 258.88109 
" style="fill: none; stroke: #ff7f0e; stroke-width: 1.5; stroke-linecap: square"/>
     <g>
      <use xlink:href="#m3a1b7aef91" x="952.424875" y="258.88109" style="fill: #ff7f0e; stroke: #ff7f0e"/>
     </g>
    </g>
    <g id="text_18">
     <!-- 0.2 -->
     <g transform="translate(970.424875 262.38109) scale(0.1 -0.1)">
      <use xlink:href="#DejaVuSans-30"/>
      <use xlink:href="#DejaVuSans-2e" transform="translate(63.623047 0)"/>
      <use xlink:href="#DejaVuSans-32" transform="translate(95.410156 0)"/>
     </g>
    </g>
    <g id="line2d_34">
     <path d="M 942.424875 273.559215 
L 952.424875 273.559215 
L 962.424875 273.559215 
" style="fill: none; stroke: #2ca02c; stroke-width: 1.5; stroke-linecap: square"/>
     <g>
      <use xlink:href="#ma7b0418fc2" x="952.424875" y="273.559215" style="fill: #2ca02c; stroke: #2ca02c"/>
     </g>
    </g>
    <g id="text_19">
     <!-- 0.3 -->
     <g transform="translate(970.424875 277.059215) scale(0.1 -0.1)">
      <use xlink:href="#DejaVuSans-30"/>
      <use xlink:href="#DejaVuSans-2e" transform="translate(63.623047 0)"/>
      <use xlink:href="#DejaVuSans-33" transform="translate(95.410156 0)"/>
     </g>
    </g>
    <g id="line2d_35">
     <path d="M 942.424875 288.23734 
L 952.424875 288.23734 
L 962.424875 288.23734 
" style="fill: none; stroke: #d62728; stroke-width: 1.5; stroke-linecap: square"/>
     <g>
      <use xlink:href="#mc81cbc7769" x="952.424875" y="288.23734" style="fill: #d62728; stroke: #d62728"/>
     </g>
    </g>
    <g id="text_20">
     <!-- 0.4 -->
     <g transform="translate(970.424875 291.73734) scale(0.1 -0.1)">
      <use xlink:href="#DejaVuSans-30"/>
      <use xlink:href="#DejaVuSans-2e" transform="translate(63.623047 0)"/>
      <use xlink:href="#DejaVuSans-34" transform="translate(95.410156 0)"/>
     </g>
    </g>
    <g id="line2d_36">
     <path d="M 942.424875 302.915465 
L 952.424875 302.915465 
L 962.424875 302.915465 
" style="fill: none; stroke: #9467bd; stroke-width: 1.5; stroke-linecap: square"/>
     <g>
      <use xlink:href="#m8fb06d7d6b" x="952.424875" y="302.915465" style="fill: #9467bd; stroke: #9467bd"/>
     </g>
    </g>
    <g id="text_21">
     <!-- 0.5 -->
     <g transform="translate(970.424875 306.415465) scale(0.1 -0.1)">
      <defs>
       <path id="DejaVuSans-35" d="M 691 4666 
L 3169 4666 
L 3169 4134 
L 1269 4134 
L 1269 2991 
Q 1406 3038 1543 3061 
Q 1681 3084 1819 3084 
Q 2600 3084 3056 2656 
Q 3513 2228 3513 1497 
Q 3513 744 3044 326 
Q 2575 -91 1722 -91 
Q 1428 -91 1123 -41 
Q 819 9 494 109 
L 494 744 
Q 775 591 1075 516 
Q 1375 441 1709 441 
Q 2250 441 2565 725 
Q 2881 1009 2881 1497 
Q 2881 1984 2565 2268 
Q 2250 2553 1709 2553 
Q 1456 2553 1204 2497 
Q 953 2441 691 2322 
L 691 4666 
z
" transform="scale(0.015625)"/>
      </defs>
      <use xlink:href="#DejaVuSans-30"/>
      <use xlink:href="#DejaVuSans-2e" transform="translate(63.623047 0)"/>
      <use xlink:href="#DejaVuSans-35" transform="translate(95.410156 0)"/>
     </g>
    </g>
   </g>
  </g>
 </g>
 <defs>
  <clipPath id="p74fc9967ec">
   <rect x="138.24" y="65.18016" width="857.088" height="418.23936"/>
  </clipPath>
 </defs>
</svg>
